<?xml version="1.0" standalone="no"?>
<!DOCTYPE svg PUBLIC "-//W3C//DTD SVG 1.1//EN" "http://www.w3.org/Graphics/SVG/1.1/DTD/svg11.dtd" >
<svg xmlns="http://www.w3.org/2000/svg" xmlns:xlink="http://www.w3.org/1999/xlink" version="1.1">
<metadata>
Created by FontForge 20170731 at Sat Aug  8 11:29:56 2020
 By Aleksey,,,
Copyright (c) 2011 by Daniel Midgley. All rights reserved.
</metadata>
<defs>
<font id="Yataghan-Regular" horiz-adv-x="1060" >
  <font-face 
    font-family="Yataghan"
    font-weight="400"
    font-stretch="normal"
    units-per-em="2048"
    panose-1="0 0 0 0 0 0 0 0 0 0"
    ascent="1360"
    descent="-688"
    x-height="1473"
    cap-height="1944"
    bbox="-205 -1004 1982 2542"
    underline-thickness="102"
    underline-position="-307"
    unicode-range="U+000D-FB02"
  />
<missing-glyph horiz-adv-x="1024" 
d="M256 129h512v1104h-512v-1104zM129 0v1360h768v-1360h-768z" />
    <glyph glyph-name=".notdef" horiz-adv-x="1024" 
d="M256 129h512v1104h-512v-1104zM129 0v1360h768v-1360h-768z" />
    <glyph glyph-name=".null" horiz-adv-x="0" 
 />
    <glyph glyph-name="nonmarkingreturn" horiz-adv-x="682" 
 />
    <glyph glyph-name="CR" unicode="&#xd;" horiz-adv-x="200" 
 />
    <glyph glyph-name="space" unicode=" " horiz-adv-x="512" 
 />
    <glyph glyph-name="exclam" unicode="!" horiz-adv-x="438" 
d="M358 139q0 -42 -22 -84h-2q-3 0 -22.5 -17.5t-24.5 -19.5q-69 -36 -101 -36q-82 0 -82 88q0 15 4.5 27.5t15 30t13.5 24.5q3 5 3 16t5 18q15 15 28 24t29.5 14t25 6.5t30.5 3t31 2.5q33 1 51 -28.5t18 -68.5zM373 1890q-2 -16 -22.5 -38.5t-20.5 -45.5q0 -306 -8 -639
q-3 -140 -14 -387.5t-11 -296.5q0 -31 -15 -42t-53 -11q-34 2 -47.5 14.5t-13.5 44.5q0 53 -16 299t-21 379q-5 97 -4.5 251.5t-2 256t-13.5 135.5q-1 5 -3 11.5t-3 9.5t-2 7t-2.5 6.5t-2 5t-3 5t-4 4.5t-6 6t-7 6.5l-8.5 8.5q-23 27 16 53q11 11 64 11q16 1 41 -8.5
t42 -8.5q13 0 33 9t39 8q58 -1 68 -17q3 -5 3 -11t-1.5 -13.5t-1.5 -12.5z" />
    <glyph glyph-name="quotedbl" unicode="&#x22;" horiz-adv-x="610" 
d="M270 1935q11 -2 11.5 -29.5t-8.5 -80.5t-20 -107t-27.5 -133.5t-26.5 -136.5q-13 -2 -28.5 -11.5t-33.5 -6.5q-3 146 -14.5 245t-38.5 207q-15 62 47 69.5t121 -13.5zM516 1935q11 -2 11.5 -29.5t-8.5 -80t-20.5 -107t-28 -134t-26.5 -136.5q-13 -2 -28 -11.5t-33 -6.5
q-3 146 -14.5 245t-38.5 207q-15 62 47 69.5t121 -13.5z" />
    <glyph glyph-name="numbersign" unicode="#" horiz-adv-x="1306" 
d="M471 1690q20 -3 27 -424h155h164q-27 307 -43 370q-15 62 48 69.5t124 -12.5q12 -2 17 -3q19 -3 26 -424h168l70 -64q1 -16 -7 -32t-18 -21q-11 -4 -41 7.5t-43 12.5l-129 7q2 -132 -2 -402h170l70 -63q1 -16 -7 -32.5t-18 -21.5q-11 -4 -40.5 8t-43.5 13l-131 6
q-11 -434 -29 -541q-14 -2 -29 -10.5t-32 -5.5q-3 95 -35 561q-120 6 -209 6q-35 0 -157 -4q-7 -417 -29 -547q-14 -2 -29 -10.5t-32 -5.5q-2 92 -35 559q-43 -2 -89 -4t-70.5 -3t-25.5 -1q-15 0 -44.5 -12.5t-39.5 -8.5q-9 5 -16 21.5t-4 32.5l65 63h218q-10 140 -31 402
q-144 -7 -148 -7q-14 0 -43.5 -12t-40.5 -8q-9 5 -16 21t-4 32l65 64h179q-27 307 -43 370q-15 62 47.5 69.5t122.5 -12.5zM498 1182q2 -133 -2 -408h157h203q-10 139 -31 408q-136 4 -172 4q-33 0 -155 -4z" />
    <glyph glyph-name="dollar" unicode="$" horiz-adv-x="849" 
d="M494 -408q-13 -2 -29 -11.5t-33 -6.5q0 3 -8 281q-131 -145 -252 -244l-27 43q1 13 42.5 55.5t112 116t120.5 139.5q-4 182 -21 660q-36 43 -105.5 119t-108 120t-71 104.5t-32.5 110.5q0 115 81.5 238t194.5 168q-9 108 -16 151q-4 17 -5 29.5t3 20t9 13t15 7t18.5 1.5
t22.5 -2t23.5 -4t25.5 -5.5t25 -5.5q11 0 21 -197q73 -26 151 -82.5t78 -95.5q0 -32 -27.5 -122.5t-48.5 -90.5q-5 0 -25 39.5t-54.5 101.5t-67.5 103q7 -249 10 -525q26 -31 88 -99t88.5 -99.5t52 -78t25.5 -81.5q0 -101 -71 -233.5t-185 -272.5q-6 -277 -20 -365zM383 989
q-3 75 -21 404q-37 -22 -71.5 -92.5t-34.5 -112.5q0 -27 20 -59t56 -75t51 -65zM518 457q0 -56 -1 -173t-1 -165q5 12 21 44.5t26 53t18.5 48.5t8.5 48q0 21 -11.5 44.5t-32 53.5t-28.5 46z" />
    <glyph glyph-name="percent" unicode="%" horiz-adv-x="1394" 
d="M1147 483q-1 8 -1.5 23.5t-1.5 28.5t-3 24q-7 66 -32.5 99.5t-90.5 33.5q-25 0 -44.5 -5.5t-32.5 -13.5t-22.5 -23.5t-14.5 -27t-9 -33.5t-5 -34t-2.5 -37t-2.5 -35q-8 -90 12.5 -198.5t55 -182t65.5 -73.5q30 0 64.5 70t54 179t10.5 205zM1313 403q0 -78 -25.5 -154
t-63.5 -130t-80 -96.5t-76 -64t-50 -21.5t-52 23t-80 67t-83 99t-63 129.5t-19 147.5q3 51 12 96t30 94t52.5 84t83.5 58t119 23q66 0 119 -23.5t85 -60.5t53.5 -85.5t29.5 -94t8 -91.5zM1108 1690q18 -3 -173 -440.5t-391 -873.5l-200 -437l-47 41q578 1474 625 1656
q6 21 14.5 35.5t22 21.5t24 11t30.5 2t29.5 -3t34 -6.5t31.5 -6.5zM508 1442q-1 8 -1.5 23.5t-1.5 28.5t-3 24q-7 66 -32.5 99.5t-90.5 33.5q-25 0 -44.5 -5.5t-32.5 -13.5t-22.5 -23.5t-14.5 -27t-9 -33.5t-5 -34t-2.5 -37t-2.5 -35q-8 -90 12.5 -199t55 -182.5t65.5 -73.5
q30 0 64.5 70t54 179.5t10.5 205.5zM674 1362q0 -78 -25.5 -154t-63.5 -130.5t-80 -97t-76 -64t-50 -21.5q-21 0 -70.5 37.5t-103.5 97.5t-91.5 151t-31.5 181q3 51 12 95.5t30 94t52.5 84t83.5 57.5t119 23q66 0 119 -23.5t85 -60t53.5 -85t29.5 -94t8 -91.5z" />
    <glyph glyph-name="ampersand" unicode="&#x26;" horiz-adv-x="1755" 
d="M1118 137q-75 -84 -260 -157q-127 -50 -280 -50q-115 0 -203 27.5t-142.5 73t-89 110.5t-48 132.5t-13.5 146.5q0 294 354 530q-40 75 -65 131q-42 89 -59.5 191.5t-10 201.5t43 191t93 162t146.5 111.5t198 41.5q42 0 129.5 -42t161.5 -102t74 -101q0 -49 -18 -124
t-48 -87q-30 49 -69.5 102.5t-92 114t-111 99t-106.5 38.5q-71 0 -122.5 -45t-76 -115t-32.5 -150.5t3 -157t36 -128.5q90 -190 142 -294t127 -235.5t153.5 -235.5t175.5 -208q121 218 121 471q0 31 4 187q-28 -3 -54 -6t-39 -5l-14 -2q-14 0 -43.5 -12t-40.5 -8
q-10 5 -17.5 21t-4.5 30l67 66h148q2 39 2 139q0 18 -3.5 39t-6.5 24q-5 4 -28 7t-28 8q-14 16 -14 45q1 16 16.5 26.5t40 19.5t35.5 17q61 44 117 72t72 12q19 -19 32 -41t9 -33q-17 -34 -31.5 -89t-11.5 -107q6 -82 6 -139h164l67 -66q1 -14 -7 -30t-17 -21q-9 -4 -38 8
t-44 12l-16 2q-16 3 -46.5 6t-64.5 5q-1 -43 -4 -91.5t-6 -80.5t-9 -84.5t-8 -75.5q-25 -224 -215 -418q136 -133 365 -311l-13 -56q-259 153 -432 287zM487 856q-40 -46 -41 -47q-50 -63 -81.5 -132.5t-44.5 -146.5t-17 -135.5t-4 -144.5q0 -27 6.5 -57t22.5 -63.5
t39.5 -59.5t62.5 -43t86 -17q33 0 78 -1.5t66 -1.5t53.5 4.5t68.5 15.5q101 30 254 178q-332 274 -549 651z" />
    <glyph glyph-name="quotesingle" unicode="'" horiz-adv-x="364" 
d="M270 1935q11 -2 11.5 -29.5t-8.5 -80.5t-20 -107t-27.5 -133.5t-26.5 -136.5q-13 -2 -28.5 -11.5t-33.5 -6.5q-3 146 -14.5 245t-38.5 207q-15 62 47 69.5t121 -13.5z" />
    <glyph glyph-name="parenleft" unicode="(" horiz-adv-x="528" 
d="M528 -690q-14 -13 -28 -12.5t-33 -2.5q-88 107 -156 245.5t-110.5 280t-70 301t-38 302.5t-10.5 291q0 149 10.5 292t38 302.5t70 301t110.5 279.5t156 246q13 -5 32.5 -4t28.5 -10q-116 -225 -175.5 -558.5t-59.5 -846.5q0 -514 59.5 -849t175.5 -558z" />
    <glyph glyph-name="parenright" unicode=")" horiz-adv-x="528" 
d="M446 715q0 -148 -10.5 -291t-38 -302.5t-70 -301t-110.5 -280t-156 -245.5q-16 5 -24 3t-17 0t-20 12q116 224 176 559t60 848q0 512 -60 845.5t-176 559.5q14 11 28.5 10t32.5 4q88 -108 156 -246t110.5 -279.5t70 -301t38 -302.5t10.5 -292z" />
    <glyph glyph-name="asterisk" unicode="*" horiz-adv-x="894" 
d="M762 1389q-6 -16 -4.5 -24t-0.5 -17.5t-12 -20.5q-84 47 -247 141q-24 -170 -43 -266q-12 -2 -27.5 -11.5t-32.5 -6.5q-2 76 -2 286q-140 -58 -252 -96q-8 10 -24.5 18t-20.5 25q13 8 240 142q-145 73 -207 92q-22 6 -34 16t-13 23t2.5 25.5t15.5 29t22 28.5t25 29
q4 4 5.5 6t4.5 5t5 6q15 18 225 -136q-3 115 -20 199q-16 60 31 68.5t103 -10.5q7 -1 10 -1.5t8 -1.5t9 -2q25 -3 -4 -262q112 71 160 119q12 12 23.5 17.5t20.5 5t17 -4t15.5 -13.5t12.5 -18.5t11.5 -23.5t10 -25.5t9.5 -27t9 -25.5t-29 -29.5t-87 -47t-126 -56.5
q117 -93 191 -155z" />
    <glyph glyph-name="plus" unicode="+" horiz-adv-x="1011" 
d="M569 944q13 -1 21 -111.5t6 -263.5h266l70 -63q1 -16 -7 -32t-18 -21q-11 -4 -40.5 8t-43.5 12l-33 3q-34 2 -89.5 5.5t-104.5 5.5q-7 -281 -31 -426q-14 -2 -29 -10.5t-32 -5.5q-3 137 -39 444q-54 -2 -122.5 -6t-112.5 -7l-44 -3q-14 0 -43.5 -12t-40.5 -8q-9 5 -16 21
t-4 32l65 63h310q-27 230 -51 322q-15 60 32.5 68.5t104.5 -10.5q18 -3 26 -5z" />
    <glyph glyph-name="comma" unicode="," horiz-adv-x="524" 
d="M442 193q-18 -36 -51.5 -83.5t-58 -78.5t-91.5 -111.5t-98 -118.5q-16 5 -24.5 3t-17.5 0t-19 12q23 46 59.5 112t55.5 102.5t41 89t36 103.5q8 29 28.5 36t43.5 -2.5t45 -23.5t37 -27z" />
    <glyph glyph-name="hyphen" unicode="-" horiz-adv-x="823" 
d="M668 901l69 -113q12 -20 0.5 -50.5t-24.5 -41.5q-10 -7 -39 14t-45 21l-11 3q-11 3 -30.5 7.5t-44.5 9.5t-59.5 8t-69.5 3q-36 0 -71 -3t-60.5 -8t-45 -9.5t-31.5 -7.5l-11 -3q-14 0 -43.5 -21t-40.5 -14q-7 6 -16 22t-13.5 35.5t6.5 34.5l68 113h258h254z" />
    <glyph glyph-name="period" unicode="." horiz-adv-x="415" 
d="M334 133q0 -40 -23 -84h-2q-3 0 -12 -8t-20 -17.5t-15 -11.5q-71 -37 -100 -37q-80 0 -80 88q0 15 4.5 28t13.5 29t13 25q2 4 2.5 16t7.5 19q15 15 28 24t28.5 13.5t24.5 6t30.5 3t31.5 2.5q33 1 50.5 -28t17.5 -68z" />
    <glyph glyph-name="slash" unicode="/" horiz-adv-x="974" 
d="M893 1690q17 -3 -174.5 -440.5t-391.5 -873.5l-200 -437l-45 41q578 1474 625 1656q5 21 13.5 35.5t22 21.5t23.5 11t30 2t30.5 -3t34.5 -6.5t32 -6.5z" />
    <glyph glyph-name="zero" unicode="0" horiz-adv-x="1062" 
d="M758 993q-1 20 -3.5 59t-4 61.5t-5 58.5t-8 58t-13 51.5t-19.5 48t-27.5 38.5t-37 31t-48 18.5t-60.5 7.5q-34 0 -62 -7.5t-48.5 -18.5t-37 -31t-28 -38.5t-20 -48t-13 -51.5t-8 -58t-5 -59t-4 -61t-3.5 -59q-13 -174 19 -390.5t91.5 -368.5t118.5 -152q45 0 91.5 89
t79.5 221.5t49.5 296.5t5.5 304zM983 836q0 -126 -28.5 -249t-73.5 -217t-98 -175.5t-104 -134t-90 -82t-57 -29.5t-59 31.5t-94 87t-108 139t-100 177.5t-70.5 214t-18.5 238q41 667 450 667q101 0 181 -43.5t129.5 -112t82 -159t45.5 -177.5t13 -175z" />
    <glyph glyph-name="one" unicode="1" horiz-adv-x="550" 
d="M479 47q8 -8 10 -16t-2.5 -15.5t-9 -12t-12.5 -11.5q-5 -4 -17 -5.5t-27 -1.5t-20 -1q-29 -4 -70.5 6t-62.5 10q-24 0 -64.5 -8.5t-56.5 -7.5q-57 0 -67 16q-4 8 0 37q3 14 18 25t31 17t29.5 17t13.5 25q0 51 4 283.5t4 293.5q-1 89 -4.5 224.5t-3.5 314.5q0 51 -10 61
q-3 2 -24 -0.5t-38.5 0t-17.5 17.5q-1 9 3.5 15.5t14 14t13.5 11.5q34 40 71 67q14 10 23.5 17t24.5 17t25.5 16.5t24 14.5t23 12t19.5 7t17 2t11 -6q47 -54 39 -69q-22 -43 -22 -197q0 -124 1 -315.5t1 -223.5v-67.5v-108.5t1 -118t3 -124.5t6 -98t10 -66.5q5 -18 20 -28
t35.5 -19t32.5 -21z" />
    <glyph glyph-name="two" unicode="2" horiz-adv-x="1015" 
d="M934 143q0 -28 -0.5 -42.5t-4.5 -37.5t-12.5 -35t-24.5 -21t-40 -9h-711l-24 -12l-35 125q13 14 34.5 38.5t85 100.5t121 152.5t127.5 183t120.5 202.5t85 201t34.5 189q0 227 -141 227q-45 0 -99.5 -36.5t-104 -92.5t-86.5 -106.5t-64 -96.5q-27 8 -44.5 80.5
t-17.5 116.5q0 39 69.5 95.5t151.5 96t121 39.5q110 0 187 -25.5t118.5 -71.5t63.5 -110.5t21 -142t-9 -166.5q-7 -65 -83.5 -196.5t-189.5 -284t-190 -251.5t-143 -179h342q58 1 107.5 47t75.5 101t47.5 101t29.5 46q19 0 50.5 -100t31.5 -126z" />
    <glyph glyph-name="three" unicode="3" horiz-adv-x="913" 
d="M827 1159q0 -95 -13.5 -176.5t-40.5 -145t-59.5 -114.5t-79 -94.5t-89.5 -75.5t-99 -66l21 -6q9 -2 24.5 -5t60.5 -16t86 -29.5t90.5 -46t84.5 -64t58.5 -85.5t21.5 -108q-2 -62 -68.5 -150.5t-162.5 -175.5t-215.5 -178.5t-217.5 -158.5t-180 -117l-26 47
q76 57 132.5 100t128 101.5t122.5 106t103.5 104t85 104.5t53 99.5t20.5 96.5q0 48 -23.5 90.5t-59 70.5t-77 49t-78.5 30.5t-63 9.5q-9 0 -51.5 -13t-57.5 -15l-29 45q10 21 29 43l-6 8q124 90 193.5 156t115 151.5t60 180.5t14.5 245q0 240 -168 240q-69 0 -107 -13
q-45 -16 -83.5 -63.5t-59 -95.5t-37.5 -85.5t-24 -37.5q-19 0 -50.5 99.5t-31.5 125.5q0 28 0.5 43t5 38.5t12.5 35.5t24 21.5t40 9.5h247h9q63 0 92 -0.5t76 -2.5t66.5 -5.5t52 -11.5t44.5 -19.5t31.5 -29t25.5 -40t14.5 -53.5t10.5 -68.5t2 -85.5z" />
    <glyph glyph-name="four" unicode="4" horiz-adv-x="1097" 
d="M1030 -442q7 -8 8.5 -15.5t-3.5 -15t-9 -12t-12 -11.5q-5 -5 -17 -7t-27.5 -2t-19.5 -1q-27 -3 -57.5 7t-54.5 10t-64 -9t-57 -8q-58 1 -68 17q-4 8 0 36q3 14 18 25t31 17t29.5 17t13.5 25q0 41 4 369h-606l-57 29q10 18 26.5 53.5t57.5 157.5t70 258q4 19 16.5 77
t16 74.5t13 63.5t11.5 66.5t8 61t7 68.5t2.5 66.5t0.5 78.5t-4 83h29q130 0 139 -60q11 -57 -2.5 -177.5t-32 -215t-53.5 -264.5q-8 -36 -14.5 -79t-18.5 -87t-45 -137q-3 -8 136 -10t303 2q0 79 1 204t1 138q-1 64 -5 316t-4 437q0 55 -10 62q-5 4 -25.5 7.5t-25.5 8.5
q-18 21 -18 43q0 16 15.5 27t40.5 21t36 18q148 106 172 82q50 -50 39 -72q-47 -103 -47 -197q0 -123 1 -422.5t1 -330.5v-338l145 4l12 -117h-155q4 -329 18 -373q7 -25 43 -42t47 -27z" />
    <glyph glyph-name="five" unicode="5" horiz-adv-x="964" 
d="M336 645l141 -22q67 -11 124.5 -28t117 -47.5t101 -70t67.5 -98.5t26 -131q0 -75 -31 -152t-84 -144t-121.5 -132.5t-144.5 -120t-151.5 -103t-144 -85t-121.5 -63.5t-84 -40l-31 -14l-29 43q16 10 42.5 29t104.5 78t148.5 118.5t157 145t148.5 164.5t104.5 169t42.5 166
q0 55 -18 98t-47.5 70t-72 46t-85.5 28t-95 14l-120 10q-69 3 -166 74q-27 19 11 348t73 426q13 34 67 48.5t102 12.5l48 -3h28h353q23 0 39 -9t24.5 -21t12.5 -34t5 -37.5t1 -42.5t-31.5 -127t-50.5 -100q-8 0 -29.5 46t-47.5 101.5t-75.5 101.5t-107.5 46h-111
q-23 -4 -33 -14q-10 -7 -16 -19q-48 -213 -82 -670q3 -18 12 -30q9 -15 29 -25z" />
    <glyph glyph-name="six" unicode="6" horiz-adv-x="1062" 
d="M791 348q4 148 1 270.5t-19.5 217.5t-47.5 159t-83 94.5t-126 24.5q-104 -6 -147 -49q-55 -195 -68 -276t-10 -152q7 -220 17 -297q35 -269 177 -301q30 -8 66 -4q112 10 174.5 97.5t65.5 215.5zM981 666q23 -700 -426 -719q-161 -7 -272.5 88.5t-160 255.5t-40.5 364
q2 33 10 117v6q15 139 123 385t267 497.5t302 387.5l37 -53q-302 -440 -424 -811q61 14 117 14q101 1 182 -33t132 -88.5t86 -127t50 -142.5t17 -141z" />
    <glyph glyph-name="seven" unicode="7" horiz-adv-x="966" 
d="M885 1407q0 -197 -254 -924q-63 -180 -173.5 -433.5t-189.5 -416.5l-80 -163l-55 30q235 657 346 1088q19 75 55 206t52.5 197.5t37.5 173t33 215.5q-4 15 -8 19t-8 4h-219q-47 0 -88 -30.5t-67.5 -73.5t-47 -86.5t-35 -74t-22.5 -30.5q-19 0 -49.5 100t-30.5 127
q0 28 0.5 42.5t4.5 37.5t12 34.5t24 20.5t39 9l506 2h28h6q31 0 52.5 -1.5t56.5 -7.5t54.5 -22.5t19.5 -42.5z" />
    <glyph glyph-name="eight" unicode="8" 
d="M768 256q15 94 -13.5 205.5t-90.5 190.5t-134 79q-71 0 -133 -82t-91 -193.5t-15 -199.5q2 -11 5 -36.5t5.5 -40.5t9 -35t15.5 -35q25 -37 70 -56.5t134 -19.5q87 0 132.5 20t70.5 56q19 31 25 69q2 13 5 38.5t5 39.5zM719 1247q-2 11 -5 33.5t-5 34.5q-7 40 -25 63
q-4 5 -12.5 18.5t-12.5 17.5t-15.5 13t-24.5 12t-36 6t-53 3q-37 0 -62 -2.5t-41 -12t-21.5 -13t-16.5 -21t-14 -21.5q-12 -17 -18.5 -36.5t-11 -54.5t-5.5 -40q-14 -80 1.5 -175.5t63.5 -170t115 -80.5q2 0 5.5 1t4.5 1q2 0 6.5 -1t6.5 -1q67 6 114 78t62 167.5t0 180.5z
M981 344q0 -60 -10.5 -110t-40 -101t-78.5 -85.5t-131 -56.5t-191 -22t-190.5 22t-129.5 56.5t-78 85.5t-40 101t-10 110q0 70 32.5 139.5t85 125.5t107.5 98.5t111 72.5q-50 29 -97 67t-91.5 87.5t-71.5 110.5t-27 122q0 42 2.5 71.5t11.5 67t25 64t45.5 53.5t71 43
t103.5 26.5t140 10.5q79 0 141 -10.5t103.5 -26.5t71.5 -43t46.5 -53.5t25.5 -64t11.5 -67.5t2.5 -71q0 -64 -26.5 -126t-70.5 -111t-91 -86t-97 -64q57 -30 111 -70.5t106.5 -95.5t84.5 -125.5t32 -144.5z" />
    <glyph glyph-name="nine" unicode="9" horiz-adv-x="1058" 
d="M961 688q-24 -140 -139 -382.5t-281.5 -492.5t-313.5 -384l-32 53q247 346 378 635q-71 29 -86 41q-224 170 -314.5 352.5t-90.5 429.5q0 96 32 194.5t88 181t144.5 135t190.5 52.5q158 0 269.5 -114.5t151.5 -301t3 -399.5zM643 291q129 285 129 645q0 46 -7 101.5
t-25.5 121.5t-45.5 119.5t-72 89t-100 35.5q-64 0 -114.5 -48.5t-78.5 -122.5t-42.5 -140.5t-18.5 -122.5q-7 -120 25.5 -254t82.5 -232.5t103.5 -163.5t89.5 -65q58 0 74 37z" />
    <glyph glyph-name="colon" unicode=":" horiz-adv-x="415" 
d="M334 870q0 -40 -23 -84h-2q-3 0 -12 -7.5t-20 -17t-15 -11.5q-71 -37 -100 -37q-80 0 -80 88q0 15 4.5 28t13.5 29t13 25q2 4 2.5 16t7.5 19q15 15 28 24t28.5 13.5t24.5 6t30.5 3t31.5 2.5q33 1 50.5 -28.5t17.5 -68.5zM334 133q0 -40 -23 -84h-2q-3 0 -12 -8t-20 -17.5
t-15 -11.5q-71 -37 -100 -37q-80 0 -80 88q0 15 4.5 28t13.5 29t13 25q2 4 2.5 16t7.5 19q15 15 28 24t28.5 13.5t24.5 6t30.5 3t31.5 2.5q33 1 50.5 -28t17.5 -68z" />
    <glyph glyph-name="semicolon" unicode=";" horiz-adv-x="425" 
d="M305 193q-15 -30 -34 -59.5t-53.5 -73.5t-55 -69.5t-77 -92.5t-81.5 -97q-15 5 -23 3t-17.5 0t-20.5 12q22 43 60 111.5t56.5 103.5t41 88t36.5 104q8 29 28 36t43 -2.5t45.5 -23.5t36.5 -27zM344 870q0 -42 -22 -84h-3q-3 0 -12 -7.5t-20 -17t-15 -11.5
q-71 -37 -100 -37q-82 0 -82 88q0 15 5 28t14.5 28.5t13.5 25.5q2 4 2.5 16t7.5 19q14 15 27 24t28.5 13.5t24.5 6t30 3t31 2.5q34 1 52 -28t18 -69z" />
    <glyph glyph-name="less" unicode="&#x3c;" horiz-adv-x="972" 
d="M891 1171q-1 -6 -10 -16t-23 -21t-26 -20.5t-24 -18.5t-13 -10q-174 -133 -498 -366l573 -481l-88 -41l-700 522q103 68 329.5 233t235.5 201q9 34 27 52.5t45 20t49 -2t55.5 -12.5t48.5 -11q10 -1 16 -10.5t3 -18.5z" />
    <glyph glyph-name="equal" unicode="=" horiz-adv-x="1011" 
d="M862 479l70 -63q1 -16 -7 -32.5t-18 -21.5q-10 -4 -39.5 8.5t-44.5 12.5l-21 1q-22 2 -56 4.5t-74 5t-85 4t-81 1.5t-81.5 -1.5t-85.5 -4t-74.5 -5t-56.5 -4.5l-22 -1q-15 0 -44.5 -12.5t-39.5 -8.5q-9 5 -16 21.5t-4 32.5l65 63h359h356zM862 774l70 -63q1 -16 -7 -32.5
t-18 -21.5q-10 -4 -39.5 8.5t-44.5 12.5l-21 2q-22 1 -56 3.5t-74 5t-85 4t-81 1.5t-81.5 -1.5t-85.5 -4t-74.5 -5t-56.5 -3.5l-22 -2q-15 0 -44.5 -12.5t-39.5 -8.5q-9 5 -16 21.5t-4 32.5l65 63h359h356z" />
    <glyph glyph-name="greater" unicode="&#x3e;" horiz-adv-x="1024" 
d="M942 745l-741 -524l-115 10l608 510q-557 318 -590 361q-32 48 -19.5 75.5t56.5 32.5q33 1 45.5 0t45.5 -5t44 -5q8 -1 174.5 -114.5t329.5 -227.5z" />
    <glyph glyph-name="question" unicode="?" horiz-adv-x="966" 
d="M551 139q0 -43 -21 -84h-4q-3 0 -22.5 -17.5t-22.5 -19.5q-69 -36 -102 -36q-80 0 -80 88q0 15 4.5 28t13.5 29t13 25q2 4 2.5 15.5t7.5 18.5q15 15 28 24t29 14t24.5 6.5t30.5 3t31 2.5q33 1 50.5 -28.5t17.5 -68.5zM885 1569q0 -62 -22.5 -124t-58 -114.5t-79 -106
t-87 -107.5t-79 -109.5t-58 -122t-22.5 -135.5q0 -70 -7 -150t-14 -125l-7 -45h-54q-53 365 -53 496q0 68 33 134t79.5 122t93 114.5t79.5 136t33 162.5q0 76 -10 129t-25 82.5t-40.5 45.5t-48.5 20t-57 4q-56 0 -115 -58.5t-97.5 -129t-69.5 -129t-37 -58.5q-26 0 -53 93
t-27 137q0 41 61 101t136.5 103t117.5 43q127 0 238.5 -52t180.5 -147t69 -210z" />
    <glyph glyph-name="at" unicode="@" horiz-adv-x="1644" 
d="M983 776q0 108 -3 115.5t-3 177.5q0 6 -2 44.5t-2 55.5q-3 19 -12 25q-10 4 -33 0q-350 -202 -350 -666q0 -24 6 -68t18.5 -97t36.5 -91.5t55 -38.5q32 0 94 57t108 112.5t83 105.5q4 204 4 268zM1546 647q-11 -96 -37.5 -207.5t-47.5 -175.5l-21 -63q-3 -7 -97.5 -33.5
t-95.5 -28.5q-6 -4 -12.5 -5.5t-16 -1.5t-14.5 -1q-21 -3 -52 6.5t-48 9.5t-44 -8.5t-44 -7.5q-39 0 -47 16q-3 5 -3 11t1.5 13.5t1.5 12.5q0 15 4 38t4 46v121q-36 -39 -78.5 -79.5t-98 -88t-109.5 -77t-91 -29.5q-44 0 -79.5 14.5t-58 35.5t-39 55.5t-24.5 63.5t-12.5 71
t-5 67t-0.5 61q0 140 40 269t116.5 237t197.5 184.5t273 104.5q38 13 84.5 7.5t60.5 -19.5q19 -19 32 -41t7 -33q-12 -27 -15 -46t-3 -77q0 -123 1 -192t1 -101v-62v-94.5t0.5 -102.5t2.5 -107.5t6 -86.5t9 -61q6 -18 30.5 -20t45.5 5l22 7q50 340 70 569q13 157 -6 276.5
t-72.5 203.5t-147 124t-225.5 33q-96 -6 -182.5 -35t-165 -87t-138 -140t-100 -200.5t-51.5 -262.5q-4 -121 -7 -218t15 -175t33 -137.5t47 -104t57 -75.5t63.5 -51.5t65.5 -32t63 -18t57 -8t47 -2.5q17 0 24 -1q79 -7 179.5 13t187.5 53.5t162.5 68t119.5 59.5l44 25
l26 -45q-17 -12 -46 -32t-115 -70.5t-167.5 -88t-186 -66t-187.5 -24.5q-121 8 -137 10q-515 63 -546 678q-6 127 9 277q15 164 76 303t162 244t248 168t325 71q74 2 142 2.5t129.5 -9.5t115.5 -27t99 -51t80 -81t58.5 -117t35.5 -159t10.5 -206.5t-17.5 -260.5z" />
    <glyph glyph-name="A" unicode="A" horiz-adv-x="1228" 
d="M1198 10q-4 -8 -21 -12.5t-32 -5.5h-15q-17 0 -56.5 8.5t-63.5 9.5q-23 0 -64 -10t-69 -8q-4 0 -19.5 1t-27.5 3t-17 6q-39 30 -14 55q12 12 32.5 20.5t35.5 18.5t20 29q11 35 11.5 78.5t-4 98.5t-3.5 87v66q-5 2 -19.5 7t-26 8t-22.5 3l-13 1q-12 2 -33.5 4.5t-49 5
t-65.5 4t-76 1.5q-39 0 -78 -1.5t-67 -4t-50 -5t-35 -4t-14 -1.5v-70q-1 -65 2.5 -146.5t3.5 -125.5q0 -15 13.5 -26.5t30 -17t31.5 -16t17 -24.5q4 -29 0 -37t-21 -12.5t-31 -5.5h-15q-16 0 -55.5 8.5t-65.5 9.5q-24 0 -64 -10t-67 -8q-4 0 -20.5 1t-28 3t-17.5 6
q-8 7 -12.5 11.5t-9 12t-2.5 15.5t10 16q12 12 32.5 20.5t35.5 18.5t20 29q6 19 10 43.5t6.5 42t3.5 50.5t1 45v51.5v45.5l6 410q1 125 31.5 267t77 265.5t102 239.5t107 198t92 131.5t57.5 49.5t57.5 -49.5t92 -131.5t107 -198t102 -239.5t77 -265.5t31.5 -267l4 -412
q1 -57 6.5 -136.5t5.5 -133.5q0 -15 13.5 -26.5t29.5 -17t31 -16t18 -24.5q4 -29 0 -37zM866 567h25v230q-1 134 -53.5 375.5t-117 429.5t-97.5 188q-34 0 -100.5 -188.5t-120.5 -430t-56 -374.5l-2 -230h242h280z" />
    <glyph glyph-name="B" unicode="B" horiz-adv-x="1169" 
d="M459 63h2q30 8 52.5 17t44 25t33 26t37 36t40.5 40q75 73 124.5 191t63 228.5t3 202.5t-43.5 123q-34 34 -100 58q-51 12 -78 10q-30 -3 -59 -12q-82 -44 -140 -70l-30 27l10 7q10 8 26 20.5t36.5 29t43.5 36.5t45 41t43.5 44.5t36.5 44.5q154 217 154 481q0 30 -11.5 63
t-36 66t-70.5 54.5t-107 21.5q-52 0 -138 -4q-4 -5 -32.5 -24t-28.5 -40q0 -51 -4 -407.5t-4 -417.5v-70.5v-125.5v-150.5t1.5 -165.5t3.5 -148t6 -122.5t9 -65.5q5 -19 14.5 -29t26 -20t27.5 -21zM389 0h-121h-121q-57 0 -67 16q-4 9 0 37q2 14 17 25t31.5 17t30 17
t13.5 25q0 51 4 417t4 427v69v122.5v146.5t-1.5 161.5t-3.5 145t-6 120t-9 64.5q-5 19 -20 29t-36.5 19.5t-33.5 21.5q-23 27 16 53q5 5 16.5 7.5t28 3t19.5 0.5h133h120h15h96q120 0 212.5 -23.5t149 -62.5t93 -94.5t50 -113.5t13.5 -126q0 -128 -77 -232t-234 -202
q174 -54 242 -125q76 -77 106 -177t15 -201t-63 -199.5t-124 -182.5q-104 -117 -218 -161t-290 -44z" />
    <glyph glyph-name="C" unicode="C" horiz-adv-x="1026" 
d="M1026 1735q0 -47 -19.5 -129t-45.5 -82q-6 0 -32 36.5t-65 88.5t-84 104t-98 88.5t-98 36.5q-61 0 -110 -38t-78 -94t-48 -126.5t-26 -129.5t-7 -110q0 -304 11 -429q26 -313 149 -574q27 -56 69.5 -125t84 -127t79.5 -108t62 -79l23 -30l-37 -55q-243 195 -387.5 374.5
t-215.5 386.5t-71 465q0 55 5 119t20.5 154t40.5 173t70.5 168t104 147t147 101t194.5 39q42 0 129 -42.5t160 -102.5t73 -100z" />
    <glyph glyph-name="D" unicode="D" horiz-adv-x="1232" 
d="M346 0h-78h-121q-57 0 -67 16q-4 9 0 37q2 14 17 25t31.5 17t30 17t13.5 25q0 51 4 417t4 427v69v122.5v146.5t-1.5 161.5t-3.5 145t-6 120t-9 64.5q-5 19 -20 29t-36.5 19.5t-33.5 21.5q-23 27 16 53q5 5 16.5 7.5t28 3t19.5 0.5h133h92q46 0 121 -3.5t90 -3.5
q106 0 193 -34t144 -87.5t100.5 -129t67 -148.5t38 -155.5t18.5 -140.5t4 -114q0 -241 -69.5 -474.5t-166.5 -340.5q-115 -130 -143 -158q-116 -115 -236 -143q-40 -10 -85 -12h-105zM420 1853q-1 -1 -6.5 -4t-7 -4l-6 -4t-6 -4.5t-5 -4.5t-4.5 -5.5t-3 -6t-2.5 -7
t-0.5 -7.5q0 -51 -4 -407.5t-4 -417.5v-70.5v-125.5v-150.5t1.5 -165.5t3.5 -148t6 -122.5t9 -65.5q3 -10 6.5 -16.5t8.5 -12t8 -8t11 -7.5t11 -7q45 16 86 37.5t71 42t58.5 48t46 47.5t37.5 49t29 44.5t24 42t19 33.5q58 99 84.5 396t26.5 608q0 50 -7 102t-26 111
t-47.5 104.5t-77 75.5t-109.5 30h-231z" />
    <glyph glyph-name="E" unicode="E" horiz-adv-x="1085" 
d="M1006 143q0 -27 -1 -43t-5 -38t-12.5 -34t-24.5 -21t-39 -9h-516h-7h-133h-121q-57 0 -67 16q-4 8 0 37q3 14 18 25t31 17t29.5 17t13.5 25q0 51 4 417t4 427v221.5t-4.5 394t-15.5 213.5q-5 19 -20 29t-36.5 19.5t-33.5 21.5q-23 27 16 53q5 5 16.5 7.5t28 3t19.5 0.5
h133h88v2h549q23 0 39 -9.5t23.5 -20.5t11.5 -34.5t4.5 -37.5t0.5 -44q0 -26 -30 -125.5t-49 -99.5q-8 0 -22.5 30.5t-35 73.5t-47.5 86.5t-68 74t-88 30.5h-219q-4 -5 -32.5 -24t-28.5 -40q0 -25 -3 -296.5t-3 -397.5h157h271l73 -82q4 -19 -5.5 -39.5t-20.5 -25.5
q-10 -5 -41.5 9.5t-46.5 14.5l-12 3q-12 2 -33 5t-47.5 6.5t-63.5 6t-74 2.5q-70 0 -159 -13v-18v-70.5v-125.5v-150.5t1.5 -165.5t3.5 -148t6 -122.5t9 -65.5q4 -13 10 -22.5t10.5 -13t15.5 -10.5t17 -11h220q58 1 107.5 47t75.5 101t47.5 101t29.5 46q19 0 50.5 -100
t31.5 -126z" />
    <glyph glyph-name="F" unicode="F" horiz-adv-x="999" 
d="M459 47q8 -8 10 -15.5t-3 -15.5t-9 -12t-13 -12q-5 -4 -11.5 -5.5t-16.5 -1.5t-15 -1q-29 -4 -70.5 6t-62.5 10q-24 0 -64.5 -8.5t-56.5 -7.5q-57 0 -67 16q-4 8 0 37q3 14 18 25t31 17t29.5 17t13.5 25q0 52 4 417t4 425v70.5v125.5v150t-1.5 165.5t-3.5 148.5t-6 122
t-9 65q-5 19 -20 29t-36.5 19.5t-33.5 21.5q-23 27 16 53q5 5 16.5 7.5t28 3t19.5 0.5h133h88h32h517q23 0 39 -9.5t23.5 -20.5t11.5 -34.5t4.5 -37.5t0.5 -44q0 -26 -30 -125.5t-49 -99.5q-8 0 -22.5 30.5t-35 73.5t-47.5 86.5t-68 74t-88 30.5h-221q-6 -6 -23 -16
t-26.5 -20t-9.5 -26q0 -9 -6 -696h157h271l73 -82q4 -19 -5.5 -39.5t-20.5 -25.5q-10 -5 -41.5 9.5t-46.5 14.5l-12 3q-12 2 -33 5t-47.5 6.5t-63.5 6t-74 2.5q-70 0 -159 -13v-41v-70v-124.5v-148.5t1.5 -163.5t3.5 -147t6 -122t9 -65.5q5 -18 14.5 -27.5t26 -19.5
t27.5 -21z" />
    <glyph glyph-name="G" unicode="G" horiz-adv-x="1179" 
d="M659 127q23 -23 47.5 -39.5t53.5 -25.5t49.5 11t26.5 72v131v5v-5q0 4 2 27q0 75 -1.5 180.5t-9 241t-18.5 170.5q-6 18 -53 29t-99.5 20t-64.5 21q-8 8 -8.5 15.5t3 12.5t10 12.5t9.5 12.5q18 28 46.5 31.5t76.5 -8.5t70 -13t63 -9t70 -7q24 0 64 8.5t57 7.5
q37 0 45 -16q4 -6 4.5 -11.5t-2 -14t-2.5 -11.5q-3 -21 -36.5 -41.5t-33.5 -42.5q0 -51 -4 -294t-4 -304q0 -126 -35 -239t-103.5 -211.5t-148.5 -180.5t-190 -170l-35 55q1 17 36.5 51t80.5 72.5t97.5 102.5t80.5 131q-175 80 -312 203t-219 255q-190 303 -190 717
q0 55 5 119t20.5 154t40.5 173t70.5 168t104 147t147 101t194.5 39q42 0 129 -42.5t160 -102.5t73 -100q0 -47 -19.5 -129t-45.5 -82q-6 0 -32 36.5t-65 88.5t-84 104t-98 88.5t-98 36.5q-61 0 -110 -38t-78 -94t-48 -126.5t-26 -129.5t-7 -110q0 -48 -2 -140.5t-1.5 -147
t3 -138.5t13 -147t28 -139t47.5 -148t72 -143q98 -164 184 -250z" />
    <glyph glyph-name="H" unicode="H" horiz-adv-x="1288" 
d="M479 47q8 -8 10 -16t-2.5 -15.5t-9 -12t-12.5 -11.5q-5 -4 -17 -5.5t-27 -1.5t-20 -1q-29 -3 -70 6.5t-63 9.5q-24 0 -64.5 -8.5t-56.5 -7.5q-57 0 -67 16q-4 8 0 37q2 14 17 25t31.5 17t30 17t13.5 25q0 52 4 417t4 425v227t-4.5 402.5t-15.5 217.5q-5 19 -20 29
t-36.5 19.5t-33.5 21.5q-23 27 16 53q5 5 16.5 7.5t28 3t19.5 0.5q28 3 68.5 -7.5t64.5 -9.5q24 0 63.5 9t56.5 8q58 -1 68 -17q4 -8 0 -37q-3 -14 -18 -25t-31 -17t-29.5 -17t-13.5 -25q0 -15 -6 -696h268h277q0 631 -21 700q-5 19 -20 29t-36.5 19.5t-33.5 21.5
q-23 27 16 53q5 5 16.5 7.5t28 3t19.5 0.5q28 3 68.5 -7.5t64.5 -9.5q24 0 64 9t57 8q57 -1 67 -17q4 -8 0 -37q-3 -14 -18 -25t-31 -17t-29.5 -17t-13.5 -25q0 -51 -4 -416.5t-4 -426.5v-69.5v-125.5v-150t1.5 -165.5t3.5 -148.5t6 -123t9 -66q5 -18 20 -28t36 -19t33 -21
q8 -8 10 -15.5t-3 -15.5t-9 -12t-13 -12q-5 -4 -17 -5.5t-26.5 -1.5t-19.5 -1q-29 -3 -70 6.5t-63 9.5q-24 0 -64.5 -8.5t-56.5 -7.5q-58 0 -68 16q-4 8 0 37q2 14 17 25t31.5 17t30 17t13.5 25q0 52 4.5 417t4.5 425v22q-15 6 -27 6q-1 0 -14 2t-36 5.5t-51.5 6.5t-68.5 5
t-80 2t-80 -2t-69 -5t-52 -6.5t-36.5 -5.5t-14.5 -2q-6 0 -18 -4v-24v-69.5v-125.5v-150t1.5 -165.5t3.5 -148.5t6 -123t9 -66q5 -18 20 -28t35.5 -19t32.5 -21z" />
    <glyph glyph-name="I" unicode="I" horiz-adv-x="550" 
d="M479 47q8 -8 10 -16t-2.5 -15.5t-9 -12t-12.5 -11.5q-5 -4 -17 -5.5t-27 -1.5t-20 -1q-29 -4 -70.5 6t-62.5 10q-24 0 -64.5 -8.5t-56.5 -7.5q-57 0 -67 16q-4 8 0 37q3 14 18 25t31 17t29.5 17t13.5 25q0 52 4 417t4 425v227t-4.5 402.5t-15.5 217.5q-5 19 -20 29
t-36.5 19.5t-33.5 21.5q-23 27 16 53q5 5 16.5 7.5t28 3t19.5 0.5q28 3 68.5 -7.5t64.5 -9.5q24 0 63.5 9t56.5 8q58 -1 68 -17q4 -8 0 -37q-3 -14 -18 -25t-31 -17t-29.5 -17t-13.5 -25q0 -51 -4 -416.5t-4 -426.5v-69.5v-125.5v-150t1.5 -165.5t3.5 -148.5t6 -123t9 -66
q5 -18 20 -28t35.5 -19t32.5 -21z" />
    <glyph glyph-name="J" unicode="J" horiz-adv-x="608" 
d="M547 1890q-2 -14 -17 -25t-31.5 -17t-30 -17t-13.5 -25q0 -51 -3 -416.5t-3 -426.5q-3 -84 -3 -301q0 -163 -14 -284.5t-50 -238.5t-101 -219t-163 -206.5t-241 -219.5l-39 53l48 66q47 66 113 168t101 178q46 101 78 207.5t48 188.5t24 198t9 182t1 194v34
q0 772 -22 847q-6 19 -21.5 29.5t-36.5 19.5t-33 21q-24 24 15 53q6 5 17.5 7.5t27.5 3t20 0.5q27 3 67.5 -7.5t65.5 -9.5q24 0 63.5 9t55.5 8q60 -1 68 -17q3 -4 3.5 -9t0 -8.5t-2 -10t-1.5 -9.5z" />
    <glyph glyph-name="K" unicode="K" horiz-adv-x="1142" 
d="M547 1079q53 -71 143 -139q69 -50 117.5 -103t76.5 -100.5t43 -104.5t19.5 -105t3.5 -113q0 -17 -1 -59t-1 -59.5t1 -56t4 -58.5t8.5 -55t13.5 -57.5t21 -54.5t29.5 -57.5t39.5 -54.5t51 -56l8 -8t5 -3.5t8 -6.5q-6 -3 -17 -15.5t-22 -13.5q-65 35 -116.5 75.5t-86.5 80
t-60 86t-39.5 88.5t-22 94t-9.5 94t-2 97q3 57 1 117t-8 113t-29.5 110.5t-63.5 109.5q-6 8 -65.5 70t-64.5 65q-35 20 -43 21q-10 2 -38 -6q-75 -44 -80 -47v-4v-69.5v-125.5v-150t1.5 -165.5t3.5 -148.5t6 -123t9 -66q5 -18 20 -28t35.5 -19t32.5 -21q8 -8 10 -16
t-2.5 -15.5t-9 -12t-12.5 -11.5q-5 -4 -17 -5.5t-27 -1.5t-20 -1q-29 -4 -70.5 6t-62.5 10q-24 0 -64.5 -8.5t-56.5 -7.5q-57 0 -67 16q-4 8 0 37q3 14 18 25t31 17t29.5 17t13.5 25q0 52 4 417t4 425v70.5v125.5v150t-1.5 165.5t-3.5 148.5t-6 122t-9 65q-5 19 -20 29
t-36.5 19.5t-33.5 21.5q-23 27 16 53q5 5 16.5 7.5t28 3t19.5 0.5q28 3 68.5 -7.5t64.5 -9.5q24 0 63.5 9t56.5 8q58 -1 68 -17q4 -8 0 -37q-3 -14 -18 -25t-31 -17t-29.5 -17t-13.5 -25q0 -39 -1.5 -179t-3.5 -319.5t-3 -258.5q68 58 106 91.5t88.5 82.5t77.5 86.5
t53.5 84.5t37.5 96.5t11 104.5q0 20 1 58.5t0.5 55.5t-4.5 45t-13 56q-8 25 -43.5 42t-46.5 28q-24 24 14 53q6 5 17.5 7.5t28 3t20.5 0.5q27 3 67.5 -7.5t65.5 -9.5q24 0 64 9t57 8q57 -1 65 -17q7 -11 0 -37q-2 -14 -16.5 -25t-30.5 -17t-29.5 -17t-13.5 -25
q0 -53 -5.5 -95t-6.5 -101q-2 -74 -42.5 -156.5t-97.5 -146.5t-113.5 -117t-96.5 -82z" />
    <glyph glyph-name="L" unicode="L" horiz-adv-x="1069" 
d="M1008 143q0 -28 -0.5 -42.5t-4.5 -37.5t-12.5 -35t-24.5 -21t-40 -9h-512h-11h-120h-133q-4 1 -19.5 1t-27.5 2t-17 7q-39 26 -16 53q12 12 33.5 21.5t36.5 19.5t20 29q11 35 15.5 218t4.5 403v227q0 60 -4 425t-4 417q0 14 -13.5 25t-29.5 17t-31 17t-18 25q-4 29 0 37
q4 7 20.5 11t31.5 5h15q16 1 56.5 -7.5t64.5 -8.5q21 0 62.5 10t70.5 6q5 -1 19.5 -1t26.5 -1.5t18 -5.5q39 -31 14 -56q-12 -12 -32.5 -21t-35.5 -18.5t-20 -27.5q-5 -16 -9 -65.5t-6 -122t-3.5 -147t-1.5 -164v-149v-124.5v-70q0 -61 4 -430t4 -420q0 -16 9.5 -26t26 -19
t23.5 -16h228q58 1 107.5 47t75.5 101t47.5 101t29.5 46q19 0 50.5 -100t31.5 -126z" />
    <glyph glyph-name="M" unicode="M" horiz-adv-x="1607" 
d="M479 47q8 -8 10 -16t-2.5 -15.5t-9 -12t-12.5 -11.5q-5 -4 -17 -5.5t-27 -1.5t-20 -1q-29 -4 -70.5 6t-62.5 10q-24 0 -64.5 -8.5t-56.5 -7.5q-57 0 -67 16q-4 8 0 37q3 14 18 25t31 17t29.5 17t13.5 25q0 52 4 417t4 425v70.5v125.5v150t-1.5 165.5t-3.5 148.5t-6 122
t-9 65q-5 19 -20 29t-36.5 19.5t-33.5 21.5q-23 27 16 53q11 11 64 11q13 0 30 -8t29 -9q26 -3 55.5 7.5t44.5 9.5q37 -1 47 -17q2 -6 2 -18q101 -81 191 -283q196 -441 254 -696q27 112 74 246.5t86 227.5t96 222q90 204 190 283q0 12 2 18q4 7 16 11.5t21 5.5h10
q13 1 44 -10t57 -7q9 2 27 9.5t32 7.5q51 0 64 -11q40 -27 14 -53q-10 -10 -45.5 -27.5t-42.5 -42.5q-21 -66 -21 -847q0 -60 4.5 -425t4.5 -417q0 -14 13.5 -25t29.5 -17t31 -17t18 -25q4 -29 0 -37q-4 -7 -21 -11t-32 -5h-15q-17 -1 -57 7.5t-64 8.5t-65 -9.5t-68 -6.5
q-5 1 -19.5 1t-26.5 1.5t-17 5.5q-39 30 -17 55q13 12 34.5 21t36.5 19t20 28q11 36 15.5 219.5t4.5 402.5v226t-6 628q-7 42 -21 49q-6 3 -17 -9.5t-24 -33.5q-16 -34 -82 -221q-12 -33 -45.5 -129t-45.5 -131t-37.5 -113.5t-36.5 -121.5t-27 -107.5t-24 -120t-13 -112.5
q-1 -8 -2 -26t-2 -26q-5 -98 -2 -208q-16 -2 -20 -2t-14 5t-15 7q-5 -2 -14.5 -7t-13.5 -5t-21 2q6 98 0 208q-1 8 -2 26t-2 26q-5 57 -13.5 112t-25 121t-26.5 107t-37 122.5t-37 112t-45.5 132t-45.5 128.5q-8 22 -21.5 62.5t-21.5 63t-19.5 51t-21.5 49.5q-29 45 -39 38
q-11 -4 -22 -55q-4 -406 -4 -622v-69.5v-125.5v-150t1.5 -165.5t3.5 -148.5t6 -123t9 -66q5 -18 20 -28t35.5 -19t32.5 -21z" />
    <glyph glyph-name="N" unicode="N" horiz-adv-x="1314" 
d="M479 47q8 -8 10 -16t-2.5 -15.5t-9 -12t-12.5 -11.5q-5 -4 -17 -5.5t-27 -1.5t-20 -1q-29 -4 -70.5 6t-62.5 10q-24 0 -64.5 -8.5t-56.5 -7.5q-57 0 -67 16q-4 8 0 37q3 14 18 25t31 17t29.5 17t13.5 25q0 52 4 417t4 425v227t-4.5 402.5t-15.5 217.5q-5 19 -20 29
t-36.5 19.5t-33.5 21.5q-23 27 16 53q11 11 64 11q13 0 30 -8t29 -9q26 -3 66 7.5t55 9.5q31 -1 43 -13l2 -2q11 -12 49 -61.5t108.5 -151.5t141.5 -215.5t146.5 -262t123.5 -282.5v82v131v150.5t-1.5 164t-3.5 145t-6 118.5t-9 63q-7 25 -42.5 42.5t-45.5 27.5
q-26 26 14 53q6 5 17.5 7.5t27 3t18.5 0.5q28 3 69 -7.5t65 -9.5q24 0 64 9t56 8q58 -1 68 -17q4 -8 0 -37q-2 -14 -17 -25t-31.5 -17t-30 -17t-13.5 -25q0 -51 -4 -416.5t-4 -426.5v-226t4.5 -402.5t15.5 -219.5q5 -18 20 -28t36 -19t34 -21q22 -25 -16 -55q-5 -4 -17 -5.5
t-27 -1.5t-20 -1q-27 -3 -68 6.5t-65 9.5t-64 -8.5t-57 -7.5q-57 0 -67 16q-4 8 0 37q3 14 18 25t31 17t29.5 17t13.5 25q0 108 4 502q-105 447 -502 1003q-35 36 -43 33q-11 -5 -18 -68q-1 -81 -2.5 -233t-2.5 -257t-1 -138v-69.5v-125.5v-150t1.5 -165.5t3.5 -148.5
t6 -123t9 -66q5 -18 20 -28t35.5 -19t32.5 -21z" />
    <glyph glyph-name="O" unicode="O" horiz-adv-x="1189" 
d="M874 1311q0 7 -4 79t-8 109q-11 113 -33 180q-11 32 -17 48.5t-17.5 42t-22 39t-28 30t-38 24.5t-49 13.5t-63.5 5.5q-48 0 -84.5 -11t-59 -26t-41.5 -44.5t-28 -53.5t-23 -66q-26 -81 -32 -182q-3 -31 -7.5 -94t-7.5 -94q-7 -133 -3 -289.5t29 -319.5t59 -295.5
t86.5 -216.5t111.5 -84q97 0 170 205.5t101 483.5t9 516zM1108 1090q0 -165 -31.5 -325t-81.5 -283t-110 -229t-118 -174t-103.5 -106.5t-69.5 -38.5q-23 0 -68.5 41t-103 113t-117.5 180.5t-110 231.5t-81.5 279t-31.5 311q0 105 4.5 190t18 181t36 169t61.5 143t91.5 115
t129 72t171.5 27q75 0 138 -16.5t111 -45t87 -72.5t66.5 -93.5t47.5 -113t32 -126t19.5 -138.5t10 -144t2.5 -148z" />
    <glyph glyph-name="P" unicode="P" horiz-adv-x="1017" 
d="M479 47q8 -8 10 -16t-2.5 -15.5t-9 -12t-12.5 -11.5q-5 -4 -17 -5.5t-27 -1.5t-20 -1q-29 -4 -70.5 6t-62.5 10q-24 0 -64.5 -8.5t-56.5 -7.5q-57 0 -67 16q-4 8 0 37q3 14 18 25t31 17t29.5 17t13.5 25q0 52 4 417t4 425v70.5v125.5v150t-1.5 165.5t-3.5 148.5t-6 122
t-9 65q-5 19 -20 29t-36.5 19.5t-33.5 21.5q-23 27 16 53q5 5 16.5 7.5t28 3t19.5 0.5h133h120h15h84q115 0 203 -27.5t142.5 -73t89 -110.5t47.5 -132.5t13 -146.5q0 -106 -36 -196.5t-112 -173t-175 -155t-244 -157.5l-29 31l17 16q17 16 44 43.5t57.5 60t61 71t50.5 71.5
q83 135 115 269.5t32 289.5q0 35 -11 73.5t-34.5 77.5t-67.5 64t-102 25q-73 0 -137 -6q-3 -2 -15 -9.5t-17 -11.5t-10 -12.5t-5 -18.5q0 -51 -4 -420t-4 -430v-70v-124.5v-148.5t1.5 -163.5t3.5 -147t6 -122t9 -65.5q5 -18 20 -28t35.5 -19t32.5 -21z" />
    <glyph glyph-name="Q" unicode="Q" horiz-adv-x="1189" 
d="M874 1311q0 7 -4 79t-8 109q-11 113 -33 180q-11 32 -17 48.5t-17.5 42t-22 39t-28 30t-38 24.5t-49 13.5t-63.5 5.5q-48 0 -84.5 -11t-59 -26t-41.5 -44.5t-28 -53.5t-23 -66q-26 -81 -32 -182q-3 -31 -7.5 -94t-7.5 -94q-7 -133 -3 -289.5t29 -319.5t59 -295.5
t86.5 -216.5t111.5 -84q97 0 170 205.5t101 483.5t9 516zM1032 -465l-28 -43q-100 81 -226.5 205.5t-248.5 262t-211.5 272.5t-104.5 219l4 -5q-135 315 -135 644q0 105 4.5 190t18 181t36 169t61.5 143t91.5 115t129 72t171.5 27q75 0 138 -16.5t111 -45t87 -72.5
t66.5 -93.5t47.5 -113t32 -126t19.5 -138.5t10 -144t2.5 -148q0 -150 -26.5 -296.5t-67.5 -261.5t-95.5 -219t-105.5 -175.5t-102 -123.5l71 -139q15 -25 40.5 -65.5t91.5 -131.5t118 -143z" />
    <glyph glyph-name="R" unicode="R" horiz-adv-x="1095" 
d="M479 47q8 -8 10 -16t-2.5 -15.5t-9 -12t-12.5 -11.5q-5 -4 -17 -5.5t-27 -1.5t-20 -1q-29 -4 -70.5 6t-62.5 10q-24 0 -64.5 -8.5t-56.5 -7.5q-57 0 -67 16q-4 8 0 37q3 14 18 25t31 17t29.5 17t13.5 25q0 52 4 417t4 425v70.5v125.5v150t-1.5 165.5t-3.5 148.5t-6 122
t-9 65q-5 19 -20 29t-36.5 19.5t-33.5 21.5q-23 27 16 53q5 5 16.5 7.5t28 3t19.5 0.5h133h120h15h84q115 0 203 -27.5t142.5 -73t89 -110.5t47.5 -132.5t13 -146.5q0 -152 -75.5 -274t-231.5 -240q80 -54 133.5 -116.5t80.5 -131.5t37 -134t9 -144q0 -17 -1 -59t-1 -59.5
t1 -56t4 -58.5t8.5 -55t13.5 -57.5t21 -54.5t29.5 -57.5t39.5 -54.5t51 -56l8 -8t5 -3.5t8 -6.5q-6 -3 -17 -15.5t-22 -13.5q-65 35 -116.5 75.5t-86.5 80t-60 86t-39.5 88.5t-22 94t-9.5 94t-2 97q3 57 0.5 116.5t-9 112.5t-29.5 110.5t-62 110.5q-15 12 -29 17
q-15 3 -33 -4q-66 -45 -170 -105l-29 31l17 16q17 16 44 43.5t57.5 60t61 71t50.5 71.5q83 135 115 269.5t32 289.5q0 35 -11 73.5t-34.5 77.5t-67.5 64t-102 25q-73 0 -137 -6q-3 -2 -15 -9.5t-17 -11.5t-10 -12.5t-5 -18.5q0 -51 -4 -420t-4 -430v-70v-124.5v-148.5
t1.5 -163.5t3.5 -147t6 -122t9 -65.5q5 -18 20 -28t35.5 -19t32.5 -21z" />
    <glyph glyph-name="S" unicode="S" horiz-adv-x="962" 
d="M901 608q0 -99 -51 -227.5t-132 -253.5t-180.5 -249t-196.5 -223t-181 -167l-35 55q1 13 34 49.5t84.5 88t114.5 116t125 141t114 154.5t84 165t32 165q0 69 -36 145.5t-93.5 147.5t-127 144.5t-139 146t-127 140.5t-93.5 139.5t-36 133.5q0 119 63 248t173.5 220
t230.5 91q43 0 131 -42.5t162 -103t74 -101.5q0 -42 -28 -136t-54 -94q-6 0 -31 38.5t-62.5 93.5t-81 110.5t-96 94t-98.5 38.5t-94 -54t-76 -119.5t-28 -107.5q0 -63 36 -138.5t94 -149t127.5 -151t139.5 -153t128 -144t94 -135t36 -116.5z" />
    <glyph glyph-name="T" unicode="T" horiz-adv-x="1120" 
d="M766 47q7 -8 8.5 -16t-3 -15.5t-9 -12t-12.5 -11.5q-5 -4 -17 -5.5t-27 -1.5t-20 -1q-28 -4 -70 6t-63 10q-24 0 -64 -8.5t-57 -7.5q-57 0 -67 16q-4 8 0 37q3 14 18 25t31 17t29.5 17t13.5 25q0 52 4 417t4 425q0 781 -21 847q-4 13 -10 22.5t-11 13.5t-16.5 11
t-17.5 11h-47q-58 0 -107.5 -46t-75.5 -101.5t-47.5 -101.5t-29.5 -46q-19 0 -50.5 99.5t-31.5 125.5q0 29 0.5 44t4.5 38t12.5 34.5t24.5 20.5t40 9h352h58h75h62h59h352q23 0 39 -9t24 -20.5t12 -34.5t4.5 -38t0.5 -44q0 -25 -31 -125t-49 -100q-8 0 -22.5 30.5t-35 73.5
t-47.5 86.5t-68.5 74t-88.5 30.5h-55q-6 -6 -23 -16t-26.5 -20t-9.5 -26q0 -51 -4.5 -420t-4.5 -430q0 -4 0.5 -224t5 -400.5t15.5 -216.5q5 -18 20 -28t36 -19t34 -21z" />
    <glyph glyph-name="U" unicode="U" horiz-adv-x="1288" 
d="M1227 1890q-2 -14 -16.5 -25t-30.5 -17t-29.5 -17t-13.5 -25q0 -51 -6.5 -130t-6.5 -140l-6 -905q0 -108 -22.5 -203t-58.5 -162.5t-81.5 -123.5t-91.5 -90.5t-90 -58.5t-75 -34t-48 -10t-47.5 10t-74 34t-89.5 58.5t-92 90.5t-82 123.5t-58.5 162.5t-23.5 203l-4 903
v45.5v50t-1 46t-3 49t-6 43t-10 42.5q-5 19 -20 29t-36.5 19.5t-33.5 21.5q-23 27 16 53q5 5 16.5 7.5t28 3t19.5 0.5q28 3 68.5 -7.5t64.5 -9.5q24 0 63.5 9t56.5 8q58 -1 68 -17q4 -8 0 -37q-3 -14 -18 -25t-31 -17t-29.5 -17t-13.5 -25q0 -51 -4 -131t-4 -141l6 -885
q0 -101 12 -185t30.5 -141.5t44 -102t50.5 -70t52.5 -41.5t47.5 -21.5t37 -5.5q25 0 54.5 11t68 48.5t69 96t53 165.5t24.5 246l16 885q4 60 1 142.5t-19 133.5q-6 19 -21.5 29.5t-36.5 19.5t-33 21q-24 24 15 53q6 5 17.5 7.5t27.5 3t20 0.5q27 3 67.5 -7.5t65.5 -9.5
q24 0 64 9t57 8q58 -1 66 -17q3 -4 3.5 -9t0 -8.5t-2 -10t-1.5 -9.5z" />
    <glyph glyph-name="V" unicode="V" horiz-adv-x="1228" 
d="M1198 1890q-3 -14 -18 -25t-31 -17t-29.5 -17t-13.5 -25q0 -55 -5.5 -134t-6.5 -136l-4 -414q-2 -149 -44 -322.5t-103.5 -319t-127 -268.5t-118.5 -193t-74 -70t-74 70t-118.5 193t-127 268.5t-103.5 319t-44 322.5l-6 412v44.5v51.5t-1 45t-3.5 50.5t-6.5 41.5t-10 43
q-7 25 -42.5 42.5t-45.5 27.5q-24 24 14 53q6 5 17.5 7.5t28 3t20.5 0.5q27 3 67 -7.5t64 -9.5q25 0 65 9t56 8q59 -1 67 -17q4 -8 0 -37q-2 -14 -17 -25t-31.5 -17t-30 -17t-13.5 -25q0 -46 -3.5 -126.5t-2.5 -145.5l4 -393q2 -135 56 -392t120.5 -462t100.5 -205
q33 0 98 204.5t117.5 462.5t52.5 392v407q0 29 4.5 86t3.5 99t-12 77q-7 25 -42.5 42.5t-45.5 27.5q-26 26 14 53q6 5 17.5 7.5t27.5 3t19 0.5q28 3 68.5 -7.5t64.5 -9.5q24 0 64 9t56 8q58 -1 68 -17q4 -8 0 -37z" />
    <glyph glyph-name="W" unicode="W" horiz-adv-x="1794" 
d="M905 616q-51 -170 -122.5 -330t-128.5 -248.5t-81 -88.5q-21 0 -68.5 70t-106 193t-112.5 268.5t-91 319t-39 322.5l-6 412v44.5v51.5t-1 45t-3.5 50.5t-6.5 41.5t-10 43q-7 25 -42.5 42.5t-45.5 27.5q-24 24 14 53q6 5 17.5 7.5t28 3t20.5 0.5q27 3 67 -7.5t64 -9.5
q25 0 65 9t56 8q59 -1 67 -17q4 -8 0 -37q-2 -14 -17 -25t-31.5 -17t-30 -17t-13.5 -25q0 -46 -3.5 -126.5t-2.5 -145.5l4 -393q2 -138 43.5 -393t96 -460.5t87.5 -205.5q32 0 85.5 205.5t94 461t40.5 392.5v407q0 28 4.5 86t3 99.5t-12.5 76.5q-7 25 -42.5 42.5t-45.5 27.5
q-26 26 15 53q6 5 17.5 7.5t27 3t18.5 0.5q6 2 19 2q21 0 56 -9.5t58 -9.5q25 0 64.5 8.5t54.5 8.5h6q60 -1 68 -17q4 -8 0 -37q-2 -14 -17 -25t-31.5 -17t-30 -17t-13.5 -25q0 -46 -3.5 -126.5t-2.5 -145.5l4 -393q2 -138 43.5 -393t96 -460.5t87.5 -205.5q32 0 85.5 205.5
t93.5 461t40 392.5v407q0 29 4.5 86t3.5 99t-12 77q-7 25 -42.5 42.5t-45.5 27.5q-26 26 14 53q6 5 17.5 7.5t27.5 3t19 0.5q28 3 68.5 -7.5t64.5 -9.5q24 0 64.5 9t56.5 8q57 -1 67 -17q4 -8 0 -37q-3 -14 -18 -25t-31 -17t-29.5 -17t-13.5 -25q0 -55 -5.5 -134t-6.5 -136
l-4 -414q-2 -149 -39 -322.5t-91.5 -319t-112.5 -268.5t-106 -193t-69 -70q-24 0 -81 88.5t-128.5 248.5t-122.5 330z" />
    <glyph glyph-name="X" unicode="X" horiz-adv-x="1185" 
d="M567 891q-47 -49 -81.5 -97.5t-55.5 -101.5t-33 -94t-17 -103t-6 -98t-1 -109v-22q0 -61 3 -77.5t3 -67.5q0 -14 13.5 -25t29.5 -17t31 -17t18 -25q4 -29 0 -37q-4 -7 -21 -11t-32 -5h-15q-17 -1 -56.5 7.5t-63.5 8.5t-65 -9.5t-68 -6.5q-5 1 -20 1t-27 1.5t-17 5.5
q-38 30 -16 55q13 12 34 21t36 19t20 28q8 25 11.5 38.5t5.5 29.5t2 23.5t-0.5 32.5t-0.5 44q1 89 19.5 178t57.5 180.5t109 174t164 142.5q4 12 4 21q0 8 -2 12q-91 54 -155.5 112.5t-102 113.5t-58.5 121.5t-27.5 123.5t-6.5 133q0 12 0.5 47.5t0 46.5t-2 35.5t-5.5 43.5
t-11 42q-8 25 -43.5 42t-46.5 28q-24 24 14 53q6 5 17.5 7.5t28 3t20.5 0.5q27 3 67.5 -7.5t65.5 -9.5q24 0 63 9t55 8q60 -1 68 -17q4 -8 0 -37q-2 -14 -17 -25t-31.5 -17t-30 -17t-13.5 -25q0 -51 -3 -94t-3 -104v-67t1 -59t3.5 -59t7 -51t11.5 -53.5t18 -48t25.5 -53
t34 -50t44 -56t55.5 -56.5q5 -2 14.5 -17.5t14.5 -15.5q4 0 13.5 15.5t13.5 17.5q43 41 75 79t53.5 69t36 70.5t22 66t11 74t4 76t0.5 89.5v16q0 20 1 58.5t0.5 55.5t-4.5 45t-13 56q-7 25 -42.5 42.5t-45.5 27.5q-26 26 14 53q6 5 17.5 7.5t27.5 3t19 0.5q28 3 68.5 -7.5
t64.5 -9.5q24 0 64.5 9t56.5 8q59 -1 67 -17q4 -8 0 -37q-2 -14 -17 -25t-31.5 -17t-30 -17t-13.5 -25q0 -51 -6 -93t-6 -103q0 -77 -18.5 -157t-57.5 -163t-109 -161.5t-163 -137.5q-6 -6 -6 -16q0 -11 6 -17q90 -54 154 -121t100 -130.5t56.5 -143.5t26 -145t5.5 -150
q0 -61 6 -78.5t6 -68.5q0 -14 13.5 -25t29.5 -17t30.5 -17t16.5 -25q7 -26 0 -37q-4 -7 -20 -11t-30 -5h-15q-17 -1 -57 7.5t-64 8.5t-65 -9.5t-68 -6.5q-5 1 -20.5 1t-27.5 1.5t-18 5.5q-8 7 -12.5 11.5t-9 12t-2.5 15.5t10 16q11 11 46.5 28t43.5 40q9 27 12 37t5 24.5
t2 19t-0.5 27.5t-0.5 43v16q0 62 -0.5 93.5t-4 86t-10.5 88t-21 82t-34 86t-51 82t-71 87.5q-4 2 -15.5 19.5t-17.5 17.5q-5 1 -17.5 -14.5t-17.5 -18.5z" />
    <glyph glyph-name="Y" unicode="Y" horiz-adv-x="1064" 
d="M750 791l-13 -19q-9 -12 -25.5 -32t-23.5 -29q-63 -85 -63 -142q0 -386 18 -454q8 -23 43.5 -40t46.5 -28q8 -8 10 -16t-2.5 -15.5t-9 -12t-12.5 -11.5q-6 -4 -18 -5.5t-27.5 -1.5t-20.5 -1q-28 -4 -69 6t-64 10q-24 0 -64 -8.5t-57 -7.5q-57 0 -65 16q-3 4 -3.5 9t0 8.5
t2 10t1.5 9.5q2 14 16.5 25t30.5 17t29.5 17t13.5 25q0 30 1 104.5t2.5 181.5t2.5 162q0 52 -43 129q-50 55 -94.5 123t-86 155.5t-65.5 195.5t-24 221l2 198v41v40.5t-1 31.5t-3.5 36t-6.5 31.5t-10 38.5q-7 25 -42.5 42.5t-45.5 27.5q-24 24 15 53q6 5 17.5 7.5t27.5 3
t20 0.5q27 3 67 -7.5t64 -9.5q25 0 65 9t56 8q60 -1 68 -17q4 -8 0 -37q-2 -14 -17 -25t-32 -17t-30.5 -17t-13.5 -25q0 -51 -3 -94t-3 -104l-2 -123q-1 -127 24.5 -269t61.5 -248.5t75 -176.5t65 -70q21 0 52.5 41.5t64 117.5t59 169t39.5 209.5t4 226.5l16 110
q0 20 1 58.5t0.5 55.5t-4.5 45t-13 56q-7 25 -42.5 42.5t-45.5 27.5q-26 26 14 53q6 5 17.5 7.5t27 3t18.5 0.5q28 3 69 -7.5t65 -9.5q24 0 64 9t56 8q58 -1 68 -17q4 -8 0 -37q-3 -14 -18 -25t-31 -17t-29.5 -17t-13.5 -25q0 -48 -1 -72t-4 -60.5t-5 -80.5l-11 -200
q-13 -318 -194 -590q2 1 -2 -5z" />
    <glyph glyph-name="Z" unicode="Z" horiz-adv-x="980" 
d="M899 147q0 -23 -0.5 -32.5t-2 -31.5t-6.5 -32.5t-13.5 -24t-23 -19t-34.5 -5.5h-657q-80 0 -80 39q0 122 80 375t179.5 500.5t202 524.5t134.5 423h-232q-33 0 -63 -15.5t-50.5 -35t-43 -55.5t-33 -57t-28.5 -60q-5 -10 -7 -15q-4 -12 -15.5 -34.5t-19.5 -22.5
q-14 0 -47 99.5t-33 125.5q0 23 0.5 32.5t2 31.5t6.5 32.5t13.5 24t23 19t34.5 5.5h609q14 0 24.5 -1t25.5 -4t22.5 -11.5t6.5 -21.5q-15 -158 -97 -413t-175 -485.5t-190 -496.5t-133 -428h278q41 0 76 19.5t65 62.5t43 67t38 78q3 7 5 10q4 12 15.5 35t19.5 23
q14 0 47 -100t33 -126z" />
    <glyph glyph-name="bracketleft" unicode="[" horiz-adv-x="714" 
d="M705 -637q8 -8 10 -15t-4 -15.5t-8 -11t-13 -11.5q-5 -5 -11.5 -7t-17 -2.5t-14.5 -0.5h-379h-121q-37 0 -47 16q-4 9 0 37q3 21 37.5 41.5t34.5 42.5q0 51 4 767t4 777v269.5t-4.5 489t-15.5 261.5q-5 19 -14.5 29t-26.5 20t-29 21q-23 27 16 53q5 5 12 7t17.5 2.5
t14.5 0.5h133h366q37 0 47 -16q12 -25 0 -37q-26 -26 -68.5 -40.5t-84 -17.5t-79.5 -4.5t-61.5 -5.5t-23.5 -16q0 -51 -4 -503t-4 -513q0 -1486 20 -1548q5 -18 76.5 -29t148.5 -20t89 -21z" />
    <glyph glyph-name="backslash" unicode="\" horiz-adv-x="1120" 
d="M1040 25l-53 -19q-16 31 -44 84.5t-111 210t-159.5 301.5t-174.5 326.5t-173.5 319t-137.5 246t-85 138.5q-58 74 44 73q24 0 116 -11q18 -3 212.5 -420t379.5 -833z" />
    <glyph glyph-name="bracketright" unicode="]" horiz-adv-x="714" 
d="M625 -641q8 -8 10 -15t-4 -15.5t-8 -11t-13 -11.5q-6 -5 -12 -7.5t-18.5 -3t-14.5 -0.5h-133h-366q-38 1 -46 17q-4 6 -4.5 11.5t2 14t2.5 11.5q3 36 37 54t80 19.5t91 -1t76.5 -1t31.5 12.5q0 51 4 769t4 779q0 958 -20 1020q-5 18 -76.5 29t-148.5 20t-89 21
q-24 24 15 53q6 5 12.5 7t17.5 2.5t15 0.5h376h121q39 0 47 -16q4 -8 0 -37q-3 -21 -37 -41.5t-34 -42.5q0 -19 -3.5 -482.5t-2.5 -533.5q0 -4 -0.5 -109t-0.5 -227v-287.5t1.5 -315.5t3 -285.5t5.5 -223.5t9 -104q6 -19 16 -29t26.5 -20t27.5 -21z" />
    <glyph glyph-name="asciicircum" unicode="^" horiz-adv-x="1046" 
d="M965 1675l-47 -76q-83 47 -228.5 157t-165.5 124q-46 -32 -123.5 -91t-143.5 -106.5t-128 -83.5l-47 76q74 53 195 163t159 142q25 -1 66.5 1.5t70.5 4.5l29 3q14 -14 67 -63.5t144.5 -128.5t151.5 -122z" />
    <glyph glyph-name="underscore" unicode="_" horiz-adv-x="1562" 
d="M1407 -8l68 -113q12 -14 6.5 -34.5t-14.5 -36t-17 -21.5q-9 -7 -38 14t-44 21q-1 0 -50.5 3t-123 8t-153 9.5t-152 7.5t-107.5 3t-108 -3t-152.5 -7.5t-153.5 -9.5t-124 -8l-49 -3q-14 0 -43.5 -21t-40.5 -14q-7 7 -15.5 22.5t-13.5 36t8 33.5l66 113h626h625z" />
    <glyph glyph-name="grave" unicode="`" horiz-adv-x="747" 
d="M668 1448l-62 -18q-20 12 -53 33.5t-118.5 82t-152.5 114.5t-126.5 117.5t-69.5 104.5q-4 17 -5 29.5t3 20t9 12.5t15 6.5t18.5 1.5t22 -2t24 -4t26 -5.5t24.5 -5.5q17 -3 128.5 -124.5t214.5 -242.5z" />
    <glyph glyph-name="a" unicode="a" 
d="M672 1069q-110 -55 -188.5 -129.5t-123 -164t-64.5 -186t-20 -208.5q0 -24 6.5 -68t19 -97t37.5 -91.5t56 -38.5q71 0 295 287q0 67 -1 173t-1 130q0 265 -16 393zM688 121v133q-32 -36 -75 -78t-101 -92.5t-115.5 -83.5t-97.5 -33q-44 0 -79 14.5t-57.5 35.5t-38.5 55.5
t-24 64t-12.5 71.5t-5 67t-0.5 61q0 137 36 262t105.5 231t182.5 182t258 107q-4 27 -6.5 86.5t-13.5 95.5t-44 68q-21 21 -28.5 28t-24.5 15.5t-39 13.5q-42 9 -90.5 -40t-82 -112t-61 -117t-32.5 -54q-21 0 -47.5 90.5t-26.5 122.5q0 47 111 116t167 72q52 5 205 0
q47 -1 85 -19t62.5 -45t43 -68t28 -79.5t15 -87.5t7 -84.5t1.5 -77.5q0 -9 -2 -168.5t-2.5 -303.5t2.5 -285.5t12 -169.5q5 -18 19.5 -28t34.5 -19t32 -21q8 -8 10 -16t-2.5 -15.5t-9 -12t-12.5 -11.5q-5 -4 -16.5 -5.5t-26 -1.5t-19.5 -1q-22 -3 -53.5 7t-50.5 9
q-16 -1 -43 -9t-45 -7q-35 0 -45 16q-3 5 -3 11t1.5 13.5t1.5 12.5q1 13 6.5 36.5t5.5 47.5z" />
    <glyph glyph-name="b" unicode="b" horiz-adv-x="1091" 
d="M440 106l-24 -18zM377 96q6 -9 14 -12q6 -3 15 0q391 259 391 877q0 32 -7 90t-20.5 128t-40.5 120.5t-61 50.5q-27 0 -73 -44t-96.5 -113t-84.5 -119t-62 -95v-41q0 -3 -0.5 -84.5t-0.5 -153t1 -176t3 -182t6 -143t10 -84.5q3 -14 6 -19zM395 1890q-47 -103 -47 -196
q0 -68 1 -268t1 -291q37 48 83.5 102t109.5 118.5t125 106t104 41.5q48 0 86.5 -19t63 -47t42 -73t26.5 -83.5t13.5 -93t5.5 -87.5t1 -80q0 -183 -40 -349t-119 -306t-207 -239t-292 -136q-10 -6 -35 -6q-22 -3 -53.5 7t-50.5 9q-14 -1 -40.5 -9t-45.5 -7q-58 0 -66 16
q-7 11 0 37q2 14 16.5 25t31 17t30 17t13.5 25q0 52 4 404.5t4 412.5q0 53 -4 311t-4 445q0 52 -9 61q-5 4 -26.5 8t-26.5 9q-16 16 -16 43q-1 16 14 27t40 20.5t36 17.5q62 43 119 70.5t73 11.5q50 -50 39 -72z" />
    <glyph glyph-name="c" unicode="c" horiz-adv-x="849" 
d="M809 1315q0 -31 -28.5 -122t-47.5 -91q-5 0 -32 50.5t-60.5 111t-82 111t-91.5 50.5q-34 0 -61.5 -15t-44.5 -36t-29.5 -56t-18.5 -64t-9.5 -70.5t-4 -64.5t-0.5 -58q0 -235 22.5 -407t100.5 -363q17 -43 44.5 -95.5t55 -98t52 -84.5t40.5 -62l15 -23l-29 -41
q-279 224 -398.5 437.5t-119.5 506.5q0 42 3.5 90t16 115.5t31.5 129t54 124.5t80 109t112.5 75t148.5 29q33 0 100.5 -32.5t124 -78t56.5 -77.5z" />
    <glyph glyph-name="d" unicode="d" horiz-adv-x="1071" 
d="M647 115q12 -6 35.5 -9.5t28.5 0.5q6 6 6 17q0 55 -8.5 405.5t-8.5 409.5q0 91 -3 256.5t-3 198.5q-13 9 -31 15.5t-32.5 10t-40.5 5t-38.5 2t-44 0t-40.5 -0.5q-34 0 -61.5 -15t-44.5 -36t-29.5 -56t-18.5 -64t-9.5 -70.5t-4 -64.5t-0.5 -58q0 -163 15.5 -293t53.5 -253
t107.5 -223t171.5 -177zM762 -14h-2q-16 -4 -27 -2q-35 0 -45 16q-184 43 -322.5 163t-211 292.5t-72.5 375.5q0 74 9.5 147.5t29.5 150.5t55.5 143t83 118.5t116.5 82.5t152 30q119 0 166 -6q0 28 -1 93.5t-1 103.5q0 53 -8 61q-5 4 -26.5 8t-26.5 9q-17 17 -17 43
q-1 16 14 27t40.5 20.5t36.5 17.5q62 43 119 70.5t73 11.5q50 -50 39 -72q-47 -103 -47 -196q0 -124 2 -424t2 -332q0 -7 -0.5 -85t-0.5 -152t0.5 -177t2.5 -181.5t6 -143.5t10 -84q8 -23 43.5 -40t46.5 -28q8 -8 10 -16t-2.5 -15.5t-9 -12t-12.5 -11.5q-11 -8 -65 -8
q-20 -2 -51 7.5t-50 8.5q-17 0 -59 -14z" />
    <glyph glyph-name="e" unicode="e" horiz-adv-x="917" 
d="M856 1065q0 -76 -48.5 -174t-123.5 -189t-157 -170t-158 -135q5 -17 15 -53t15 -53q8 -25 32 -71t53 -94.5t57 -93.5t47 -74l18 -30l-28 -41q-188 150 -298.5 288.5t-164.5 297.5t-54 358q0 79 13 165t44.5 177.5t77.5 164t119.5 119t163.5 46.5q107 0 194.5 -62
t135 -162t47.5 -214zM348 487q116 92 220 231t104 236q0 43 -17.5 120t-46.5 156t-73 137t-89 58q-34 0 -61.5 -15t-44.5 -36t-29.5 -56t-18.5 -63.5t-9 -71t-3.5 -65t-0.5 -57.5q0 -272 69 -574z" />
    <glyph glyph-name="f" unicode="f" horiz-adv-x="774" 
d="M586 1473l67 -64q1 -16 -6.5 -32t-17.5 -21q-9 -4 -38.5 8t-45.5 12l-7 1q-8 1 -22.5 3t-32.5 4.5t-44 4.5l-52 4q0 -110 -1 -277.5t-1 -177.5v-68v-121.5v-145.5t1 -160t3 -144.5t5.5 -119t8.5 -64.5q8 -23 43 -40t46 -28q8 -8 10 -15.5t-3 -15.5t-9 -12t-13 -12
q-6 -4 -17.5 -5.5t-26 -1.5t-19.5 -1q-28 -4 -70 6t-65 10q-24 0 -64 -8.5t-57 -7.5q-58 0 -66 16q-3 4 -3.5 9t0 8.5t2 10t1.5 9.5q2 14 16.5 25t30.5 17t29.5 17t13.5 25q0 52 4 404.5t4 412.5v448q-23 -2 -43.5 -4.5t-30.5 -3.5l-10 -2q-16 0 -45 -12t-38 -8
q-10 5 -18 21t-5 32l66 64h124v63q0 89 51 188t138.5 168.5t179.5 69.5q33 0 100 -33t123 -79t56 -78q0 -31 -27.5 -122t-46.5 -91q-5 0 -32 50.5t-60.5 111t-82 111t-91.5 50.5q-34 0 -60.5 -41t-37.5 -88t-11 -82v-198h197z" />
    <glyph glyph-name="g" unicode="g" horiz-adv-x="1013" 
d="M686 754q0 55 -18 153t-49 205t-84 184.5t-113 77.5q-30 0 -53.5 -10.5t-38.5 -25t-25.5 -41.5t-15 -46t-7.5 -54.5t-3 -52v-50.5q0 -268 20 -406q48 -321 219 -420q16 -8 27 -8q42 0 72.5 62.5t44 154.5t19 161.5t5.5 115.5zM1071 -111q0 -73 -50 -158.5t-126.5 -163
t-177.5 -163t-192 -153t-182 -139t-136 -116.5l-43 31q29 28 120 108.5t177 160t175.5 170t144.5 171.5t55 132q0 56 -29 83t-92 27q-62 0 -136 -28.5t-132 -57t-80 -29.5q-1 3 -8.5 18t-13 28.5t-5.5 17.5q0 61 160 299q-26 -3 -51 -23.5t-50.5 -38.5t-54.5 -18l-16 2
q-78 73 -136.5 223.5t-84 298t-25.5 265.5q0 62 12 140.5t40 167t66.5 161t98 120.5t129.5 48q46 0 77.5 -4t58.5 -17t43 -23.5t50 -37t58 -43.5q54 123 166 225l20 10h19l9 -6t20 -16t23.5 -23t16 -26t2.5 -27q-8 -20 -48.5 -70t-73.5 -107t-33 -108q0 -58 17 -200.5
t17 -198.5q0 -320 -174 -631q-23 -40 -84 -115t-67 -84q205 62 254 62q40 0 81.5 -6t87 -20t74.5 -44.5t29 -73.5z" />
    <glyph glyph-name="h" unicode="h" horiz-adv-x="1067" 
d="M985 1042q0 -149 -10.5 -292t-38 -302.5t-70 -301t-110.5 -279.5t-156 -246q-13 5 -34.5 4t-28.5 10q112 219 173.5 515.5t61.5 644.5q0 4 0.5 55.5t0 79.5t-3 84t-10 95.5t-19 87t-31.5 84t-47 62.5q-19 18 -57 -8t-85.5 -84.5t-87.5 -114.5t-80 -118v-80
q0 -3 -0.5 -84.5t-0.5 -153t1 -176t3 -182t6 -143t10 -84.5q8 -23 43.5 -40t46.5 -28q8 -8 10 -15.5t-3 -15.5t-9 -12t-13 -12q-6 -4 -17.5 -5.5t-27 -1.5t-20.5 -1q-28 -4 -69 6t-64 10q-24 0 -64 -8.5t-57 -7.5q-58 0 -66 16q-7 11 0 37q2 14 16.5 25t31 17t30 17t13.5 25
q0 52 4 404.5t4 412.5q0 53 -4 311t-4 445q0 52 -9 61q-5 4 -26.5 8t-26.5 9q-16 16 -16 43q-1 16 14 27t40 20.5t36 17.5q62 43 119 70.5t73 11.5q50 -50 39 -72q-47 -103 -47 -196q0 -63 1 -250.5t1 -278.5q39 48 80.5 94.5t102 107.5t118 98.5t97.5 37.5q47 0 84 -17.5
t61.5 -44.5t42 -68.5t27 -79.5t15 -88.5t6.5 -85t1 -77.5z" />
    <glyph glyph-name="i" unicode="i" horiz-adv-x="532" 
d="M463 47q8 -8 10 -15.5t-4.5 -16t-9.5 -11.5t-13 -12q-6 -4 -17.5 -5.5t-26 -1.5t-19.5 -1q-28 -4 -70 6t-65 10q-24 0 -64 -8.5t-57 -7.5q-58 0 -66 16q-7 11 0 37q2 14 17.5 25t32.5 17t31 17t14 25q0 51 2 272.5t2 282.5q-4 472 -4 526q0 18 -4 39.5t-7 24.5
q-5 4 -27.5 6.5t-27.5 7.5q-14 16 -14 45q0 16 15.5 26.5t40.5 20t36 17.5q57 42 114.5 71t73.5 13q19 -19 32 -41t7 -33q-47 -103 -47 -197q0 -124 3 -309t3 -217q0 -495 19 -561q8 -23 43.5 -40t46.5 -28zM369 1882q0 -40 -23 -84h-2q-3 0 -12 -8t-20 -17.5t-15 -11.5
q-71 -37 -100 -37q-82 0 -82 91q0 15 5 27.5t14 28t13 23.5q2 5 3 16.5t8 18.5q12 12 24 21t20.5 13.5t23.5 7.5t21.5 4t25.5 2t26 1q34 3 52 -26.5t18 -69.5z" />
    <glyph glyph-name="j" unicode="j" horiz-adv-x="473" 
d="M391 1399q-16 -32 -30.5 -88t-14.5 -109q0 -166 7.5 -270.5t6.5 -216.5q0 -148 -10.5 -291t-38 -302.5t-70 -301t-110.5 -280t-156 -245.5q-16 5 -24 3t-17 0t-20 12q113 217 174.5 512.5t61.5 644.5q0 32 4 321.5t4 413.5q0 17 -7 39t-12 25q-5 4 -26 6.5t-25 7.5
q-18 21 -18 45q0 16 15.5 26.5t40.5 20t36 17.5q61 43 117.5 71.5t72.5 12.5q48 -55 39 -74zM371 1882q0 -40 -23 -84h-2q-3 0 -12 -8t-20 -17.5t-15 -11.5q-71 -37 -100 -37q-80 0 -80 91q0 15 4.5 27.5t13.5 28t13 23.5q2 5 2.5 16.5t7.5 18.5q12 12 24.5 21t21 13.5
t23.5 7.5t21 4t26 2t27 1q33 3 50.5 -26.5t17.5 -69.5z" />
    <glyph glyph-name="k" unicode="k" horiz-adv-x="1021" 
d="M461 47q8 -8 10 -15.5t-3 -15.5t-9 -12t-13 -12q-6 -4 -17.5 -5.5t-27 -1.5t-20.5 -1q-27 -3 -68 6.5t-65 9.5t-64 -8.5t-57 -7.5q-58 0 -66 16q-7 11 0 37q2 14 16.5 25t31 17t30 17t13.5 25q0 52 4 404.5t4 412.5q0 53 -4 311t-4 445q0 52 -9 61q-5 4 -26.5 8t-26.5 9
q-16 16 -16 43q-1 16 14 27t40 20.5t36 17.5q62 43 119 70.5t73 11.5q50 -50 39 -72q-47 -103 -47 -196q0 -124 2 -424t2 -332q0 -5 -1 -76t-1 -129q37 20 75 45.5t88.5 70.5t88 94.5t64 118t26.5 140.5q0 56 -8 64q-6 4 -20 7.5t-17 6.5q-14 20 -14 45q1 14 13.5 24.5
t31.5 21t27 18.5q50 44 119.5 72.5t86.5 11.5q19 -19 32 -41t7 -33q-1 -2 -12 -25t-17.5 -38t-15.5 -39.5t-13.5 -48.5t-4.5 -46q0 -61 -40 -134t-96.5 -133.5t-113.5 -112.5t-97 -82l-40 -29q16 -21 42 -56.5t94 -128.5t121 -168.5t100 -148t54 -94.5q8 -23 58 -39t63 -29
q8 -8 10 -15.5t-4 -16t-9 -12t-13 -11.5t-62 -8q-16 -1 -36.5 7t-32.5 9q-25 2 -65.5 -7.5t-55.5 -8.5q-37 0 -47 16q-4 4 -1.5 17.5t1.5 19.5q-1 16 -13 38.5t-12 45.5q0 93 -340 532q0 -471 19 -538q8 -23 43.5 -40t46.5 -28z" />
    <glyph glyph-name="l" unicode="l" horiz-adv-x="530" 
d="M461 47q8 -8 10 -15.5t-3 -15.5t-9 -12t-13 -12q-6 -4 -17.5 -5.5t-27 -1.5t-20.5 -1q-28 -4 -69 6t-64 10q-24 0 -64 -8.5t-57 -7.5q-58 0 -66 16q-7 11 0 37q2 14 16.5 25t31 17t30 17t13.5 25q0 52 4 404.5t4 412.5q0 53 -4 311t-4 445q0 52 -9 61q-5 4 -26.5 8
t-26.5 9q-16 16 -16 43q-1 16 14 27t40 20.5t36 17.5q62 43 119 70.5t73 11.5q50 -50 39 -72q-47 -103 -47 -196q0 -124 2 -424t2 -332q0 -3 -0.5 -84.5t-0.5 -153t1 -176t3 -182t6 -143t10 -84.5q8 -23 43.5 -40t46.5 -28z" />
    <glyph glyph-name="m" unicode="m" horiz-adv-x="1716" 
d="M1092 47q8 -8 10 -15.5t-3 -15.5t-9 -12t-13 -12q-11 -8 -65 -8q-21 -2 -51.5 7t-49.5 9q-17 0 -44 -8.5t-44 -7.5q-35 0 -45 16q-3 5 -3 11t1.5 13.5t1.5 12.5q1 8 3.5 33.5t2.5 50.5q0 38 4 262.5t3 292.5q0 246 -17 375q-28 220 -102 292q-11 8 -26 6.5t-35.5 -17.5
t-41.5 -36.5t-45.5 -50t-47.5 -59t-46.5 -63.5t-42.5 -62.5t-37 -56.5q4 -282 4 -328q0 -495 19 -561q8 -23 43.5 -40t46.5 -28q8 -8 10 -15.5t-4.5 -16t-9.5 -11.5t-13 -12q-6 -4 -17.5 -5.5t-26 -1.5t-19.5 -1q-28 -4 -70 6t-65 10q-24 0 -64 -8.5t-57 -7.5q-58 0 -66 16
q-7 11 0 37q2 14 17.5 25t32.5 17t31 17t14 25q0 51 2 272.5t2 282.5q-4 472 -4 526q0 18 -4 39.5t-7 24.5q-5 4 -27.5 6.5t-27.5 7.5q-14 16 -14 45q0 16 15.5 26.5t40.5 20t36 17.5q57 42 114.5 71t73.5 13q19 -19 32 -41t7 -33q-47 -103 -47 -197v-49q283 350 406 350
q213 0 235 -350q283 350 408 350q47 0 84 -17.5t61.5 -44.5t42 -68.5t27 -79.5t15 -88.5t6.5 -85t1 -77.5q0 -149 -10.5 -292t-38 -302.5t-70 -301t-110.5 -279.5t-156 -246q-13 5 -34.5 4t-30.5 10q113 219 175 515t62 645q0 4 0.5 55.5t0 79.5t-3 84t-10 95.5t-19 87
t-31.5 84t-47 62.5q-19 19 -59 -9t-89 -88.5t-90 -119t-80 -120.5q-9 -826 11 -891q5 -18 20 -28t35.5 -19t32.5 -21z" />
    <glyph glyph-name="n" unicode="n" horiz-adv-x="1071" 
d="M991 1042q0 -188 -18.5 -370t-60.5 -373.5t-120.5 -368t-187.5 -309.5q-12 5 -33 4t-30 10q112 218 173.5 514t61.5 646q0 7 1 55.5t0 79t-3 85t-9.5 95t-19 87t-32 83.5t-47.5 63q-19 18 -58.5 -10t-87.5 -87.5t-90 -118.5t-80 -119q4 -282 4 -332q0 -495 19 -561
q8 -23 43.5 -40t46.5 -28q8 -8 10 -15.5t-4.5 -16t-9.5 -11.5t-13 -12q-6 -4 -17.5 -5.5t-26 -1.5t-19.5 -1q-28 -4 -70 6t-65 10q-24 0 -64 -8.5t-57 -7.5q-58 0 -66 16q-7 11 0 37q2 14 17.5 25t32.5 17t31 17t14 25q0 51 2 272.5t2 282.5q-4 472 -4 526q0 18 -4 39.5
t-7 24.5q-5 4 -27.5 6.5t-27.5 7.5q-14 16 -14 45q0 16 15.5 26.5t40.5 20t36 17.5q57 42 114.5 71t73.5 13q19 -19 32 -41t7 -33q-47 -103 -47 -197v-45q36 45 78.5 93t104 111t121 102.5t100.5 39.5q47 0 84.5 -17.5t62 -44.5t42.5 -68.5t27.5 -79.5t15 -88.5t6.5 -85
t1 -77.5z" />
    <glyph glyph-name="o" unicode="o" horiz-adv-x="1021" 
d="M737 993q-1 21 -3.5 59t-4 61t-5 58.5t-8 58t-13 52t-19 48t-27 38.5t-37 31t-48 18.5t-60.5 7.5q-34 0 -62 -7.5t-48.5 -18.5t-37 -31t-28 -38.5t-20 -48t-13 -51.5t-8 -58t-5 -59t-4 -61t-3.5 -59q-13 -174 19 -390.5t91.5 -368.5t118.5 -152q36 0 73.5 58t67.5 152
t53.5 214t31 244.5t-0.5 242.5zM963 836q0 -126 -28.5 -249t-73.5 -217t-98 -175.5t-104 -134t-90 -82t-57 -29.5t-59 31.5t-94.5 87t-108.5 139t-100 177.5t-70.5 214t-18.5 238q41 667 451 667q101 0 181 -43.5t129.5 -112t82 -159t45.5 -177.5t13 -175z" />
    <glyph glyph-name="p" unicode="p" horiz-adv-x="1091" 
d="M1010 1020q0 -182 -40.5 -348.5t-119.5 -306.5t-207 -239t-291 -136q4 -309 19 -363q6 -19 21.5 -29t36 -19t32.5 -21q6 -6 7.5 -11.5t2 -9.5t-3.5 -10t-5.5 -7.5l-8.5 -8.5l-7 -7q-6 -5 -17.5 -7t-27.5 -2.5t-20 -0.5q-27 -3 -68 7t-65 10t-64 -9t-57 -8q-58 1 -66 17
q-7 11 0 36q2 14 16.5 25t31 17t30 17t13.5 25q0 51 4 405t4 415q0 50 -4 308t-4 445q0 53 -9 62q-5 4 -26.5 7.5t-26.5 8.5q-16 19 -16 43q-1 16 14 27t40 21t36 18q62 43 119 70.5t73 11.5q50 -50 39 -72q-47 -103 -47 -197v-74q29 37 63 78.5t85 96.5t97.5 97t95.5 71.5
t83 29.5q48 0 86.5 -19t63 -47t42 -73t26.5 -83.5t13.5 -93t5.5 -87.5t1 -80zM352 51q123 70 211.5 168.5t138.5 217.5t72.5 247t22.5 277q0 32 -7 90t-20.5 128t-40.5 120.5t-61 50.5q-27 0 -74 -45.5t-97.5 -114t-85.5 -121t-61 -94.5q0 -125 1 -317t1 -207v-400z" />
    <glyph glyph-name="q" unicode="q" horiz-adv-x="1097" 
d="M696 82q19 -8 21 -6q5 2 8 16q2 156 2 359q0 108 -3 346t-3 407q0 28 -6 49q-9 14 -17 19l-16 20q-12 11 -18 19q-47 50 -101 82t-96 32q-34 0 -61.5 -15t-44.5 -36t-29.5 -56t-18.5 -64t-9.5 -70.5t-4 -64.5t-0.5 -58q0 -137 10.5 -248.5t37.5 -222t71.5 -199
t114 -168.5t163.5 -141zM82 831q0 74 9.5 147.5t29.5 150.5t55.5 143t83 118.5t116.5 82.5t152 30q31 0 97 -31.5t118 -72.5q56 40 111.5 65t69.5 9q50 -50 39 -72q-45 -98 -45 -197q0 -123 1 -505.5t1 -413.5q0 -270 37.5 -460t140.5 -323q-14 -8 -29 -7.5t-33 -2.5
q-235 195 -303 502q-294 57 -472.5 289t-178.5 548z" />
    <glyph glyph-name="r" unicode="r" horiz-adv-x="831" 
d="M463 47q8 -8 10 -15.5t-4.5 -16t-9.5 -11.5t-13 -12q-6 -4 -17.5 -5.5t-26 -1.5t-19.5 -1q-28 -4 -70 6t-65 10q-24 0 -64 -8.5t-57 -7.5q-58 0 -66 16q-7 11 0 37q2 14 17.5 25t32.5 17t31 17t14 25q0 51 2 272.5t2 282.5q-4 472 -4 526q0 18 -4 39.5t-7 24.5
q-5 4 -27.5 6.5t-27.5 7.5q-14 16 -14 45q0 16 15.5 26.5t40.5 20t36 17.5q57 42 114.5 71t73.5 13q19 -19 32 -41t7 -33q-47 -103 -47 -197v-10q5 13 15 34t39 74.5t58 94.5t68 74.5t72 33.5q44 0 137.5 -70.5t93.5 -117.5q0 -27 -39.5 -120t-56.5 -93q-4 0 -20.5 47.5
t-37.5 103t-55 98t-69 33.5q-19 -5 -40 -29t-42.5 -65t-40 -80t-42 -91t-38.5 -81q0 -89 2 -213.5t2 -148.5q0 -495 19 -561q8 -23 43.5 -40t46.5 -28z" />
    <glyph glyph-name="s" unicode="s" horiz-adv-x="808" 
d="M750 463q0 -93 -63.5 -219t-159.5 -245.5t-193.5 -219.5t-181.5 -168l-27 43q1 13 44 56.5t103 106.5t120.5 137t102.5 164.5t42 172.5q0 60 -35.5 131.5t-88 135t-114.5 135.5t-114.5 134t-88 129.5t-35.5 122.5q0 89 51.5 187.5t139.5 167.5t180 69q53 0 165 -70.5
t112 -117.5q0 -32 -27.5 -122.5t-48.5 -90.5q-4 0 -31 50.5t-60.5 111t-82 111t-90.5 50.5q-27 0 -45 -23.5t-25.5 -61.5t-10.5 -68t-3 -60q0 -65 48 -149t116 -164t136.5 -157.5t116.5 -152.5t48 -126z" />
    <glyph glyph-name="t" unicode="t" horiz-adv-x="694" 
d="M606 1473l68 -64q1 -16 -7 -32t-18 -21q-9 -4 -38.5 8t-45.5 12l-7 1q-7 1 -19.5 3t-29 4t-39.5 4t-46 3q1 -88 2.5 -228t2.5 -237.5t1 -130.5q0 -349 61.5 -645.5t174.5 -514.5q-14 -11 -29 -10t-33 -4q-88 108 -156 246t-110.5 279.5t-70 301t-38 302.5t-10.5 292
q0 104 3.5 191t4.5 156q-26 -3 -50.5 -6t-36.5 -5l-13 -2q-16 0 -45.5 -12t-38.5 -8q-10 5 -18 21t-5 32l66 64h141l2 55q0 18 -3.5 40t-6.5 25q-4 2 -26.5 5.5t-28.5 9.5q-17 17 -14 43q0 17 15.5 27.5t40.5 20t36 17.5q57 43 114.5 71t73.5 11q19 -19 32 -41t7 -33
q-47 -103 -47 -196v-55h184z" />
    <glyph glyph-name="u" unicode="u" horiz-adv-x="1122" 
d="M745 180q-51 -91 -131 -164t-147 -73q-66 0 -125 49q-65 54 -106.5 131.5t-59 175t-23 171.5t-8.5 179v6v5v6q-6 188 -6 376q0 18 -2 52t-2 51q0 13 4 37t4 35q0 29 -13 43t-28 15.5t-28 13t-13 36.5q0 16 17 27.5t44 21.5t34 15q130 88 172 88q14 0 34.5 -28t20.5 -44
v-6q-3 -9 -11 -32.5t-11.5 -33.5t-9.5 -30t-8.5 -33.5t-4.5 -32t-2 -35.5q0 -102 4 -303t4 -301q0 -8 -0.5 -73t0.5 -92t4 -79t11.5 -89.5t21.5 -67.5q25 -57 62 -87.5t98 -33.5q20 0 85.5 65.5t121.5 155.5q5 365 4 405q0 108 -3.5 219t-3.5 281q0 18 -3.5 39.5t-6.5 24.5
q-5 4 -26.5 6.5t-26.5 7.5q-16 19 -16 45q0 16 15.5 26.5t40.5 20t36 17.5q62 44 117 72t71 12q19 -19 32 -41t7 -33q-43 -94 -43 -197q0 -124 1 -296t1 -204q0 -520 21 -587q5 -18 20 -28t35.5 -19t32.5 -21q8 -8 10 -15.5t-4.5 -16t-9.5 -11.5t-13 -12q-5 -4 -16 -5.5
t-26.5 -1.5t-20.5 -1q-21 -3 -52 6.5t-49 9.5q-17 0 -44 -8.5t-44 -7.5q-37 0 -47 16q-3 5 -3 11t1.5 13.5t1.5 12.5q1 12 4.5 36t3.5 48v59z" />
    <glyph glyph-name="v" unicode="v" horiz-adv-x="1050" 
d="M995 1399q-48 -105 -41 -197q3 -44 4 -83.5t0 -56.5v-18l-4 -143q-5 -138 -43.5 -285t-91.5 -262t-110.5 -209t-104 -145t-67.5 -51q-22 0 -68.5 51t-104.5 145.5t-111 209.5t-91 262t-43 284l-6 141v160q1 58 -11 64q-4 2 -24.5 5t-26.5 9q-18 18 -18 45q1 16 17.5 26.5
t41.5 20t35 17.5q58 43 116 71.5t74 12.5q19 -19 32 -41t7 -33q-47 -103 -47 -197v-145v-64q0 -169 42.5 -389.5t96.5 -371t89 -150.5q34 0 85.5 144.5t91.5 364.5t40 402v64v145q0 55 -9 64q-5 4 -26.5 6.5t-26.5 7.5q-16 16 -16 45q0 16 15.5 26.5t40 20t34.5 17.5
q58 43 116 71.5t74 12.5q19 -19 32 -41t7 -33z" />
    <glyph glyph-name="w" unicode="w" horiz-adv-x="1558" 
d="M788 295q-71 -148 -146 -248t-105 -98q-33 2 -83.5 54t-106.5 146t-105.5 209t-83.5 260t-39 283l-6 141v160q-5 60 -11 64q-5 4 -26 6.5t-25 7.5q-18 21 -18 45q0 16 16 26.5t41.5 20t36.5 17.5q61 43 117.5 71.5t72.5 12.5q19 -19 32 -41t7 -33q-47 -103 -47 -197v-145
v-64q0 -169 42.5 -389.5t96.5 -371t89 -150.5q36 0 89.5 106.5t90.5 278.5q-84 228 -92 434l-4 141v160q-7 60 -11 64q-5 4 -26 6.5t-25 7.5q-18 18 -18 45q0 16 16 26.5t41.5 20t36.5 17.5q61 43 117.5 71.5t72.5 12.5q48 -55 39 -74q-17 -33 -32 -88.5t-15 -108.5v-145
v-64q0 -169 41.5 -389t95 -371t88.5 -151t87 144.5t92.5 364t40.5 402.5v64v145q0 57 -11 64q-5 4 -26 6.5t-25 7.5q-18 21 -18 45q0 16 15.5 26.5t40.5 20t36 17.5q61 43 117.5 71.5t72.5 12.5q48 -55 39 -74q-17 -33 -31.5 -89t-11.5 -108q2 -27 3.5 -53.5t2 -44.5
t0.5 -32v-21v-7l-6 -143q-5 -138 -43 -285t-91 -262t-111 -209t-104.5 -145t-68.5 -51q-30 0 -107 100t-147 246z" />
    <glyph glyph-name="x" unicode="x" 
d="M532 680q-35 -31 -62 -60t-47.5 -52.5t-36 -50.5t-25.5 -46.5t-16.5 -48t-10 -46.5t-4.5 -51.5t-1 -53t0.5 -61.5t0.5 -67q0 -14 4 -51t-2 -45q-1 -5 -2.5 -14.5t-2.5 -15.5t-4 -13t-8 -12q-11 -8 -43 -8q-17 -2 -43.5 7t-42.5 9q-17 0 -44 -8.5t-44 -7.5q-55 0 -65 16
q-4 8 0 37q3 14 18 25t31 17t29.5 17t13.5 25q0 191 82.5 344t281.5 266q-65 35 -111.5 62.5t-85 55.5t-62.5 49t-42.5 49.5t-28 50.5t-15 58t-6.5 66t-1 80q0 39 -10 64l-51 14q-19 38 -19 45q0 26 114.5 88t147.5 62q36 0 62 -76q-20 -40 -34.5 -105t-14.5 -92
q0 -26 -1 -70q-1 -106 10 -142q15 -49 84 -115q31 -29 110 -97q60 52 88 77t56.5 55.5t37 48.5t16 45t8 57t-0.5 73t-1 68q0 1 0.5 10t1 17.5t-0.5 19t-3 17.5l-55 14q0 2 -7 21t-7 24q0 26 113 88t145 62q40 0 61 -76q-18 -37 -28 -63t-14 -46t-4.5 -30t0.5 -29t1 -29
q0 -154 -77 -255.5t-287 -217.5q71 -39 125 -79.5t91 -77t62.5 -81t40 -81.5t22 -89.5t9.5 -94t2 -105.5q7 -25 42.5 -42.5t45.5 -27.5q6 -6 8 -11.5t2 -9t-4 -9t-6 -7t-9 -7.5t-8 -7q-6 -4 -17 -6t-26.5 -3t-19.5 -1q-20 -2 -50 8.5t-50 9.5q-11 -1 -29.5 -10t-36.5 -8
q-37 0 -45 18q-5 1 -2.5 16.5t2.5 16.5q1 16 4.5 46.5t3.5 55.5t0.5 67t0.5 61.5t-1 53.5t-4.5 51.5t-10 46t-17 47.5t-25.5 46.5t-36 51t-48 52.5t-62 60z" />
    <glyph glyph-name="y" unicode="y" 
d="M1006 1397q-17 -34 -32.5 -88.5t-15.5 -106.5v-207q0 -180 -31 -412t-86.5 -472t-147 -463t-199.5 -355q-12 5 -33.5 4.5t-30.5 10.5q119 230 227 700q-94 17 -170 59t-174 119q-50 42 -94 115q-66 119 -86 295t-20 442q0 15 -2 47.5t-2 61.5t4 55q3 16 -1.5 38.5
t-9.5 25.5q-3 2 -23 4t-28 10q-18 15 -18 43q0 20 14 30.5t41 19.5t39 16t31 18t33.5 19.5t32 18.5t31 16t26.5 10.5t22 4t14 -5.5q48 -55 39 -73q-17 -33 -32 -87.5t-15 -107.5q0 -123 4 -251t4 -160v-52v-50.5v-45t1 -45t2 -39.5t3 -40t4.5 -34.5t6 -34.5t8 -29.5
t10.5 -29.5q53 -123 120.5 -192t170.5 -111q14 0 23 6q7 2 14 17q82 398 82 684q0 6 -2 106t-2 187.5t4 113.5q3 15 -1.5 37.5t-8.5 26.5q-3 2 -23.5 4t-28.5 10q-18 15 -18 43q0 20 13.5 30.5t41 19.5t39.5 16t31 18t33.5 19.5t32 18.5t31 16t26 10.5t21.5 4t14 -5.5
q50 -50 41 -73z" />
    <glyph glyph-name="z" unicode="z" horiz-adv-x="878" 
d="M795 78q0 -211 -823 -719q-13 -8 -19 -12l-29 47q35 26 114.5 83.5t118 86t105.5 81.5t102 85.5t81.5 80t69 84t39.5 79.5t17 83q0 38 -35 69t-85.5 48t-99 26t-83.5 9q-9 0 -50.5 -13.5t-55.5 -15.5l-31 45q90 178 141.5 284.5t122 267.5t120 312.5t83.5 307.5h-207
q-47 0 -88 -30.5t-67.5 -73.5t-47 -86.5t-35 -74t-22.5 -30.5q-19 0 -49.5 99.5t-30.5 125.5q0 28 0.5 43t4.5 38t12 34.5t24 21t39 9.5h549q61 0 77 -9q17 -9 17 -30q0 -141 -74.5 -359t-170.5 -408.5t-189 -332.5q45 0 90.5 -4t99 -14t99 -29t84 -46t60.5 -69t22 -94z" />
    <glyph glyph-name="braceleft" unicode="{" horiz-adv-x="622" 
d="M594 2136l29 -43q-1 -13 -27.5 -38.5t-62.5 -62.5t-72.5 -84.5t-62 -120t-25.5 -153.5q0 -45 -1 -345t-1 -345q0 -63 -8.5 -99t-20 -47t-32.5 -30t-36 -41q13 -19 35 -43t31.5 -38.5t18 -54t8.5 -102.5q0 -45 2 -345.5t2 -344.5q0 -82 25 -155t60.5 -121t71 -85.5
t61.5 -63t27 -38.5l-26 -41q-71 57 -123.5 103.5t-112 111.5t-97 125t-62.5 135.5t-25 151.5q0 88 3 306.5t3 340.5q0 11 -2.5 22.5t-5 20t-10 20t-11.5 17.5t-15 19t-15 17t-18 18.5t-17 17.5q8 8 33.5 31.5t34.5 34t19.5 31t10.5 42.5q0 122 -3 342.5t-3 308.5
q0 76 25 150.5t62.5 134t97.5 125t111.5 111.5t123.5 104z" />
    <glyph glyph-name="bar" unicode="|" horiz-adv-x="382" 
d="M285 1694q11 -2 14.5 -174.5t0 -417.5t-8.5 -489.5t-10 -416.5l-5 -171l-102 -19q1 31 2 84.5t2.5 210t1.5 301.5t-4 326.5t-12.5 319t-24.5 246t-39 138.5q-58 74 60 73q34 0 125 -11z" />
    <glyph glyph-name="braceright" unicode="}" horiz-adv-x="622" 
d="M541 721l-16 -16l-16.5 -16.5t-14.5 -15t-14 -16.5t-11 -15.5t-11 -17.5t-7 -16.5t-5.5 -19t-1.5 -19.5q0 -122 4.5 -340.5t4.5 -306.5q0 -76 -25 -151.5t-62.5 -135.5t-97 -125t-112 -111.5t-123.5 -103.5l-29 41q1 13 27 38.5t61.5 63t71.5 85.5t61 121t25 155
q0 44 3 344.5t3 345.5q0 63 8 102.5t17.5 54t30.5 38t34 43.5q-12 20 -28 35t-26.5 24t-20.5 25.5t-15 48.5t-6 84q0 45 -1 345t-1 345q0 81 -25 153.5t-61.5 120t-72.5 84.5t-62 62.5t-27 38.5l27 43q72 -58 123.5 -104t111.5 -111.5t97 -125t62 -134t25 -150.5
q0 -88 -2 -308.5t-2 -342.5q0 -18 5 -33t16.5 -29.5t20.5 -24t28.5 -26.5t28.5 -26z" />
    <glyph glyph-name="asciitilde" unicode="~" horiz-adv-x="1124" 
d="M1006 1905l36 -35q-29 -52 -69.5 -110t-90.5 -116.5t-103.5 -96.5t-96.5 -38q-31 0 -75.5 41.5t-82.5 92t-80 92t-69 41.5q-49 0 -107 -51t-98 -107q-6 -10 -17.5 -31t-19 -31.5t-14.5 -11.5l-37 33q29 52 70 110t91 116t103.5 96t95.5 38q37 0 82 -41.5t80 -91.5
t75.5 -91.5t70.5 -41.5q80 0 192 158q48 74 64 76z" />
    <glyph glyph-name="uni00A0" unicode="&#xa0;" horiz-adv-x="512" 
 />
    <glyph glyph-name="exclamdown" unicode="&#xa1;" horiz-adv-x="438" 
d="M358 139q0 -42 -22 -84h-2q-3 0 -22.5 -17.5t-24.5 -19.5q-69 -36 -101 -36q-82 0 -82 88q0 15 4.5 27.5t15 30t13.5 24.5q3 5 3 16t5 18q15 15 28 24t29.5 14t25 6.5t30.5 3t31 2.5q33 1 51 -28.5t18 -68.5zM352 1890q-2 -15 -12 -37.5t-10 -46.5q0 -51 -4 -416.5
t-4 -426.5q0 -43 -2.5 -234.5t-2.5 -245.5q0 -53 -88 -53q-82 4 -82 59q0 52 -8 233t-8 241v70.5v125.5v150t-1.5 165.5t-3.5 148.5t-6 122t-9 65q-6 22 -3.5 30.5t0 17t-17.5 22.5q-23 27 16 53q11 11 44 11q16 1 41 -8.5t42 -8.5q13 0 33 9t39 8q37 -1 47 -17q3 -5 3 -11
t-1.5 -13.5t-1.5 -12.5z" />
    <glyph glyph-name="cent" unicode="&#xa2;" horiz-adv-x="888" 
d="M528 1690q12 0 15 -187q66 -14 166 -79t100 -109q0 -31 -28.5 -122t-47.5 -91q-5 0 -32 52t-71 123.5t-85 108.5q6 -505 -21 -1292q24 -39 50.5 -81t40.5 -63t14 -22l-29 -41q-15 12 -42 34.5t-38 31.5q-12 -275 -26 -361q-13 -2 -29 -11.5t-33 -6.5q-1 24 -1.5 84.5
t-1 176.5t-1.5 202q-183 179 -264.5 364t-81.5 430q0 54 5.5 115.5t26 149.5t53.5 161t94.5 137t141.5 91q-6 118 -12 151q-4 17 -5 29.5t3 20t9 13t15 7t18.5 1.5t22.5 -2t23.5 -4t25.5 -5.5t25 -5.5zM422 291l4 -10q-4 745 -18 1132q-37 -19 -61 -60.5t-33.5 -100.5
t-12 -98.5t-2.5 -92.5q0 -120 3 -193.5t14 -177.5t37 -201t69 -198z" />
    <glyph glyph-name="sterling" unicode="&#xa3;" horiz-adv-x="1099" 
d="M977 1806q0 -31 -28.5 -122t-47.5 -91q-4 0 -23 33.5t-46.5 81t-59.5 95t-71.5 81t-73.5 33.5q-47 1 -76 -25.5t-38 -67.5t-12.5 -91t0 -96t-0.5 -83l-25 -401h31h356l70 -66q0 -15 -8 -30.5t-17 -20.5q-10 -4 -39.5 8.5t-44.5 12.5l-21 1q-22 2 -56 4.5t-74 5t-85 4
t-81 1.5h-39l-4 -215h43h356l70 -65q0 -15 -8 -31t-17 -21q-10 -4 -39.5 8.5t-44.5 12.5l-21 2q-22 1 -56 3.5t-74 5t-85 4t-81 1.5q-26 0 -51 -2l2 -549q0 -92 -47 -153h266q58 1 107.5 47t75.5 101t47.5 101t29.5 46q19 0 50.5 -100t31.5 -126q0 -28 -0.5 -42.5
t-4.5 -37.5t-12.5 -35t-24.5 -21t-40 -9h-830l9 76h35q38 6 65.5 26t26.5 62q0 375 4 604l-30 -2t-22 -1.5t-8 -0.5q-15 0 -44.5 -12.5t-39.5 -8.5q-8 5 -15.5 21.5t-4.5 30.5l65 65h103q4 140 6 203q-17 -1 -34.5 -2t-26 -1.5t-9.5 -0.5q-15 0 -44.5 -12.5t-39.5 -8.5
q-8 5 -15.5 21t-4.5 30l65 66h115q8 120 14 172q1 13 5.5 59t7.5 76.5t11 83.5t17.5 91t27 88.5t38 86.5t52 73.5t68 60.5t86 37.5t107.5 13.5q33 0 100.5 -32.5t124 -78.5t56.5 -78z" />
    <glyph glyph-name="yen" unicode="&#xa5;" horiz-adv-x="1185" 
d="M946 406l68 -64q1 -16 -7 -32t-18 -21q-9 -4 -38 8t-44 12q-1 0 -32.5 2.5t-85.5 6t-101 6.5q3 -159 17 -209q5 -18 20 -28t35.5 -19t32.5 -21q8 -8 10 -15.5t-3 -15.5t-9 -12t-13 -12q-5 -4 -17 -5.5t-26.5 -1.5t-19.5 -1q-29 -4 -70.5 6t-62.5 10q-24 0 -64 -8.5
t-57 -7.5q-58 0 -68 16q-4 8 0 37q3 14 18 25t31 17t29.5 17t13.5 25q0 113 2 203q-47 -3 -100.5 -6.5t-84.5 -6t-32 -2.5q-14 0 -43.5 -12t-40.5 -8q-10 5 -17.5 21t-4.5 32l67 64h258l3 163q0 9 -9 49q-46 -3 -99 -6.5t-83 -5.5t-31 -2q-14 0 -43.5 -12t-40.5 -8
q-10 5 -17.5 21t-4.5 32l67 63h215q-50 54 -94 121.5t-85 155t-65 196t-24 220.5v198q0 18 0.5 49.5t0.5 46t-1.5 37.5t-6 43t-11.5 43q-5 19 -20 29t-36.5 19.5t-33.5 21.5q-23 27 16 53q5 5 16.5 7.5t28 3t19.5 0.5q28 3 68.5 -7.5t64.5 -9.5q24 0 63.5 9t56.5 8
q58 -1 68 -17q4 -8 0 -37q-3 -14 -18 -25t-31 -17t-29.5 -17t-13.5 -25q0 -54 -3.5 -97t-4.5 -101v-123q-1 -127 24 -269t61 -248.5t75 -176.5t65 -70q21 0 52.5 41.5t63.5 117.5t58.5 169t39.5 209.5t5 226.5l16 110q-1 24 0 59t1 54t-4 46.5t-13 55.5q-8 25 -43.5 42
t-46.5 28q-24 24 14 53q6 5 17.5 7.5t28 3t20.5 0.5q27 3 67.5 -7.5t65.5 -9.5q24 0 64 9t57 8q57 -1 65 -17q3 -4 3.5 -9t0 -8.5t-2 -10t-1.5 -9.5q-2 -14 -16.5 -25t-30.5 -17t-29.5 -17t-13.5 -25q0 -48 -1 -72t-4 -60.5t-5 -80.5l-10 -200q-16 -322 -197 -590q3 1 -3 -7
q-1 -2 -3 -5q-6 -8 -4 -7l1 3l-11 -15q-4 -5 -47 -61l-9 -11h205l68 -63q1 -16 -7 -32t-18 -21q-9 -4 -38 8t-44 12q-1 0 -31 2l-82.5 5.5l-97.5 6.5q-12 -27 -12 -49q0 -106 2 -163h260z" />
    <glyph glyph-name="brokenbar" unicode="&#xa6;" horiz-adv-x="407" 
d="M281 676q12 -2 15.5 -90t0 -212.5t-9 -249t-10.5 -211.5l-5 -87l-100 -19l-41 857q8 2 21 5t54 8t75 -1zM287 1694q12 -2 15.5 -91.5t0 -216t-8.5 -252.5t-10 -214l-5 -89l-136 -18q-8 637 -39 819q-5 29 10 45.5t47.5 20t59.5 2.5t66 -6z" />
    <glyph glyph-name="section" unicode="&#xa7;" horiz-adv-x="860" 
d="M778 1032q0 -164 -227 -432q60 -61 86.5 -89.5t67 -76t57 -82t16.5 -63.5q0 -82 -64.5 -194.5t-161 -218t-195.5 -195t-183 -148.5l-29 37q1 11 45 50t105 95t122.5 121.5t104.5 146t43 152.5q0 53 -36 117t-89.5 121t-116 121t-116 119.5t-89.5 115.5t-36 109
q0 107 92 222t213 146q-15 14 -48 43t-49.5 44.5t-45.5 42t-44.5 43.5t-37.5 41t-34 42.5t-24 39.5t-17 40.5t-5 38.5q0 80 52 168t141 149.5t182 61.5q33 0 100.5 -29.5t124.5 -71t57 -69.5t-28 -109.5t-49 -81.5q-5 0 -32.5 45t-61.5 99.5t-83 99.5t-92 45
q-27 0 -45.5 -21t-26.5 -54.5t-11 -60.5t-3 -54q0 -48 35 -109.5t87 -118t113.5 -120t113.5 -117t87 -108t35 -93.5zM524 627q88 124 88 262q0 25 -14 65q-116 191 -205 191q-27 0 -45.5 -21t-26.5 -54.5t-11 -60.5t-3 -53q0 -67 56.5 -145t160.5 -184z" />
    <glyph glyph-name="dieresis" unicode="&#xa8;" horiz-adv-x="833" 
d="M752 1853q0 -40 -23 -84h-2q-3 0 -12 -7.5t-20 -17t-15 -11.5q-71 -37 -100 -37q-80 0 -80 88q0 15 4.5 28t13 29t12.5 25q2 4 3 16t8 19q15 15 28 24t28.5 13.5t24.5 6t30.5 3t31.5 2.5q33 1 50.5 -28.5t17.5 -68.5zM334 1853q0 -40 -23 -84h-2q-3 0 -12 -7.5t-20 -17
t-15 -11.5q-71 -37 -100 -37q-80 0 -80 88q0 15 4.5 28t13.5 29t13 25q2 4 2.5 16t7.5 19q15 15 28 24t28.5 13.5t24.5 6t30.5 3t31.5 2.5q33 1 50.5 -28.5t17.5 -68.5z" />
    <glyph glyph-name="copyright" unicode="&#xa9;" horiz-adv-x="1214" 
d="M817 1378q0 -23 -19 -84t-32 -61q-3 0 -31 54.5t-70 109.5t-79 55q-27 0 -47.5 -12t-32.5 -35t-19.5 -46t-10.5 -55.5t-4 -51.5t-1 -46q0 -160 15.5 -277.5t68.5 -248.5q12 -29 31 -64.5t37.5 -66t35 -57t27.5 -42.5l10 -16l-20 -28q-190 154 -271 299t-81 344
q0 28 2.5 61t11 79t21.5 88t36.5 85t54 74.5t76.5 51t101 19.5q37 0 113.5 -48.5t76.5 -80.5zM1032 1092q0 122 -50.5 237.5t-149.5 194.5t-222 80q-124 1 -224 -78t-151 -195t-51 -239q0 -151 50.5 -312.5t119.5 -276.5t140.5 -190t115.5 -75q42 0 113 79.5t139.5 198
t119 278t50.5 298.5zM1133 1096q0 -128 -37 -267.5t-97 -256t-129.5 -212.5t-140 -150t-123.5 -54q-49 0 -117.5 53t-139 148t-131 211t-98.5 257t-38 271q0 108 39 215t106.5 191.5t167 137t211.5 52.5q113 0 213 -52.5t167.5 -137t107 -191.5t39.5 -215z" />
    <glyph glyph-name="ordfeminine" unicode="&#xaa;" horiz-adv-x="466" 
d="M276 1663q0 82 -4 115q-108 -65 -108 -213q0 -88 29 -88q21 0 83 88v98zM379 1427q-7 -4 -20 -4.5t-19 2.5q-12 5 -23.5 1t-19.5 -3q-19 3 -23 11q-5 7 0 26v6q2 5 2 31q-80 -80 -114 -80q-80 0 -80 133q0 96 47 169.5t139 97.5q-3 15 -1.5 24.5t0.5 17.5t-7 13
q0 3 -14 15.5t-21 13.5q-14 3 -31 -24.5t-31 -56t-20 -28.5q-8 0 -21 35t-13 47q0 21 39 45.5t59 26.5h67q88 -2 88 -162q0 -1 -1 -57.5t-1 -98.5q0 -134 5 -149q1 -4 4 -7t7.5 -6.5t6.5 -5.5q15 -14 -4 -33z" />
    <glyph glyph-name="guillemotleft" unicode="&#xab;" horiz-adv-x="1097" 
d="M1018 928q-3 -13 -31 -43.5t-39 -38.5q-136 -145 -346 -352l399 -463l-61 -41l-489 502q1 1 48.5 46.5t99.5 97t109.5 110t96 104.5t41.5 61q7 33 19.5 50.5t32 19t34.5 -1.5t39 -13t33 -12q18 -4 14 -26zM649 928q-3 -13 -30.5 -43.5t-38.5 -38.5q-124 -133 -347 -352
l400 -463l-62 -41l-489 502q1 1 48.5 46.5t99.5 97t109.5 110t96 104.5t41.5 61q7 33 19.5 50.5t32 19t34.5 -1.5t39 -13t33 -12q18 -4 14 -26z" />
    <glyph glyph-name="logicalnot" unicode="&#xac;" horiz-adv-x="1513" 
d="M1247 557q-444 14 -495 14q-36 0 -106.5 -1.5t-147 -4t-147.5 -5t-118 -4.5l-47 -1q-14 0 -43.5 -12t-40.5 -8q-9 5 -16 21t-4 32l65 63h605h602l10 -10q7 -1 20.5 -4t20.5 -4q29 -4 28 -185t-32 -354q-14 -2 -29.5 -10.5t-32.5 -5.5q-2 63 -13.5 137t-19 108
t-32.5 129.5t-27 104.5z" />
    <glyph glyph-name="registered" unicode="&#xae;" horiz-adv-x="1214" 
d="M584 559q9 -9 -9 -27q-4 -4 -20 -4q-14 -1 -33.5 4t-32.5 5q-12 0 -32 -4.5t-27 -4.5q-18 1 -22 9q-3 9 0 18q2 10 18 20.5t16 20.5q0 25 2 204t2 208q0 382 -10 415q-3 9 -7.5 14t-12.5 9.5t-13 9.5q-12 12 7 27q1 1 22 6h66h57q4 0 8 -2q16 2 41 2q242 0 242 -240
q0 -74 -37 -134.5t-113 -117.5q75 -51 101 -113.5t26 -144.5q0 -7 -0.5 -37.5t0 -40.5t2.5 -35t6 -39.5t12 -34.5t19 -38q75 136 122.5 287t47.5 291q0 122 -50.5 237.5t-149.5 194.5t-222 80q-124 1 -224 -78t-151 -195t-51 -239q0 -151 50.5 -312.5t119.5 -276.5
t140.5 -190t115.5 -75q37 0 101.5 66t128.5 171q-67 52 -89 115.5t-20 148.5q1 52 0 79t-12.5 68t-36.5 75q-6 6 -14 6q-4 2 -17 -2q-54 -35 -82 -50l-14 15l21 20q20 20 48.5 51.5t43.5 55.5q71 117 71 274q0 41 -25.5 79t-78.5 38q-48 0 -68 -2q-1 -1 -6 -3.5t-7 -4t-5 -4
t-4.5 -6t-1.5 -7.5q0 -26 -1 -206t-1 -209q0 -381 8 -412q4 -9 8.5 -14t12.5 -10t14 -11zM1133 1096q0 -128 -37 -267.5t-97 -256t-129.5 -212.5t-140 -150t-123.5 -54q-49 0 -117.5 53t-139 148t-131 211t-98.5 257t-38 271q0 108 39 215t106.5 191.5t167 137t211.5 52.5
q113 0 213 -52.5t167.5 -137t107 -191.5t39.5 -215z" />
    <glyph glyph-name="macron" unicode="&#xaf;" horiz-adv-x="815" 
d="M666 1964l69 -63q1 -16 -6.5 -32.5t-17.5 -21.5q-10 -4 -39.5 8.5t-44.5 12.5l-11 2q-12 1 -31.5 3.5t-45 5t-60.5 4t-71 1.5t-71.5 -1.5t-61 -4t-45.5 -5t-32 -3.5l-12 -2q-15 0 -44.5 -12.5t-39.5 -8.5q-9 5 -16 21.5t-4 32.5l65 63h261h258z" />
    <glyph glyph-name="degree" unicode="&#xb0;" horiz-adv-x="772" 
d="M590 1681q0 78 -53.5 122t-147.5 44q-96 0 -150.5 -44t-54.5 -122q0 -79 66 -148t139 -69q72 0 136.5 69t64.5 148zM690 1683q0 -103 -101.5 -201t-203.5 -98t-202.5 98t-100.5 201q0 105 88.5 179.5t214.5 74.5q127 0 216 -74.5t89 -179.5z" />
    <glyph glyph-name="plusminus" unicode="&#xb1;" horiz-adv-x="1036" 
d="M862 111l70 -64q1 -16 -7 -32t-18 -21q-11 -4 -40.5 8t-43.5 12l-21 2q-22 2 -56 4t-74 4.5t-85 4.5t-81 2t-81.5 -2t-85.5 -4.5t-74.5 -4.5t-56.5 -4l-22 -2q-14 0 -43.5 -12t-40.5 -8q-9 5 -16 21t-4 32l65 64h359h356zM594 1149q13 -1 21 -111.5t6 -263.5h266l69 -63
q1 -16 -6.5 -32.5t-17.5 -21.5q-10 -4 -39.5 8.5t-44.5 12.5l-34 2q-33 3 -88.5 6.5t-104.5 5.5q-7 -281 -31 -426q-14 -2 -29.5 -10.5t-32.5 -5.5q-3 137 -39 444q-54 -2 -122 -6t-112 -7l-44 -3q-15 0 -44.5 -12.5t-39.5 -8.5q-9 5 -16.5 21.5t-4.5 32.5l66 63h309
q-27 230 -51 322q-15 60 33 68.5t105 -10.5q18 -3 26 -5z" />
    <glyph glyph-name="twosuperior" unicode="&#xb2;" horiz-adv-x="716" 
d="M987 952q0 -28 -0.5 -42.5t-4.5 -37.5t-12.5 -35t-24.5 -21t-40 -9h-710l-25 -12l-35 125q13 14 34.5 38.5t85 100.5t121 152.5t127.5 183t120.5 202.5t85 201t34.5 189q0 227 -141 227q-45 0 -99.5 -36.5t-104 -92.5t-86.5 -106.5t-64 -96.5q-27 8 -44.5 80.5
t-17.5 116.5q0 39 69.5 95.5t151.5 96t121 39.5q110 0 187 -25.5t118.5 -71.5t63.5 -110.5t21 -142t-9 -166.5q-7 -65 -83.5 -196.5t-189.5 -284t-190 -251.5t-143 -179h342q58 1 107.5 47t75.5 101t47.5 101t29.5 46q19 0 50.5 -100t31.5 -126z" />
    <glyph glyph-name="threesuperior" unicode="&#xb3;" horiz-adv-x="727" 
d="M918 1978q0 -114 -21 -208.5t-54 -161t-85.5 -125t-102.5 -97t-118 -79.5l20 -7q9 -2 24.5 -5t60.5 -16t86 -29.5t90.5 -46t84.5 -64t58.5 -85.5t21.5 -108q-2 -62 -68.5 -150.5t-162.5 -175.5t-215.5 -178.5t-217.5 -158.5t-180 -117l-26 47q90 67 155 118t146 118.5
t137 125t106 119.5t75.5 120.5t25.5 111.5q0 48 -23.5 90.5t-59 70.5t-77 49t-78.5 30.5t-63 9.5q-9 0 -51 -13.5t-58 -15.5l-29 45q10 20 29 43l-6 8q124 90 193.5 156t115 151.5t60 180.5t14.5 245q0 240 -168 240q-71 0 -106 -12q-45 -16 -83.5 -64t-59 -95.5t-38 -85.5
t-24.5 -38q-19 0 -50.5 99.5t-31.5 125.5q0 28 0.5 43t5 38.5t12.5 35.5t24 21.5t40 9.5h248h9q63 0 92 -0.5t76 -2.5t66.5 -5.5t52 -11.5t44.5 -19.5t31.5 -29t25.5 -40t14.5 -53.5t10.5 -68.5t2 -85.5z" />
    <glyph glyph-name="acute" unicode="&#xb4;" horiz-adv-x="774" 
d="M690 1888q17 -4 -123 -114t-289 -218l-149 -108l-47 27q339 296 448 407q27 26 47.5 33.5t32.5 2.5t35 -15.5t45 -14.5z" />
    <glyph glyph-name="mu" unicode="&#xb5;" horiz-adv-x="1175" 
d="M760 180q-51 -90 -131.5 -163.5t-147.5 -73.5q-66 0 -125 49l-4 4q4 -315 19 -369q6 -19 21.5 -29t36 -19t32.5 -21q8 -8 10 -15.5t-3.5 -15.5t-8.5 -11.5t-13 -11.5q-6 -5 -17.5 -7t-27.5 -2.5t-20 -0.5q-27 -3 -68 7t-65 10t-64 -9t-57 -8q-58 1 -66 17q-7 11 0 36
q2 14 16.5 25t31 17t30 17t13.5 25q0 51 4 405t4 415q0 117 -2.5 334.5l-3.5 304.5q-2 4 -1 20t1 20q0 5 -1 22t-1 22v30q0 53 -9 62q-5 3 -16 6.5t-16 9.5l-2 4q-1 1 -13.5 3.5t-13.5 4.5q-8 11 -8 31q-1 16 14 27t40 21t36 18q62 43 119 70.5t73 11.5l4 -5
q14 -12 25.5 -31.5t11.5 -31.5v-6q-1 -4 -8 -24.5t-9 -25.5t-7.5 -22.5t-7 -25t-5 -23t-5 -25.5t-2.5 -24t-1 -27q0 -102 3 -303t3 -301q0 -10 -0.5 -61t0 -73t2.5 -68.5t5.5 -75t11 -63.5t18.5 -60q25 -57 62 -87.5t98 -33.5q21 0 86.5 66t120.5 155q1 54 2.5 145.5
t2.5 158.5t1 101q-1 93 -4.5 207.5t-3.5 292.5q0 18 -3.5 39.5t-6.5 24.5q-5 4 -26.5 6.5t-25.5 7.5q-18 18 -18 45q0 16 15.5 26.5t40.5 20t36 17.5q61 44 117 72t72 12q19 -19 31.5 -41t8.5 -33q-16 -32 -30.5 -88t-14.5 -109q0 -124 1 -296t1 -204q0 -96 6.5 -314.5
t14.5 -272.5q17 -109 46.5 -188.5t50.5 -104.5l20 -25l-45 -45q-7 2 -19 8t-46.5 29.5t-66.5 54t-70 87t-65 124.5q-5 11 -14.5 59t-9.5 66z" />
    <glyph glyph-name="paragraph" unicode="&#xb6;" horiz-adv-x="1521" 
d="M1083 1866h-112q-2 -2 -15 -10t-16.5 -11.5t-9.5 -13t-10 -21.5q-21 -66 -21 -847q0 -60 4 -425t4 -417q0 -14 13.5 -25t29.5 -17t31 -17t18 -25q4 -29 0 -37q-4 -7 -21 -11t-32 -5h-14q-17 -1 -57 7.5t-64 8.5q-22 0 -63 -9.5t-70 -6.5q-5 1 -20 1t-27 1.5t-17 5.5
q-38 30 -16 55q13 12 34 21t36 19t20 28q11 36 15.5 216.5t5 400.5t0.5 224q0 61 -4.5 430t-4.5 420q0 14 -8.5 23.5t-24.5 19.5t-22 15h-129q-47 0 -86 -17t-62.5 -43t-39.5 -59.5t-22.5 -63.5t-6.5 -57q0 -153 32.5 -288t114.5 -271q20 -33 51.5 -71.5t61.5 -71t57.5 -60
t44.5 -43.5l17 -16l-29 -31q-145 85 -244 157.5t-175 155t-112 173t-36 196.5q0 79 13.5 146.5t48 132.5t89 110.5t142.5 73t203 27.5h598h63h133q3 0 19 -0.5t27.5 -3t17.5 -7.5q38 -29 14 -53q-10 -10 -45.5 -27.5t-42.5 -42.5q-21 -66 -21 -847q0 -60 4.5 -425t4.5 -417
q0 -14 13.5 -25t29.5 -17t31 -17t18 -25q4 -29 0 -37q-4 -7 -21 -11t-32 -5h-15q-17 -1 -57 7.5t-64 8.5q-22 0 -63 -9.5t-70 -6.5h-4l-1 1q11 0 3 7q-38 30 -16 55q12 11 16.5 18.5t5 11.5t1.5 15t5 23q11 36 15.5 216.5t5 400.5t0.5 224q0 61 -4 430t-4 420q0 15 -9 24.5
t-26.5 19.5t-24.5 16z" />
    <glyph glyph-name="periodcentered" unicode="&#xb7;" horiz-adv-x="415" 
d="M334 846q0 -40 -23 -84h-2q-3 0 -12 -8t-20 -17.5t-15 -11.5q-71 -37 -100 -37q-80 0 -80 88q0 15 4.5 28t13.5 29t13 25q2 4 2.5 16t7.5 19q15 15 28 24t28.5 13.5t24.5 6t30.5 3t31.5 2.5q33 1 50.5 -28t17.5 -68z" />
    <glyph glyph-name="cedilla" unicode="&#xb8;" horiz-adv-x="413" 
d="M293 -238q-17 -42 -100 -77t-157 -49l-75 -15l12 60q19 4 47.5 11t80.5 28.5t61 41.5q13 31 3 67t-28 64t-29 62.5t1 62.5l59 123l78 -32q-27 -55 -35 -78q-10 -23 -0.5 -48.5t28.5 -47.5t36.5 -50.5t25 -56.5t-7.5 -66z" />
    <glyph glyph-name="onesuperior" unicode="&#xb9;" horiz-adv-x="444" 
d="M532 838q8 -8 10 -16t-2.5 -15.5t-9 -12.5t-12.5 -12q-5 -4 -17 -5.5t-26.5 -1.5t-19.5 -1q-29 -4 -70.5 6.5t-62.5 10.5q-24 0 -64.5 -9t-56.5 -8q-58 1 -68 17q-4 8 0 36q3 14 18 25t31 17t29.5 17t13.5 25q0 51 4 284t4 294q-1 89 -4.5 224.5t-3.5 314.5q0 51 -10 61
q-3 2 -24 -1t-38.5 -0.5t-17.5 17.5q-1 9 3.5 15.5t14 14t13.5 11.5q35 40 72 68q14 10 23.5 17t24.5 17t25.5 16.5t24 14.5t23 12t19.5 7t17 2t11 -6q47 -54 38 -70q-22 -43 -22 -196q0 -124 1 -315.5t1 -223.5v-67.5v-109t1 -118.5t3 -124.5t6 -98t10 -66.5
q5 -18 20 -27.5t35.5 -18.5t32.5 -21z" />
    <glyph glyph-name="ordmasculine" unicode="&#xba;" horiz-adv-x="471" 
d="M297 1817q-2 19 -4.5 30.5t-8.5 25.5t-18 21t-30 7q-34 0 -46 -23t-14 -61q-1 -8 -2 -26t-2 -26q-6 -88 18 -189t46 -101q15 0 31.5 44t26.5 113.5t5 132.5q0 8 -1 26t-1 26zM236 1411q-12 0 -38 25t-53.5 64t-46.5 98t-16 118q2 41 9 76.5t23 72.5t47 59t75 22t76 -23
t48 -60t23.5 -74t7.5 -75q0 -61 -19.5 -120.5t-46.5 -97.5t-51.5 -61.5t-37.5 -23.5z" />
    <glyph glyph-name="guillemotright" unicode="&#xbb;" horiz-adv-x="1062" 
d="M612 510l-458 -514l-70 12l375 498q-8 7 -41 37.5t-59.5 54.5t-65.5 60t-69 65t-59 58t-47 49.5t-22 29.5q-20 46 -13 73t34 32q13 2 27 0t32 -6t27 -5q4 -1 106.5 -112t202.5 -222zM981 510l-459 -514l-69 12l374 498q-5 5 -41 37.5t-60 54.5t-64.5 60t-69 65.5
t-58.5 57t-47.5 50t-21.5 29.5q-20 46 -13 73t33 32q13 2 27 0t32 -6t27 -5q4 -1 106.5 -112t202.5 -222z" />
    <glyph glyph-name="onequarter" unicode="&#xbc;" horiz-adv-x="1132" 
d="M1440 -440q7 -8 8.5 -15.5t-4 -15.5t-9 -11.5t-12.5 -11.5q-5 -5 -16.5 -7t-27 -2t-19.5 -1q-27 -3 -58 7t-55 10t-64 -9t-57 -8q-57 1 -67 17q-4 8 0 36q3 14 18 25t31 17t29.5 17t13.5 25q0 41 4 369h-606l-57 29q10 18 26 53.5t57 157.5t70 258q4 21 18.5 86t18 82.5
t13.5 70t12.5 75t7.5 69t5.5 80.5t0 80t-3.5 96h28q131 0 140 -60q11 -57 -2.5 -177.5t-32 -215t-53.5 -264.5q-8 -36 -14.5 -79t-18.5 -87t-45 -137q-3 -8 135.5 -10t302.5 2q0 79 1 204t1 138q0 50 -4 308t-4 445q0 55 -10 62q-5 4 -25.5 7.5t-25.5 8.5q-19 22 -19 43
q0 16 15.5 27t40.5 21t36 18q148 106 172 82q50 -50 39 -72q-47 -103 -47 -197q0 -123 1 -422.5t1 -330.5v-338l146 4l12 -117h-156q4 -326 19 -373q7 -25 43 -42t47 -27zM555 838q8 -8 10 -16t-2.5 -15.5t-9 -12.5t-12.5 -12q-5 -4 -17 -5.5t-27 -1.5t-20 -1
q-29 -4 -70.5 6.5t-62.5 10.5q-24 0 -64.5 -9t-56.5 -8q-57 1 -67 17q-4 8 0 36q3 14 18 25t31 17t29.5 17t13.5 25q0 51 4 284t4 294q-1 89 -4.5 224.5t-3.5 314.5q0 51 -10 61q-3 2 -24 -1t-38.5 -0.5t-17.5 17.5q-1 9 3.5 15.5t13.5 14t13 11.5q35 40 72 68
q14 10 23.5 17t24.5 17t25.5 16.5t24 14.5t23 12t19.5 7t17 2t11 -6q48 -55 39 -70q-23 -45 -23 -196q0 -124 1 -315.5t1 -223.5q0 -517 21 -584q5 -18 20 -27.5t35.5 -18.5t32.5 -21zM913 1690q17 -3 -174.5 -440.5t-391.5 -873.5l-200 -437l-45 41q578 1474 625 1656
q5 21 13.5 35.5t22 21.5t23.5 11t30 2t30.5 -3t34.5 -6.5t32 -6.5z" />
    <glyph glyph-name="onehalf" unicode="&#xbd;" horiz-adv-x="1175" 
d="M1446 133q0 -28 -0.5 -42.5t-4.5 -37.5t-12.5 -35t-24.5 -21t-40 -9h-711l-24 -13l-35 125q13 14 34.5 38.5t85 100.5t121 152.5t127.5 183t120.5 202.5t85 201t34.5 189q0 228 -141 228q-45 0 -99.5 -36.5t-104 -92.5t-86.5 -106.5t-64 -96.5q-27 8 -44.5 80.5
t-17.5 116.5q0 39 69.5 95.5t151.5 96t121 39.5q110 0 187 -25.5t118.5 -71.5t63.5 -110.5t21 -142t-9 -166.5q-7 -65 -83.5 -196.5t-189.5 -284t-190.5 -252.5t-142.5 -179h342q58 1 107.5 47t75.5 101t47.5 101t29.5 46q19 0 50.5 -99.5t31.5 -125.5zM532 838q8 -8 10 -16
t-2.5 -15.5t-9 -12.5t-12.5 -12q-5 -4 -17 -5.5t-26.5 -1.5t-19.5 -1q-29 -4 -70.5 6.5t-62.5 10.5q-24 0 -64.5 -9t-56.5 -8q-58 1 -68 17q-4 8 0 36q3 14 18 25t31 17t29.5 17t13.5 25q0 51 4 284t4 294q-1 89 -4.5 224.5t-3.5 314.5q0 51 -10 61q-3 2 -24 -1t-38.5 -0.5
t-17.5 17.5q-1 9 3.5 15.5t14 14t13.5 11.5q35 40 72 68q14 10 23.5 17t24.5 17t25.5 16.5t24 14.5t23 12t19.5 7t17 2t11 -6q47 -54 38 -70q-22 -43 -22 -196q0 -124 1 -315.5t1 -223.5v-67.5v-109t1 -118.5t3 -124.5t6 -98t10 -66.5q5 -18 20 -27.5t35.5 -18.5t32.5 -21z
M915 1690q17 -3 -174 -440.5t-391 -873.5l-200 -437l-46 41q578 1474 625 1656q5 21 13.5 35.5t22 21.5t23.5 11t30 2t30.5 -3t34.5 -6.5t32 -6.5z" />
    <glyph glyph-name="threequarters" unicode="&#xbe;" horiz-adv-x="1406" 
d="M918 1978q0 -114 -21 -208.5t-54 -161t-85.5 -125t-102.5 -97t-118 -79.5l20 -7q9 -2 24.5 -5t60.5 -16t86 -29.5t90.5 -46t84.5 -64t58.5 -85.5t21.5 -108q-2 -62 -68.5 -150.5t-162.5 -175.5t-215.5 -178.5t-217.5 -158.5t-180 -117l-26 47q90 67 155 118t146 118.5
t137 125t106 119.5t75.5 120.5t25.5 111.5q0 48 -23.5 90.5t-59 70.5t-77 49t-78.5 30.5t-63 9.5q-9 0 -51 -13.5t-58 -15.5l-29 45q10 20 29 43l-6 8q124 90 193.5 156t115 151.5t60 180.5t14.5 245q0 240 -168 240q-71 0 -106 -12q-45 -16 -83.5 -64t-59 -95.5t-38 -85.5
t-24.5 -38q-19 0 -50.5 99.5t-31.5 125.5q0 28 0.5 43t5 38.5t12.5 35.5t24 21.5t40 9.5h248h9q63 0 92 -0.5t76 -2.5t66.5 -5.5t52 -11.5t44.5 -19.5t31.5 -29t25.5 -40t14.5 -53.5t10.5 -68.5t2 -85.5zM1712 -440q7 -8 8.5 -15.5t-3.5 -15t-9 -12t-12 -11.5q-5 -5 -17 -7
t-27.5 -2t-19.5 -1q-27 -3 -57.5 7t-54.5 10t-64 -9t-57 -8q-58 1 -68 17q-4 8 0 36q3 14 18 25t31 17t29.5 17t13.5 25q0 41 4 369h-606l-57 29q10 18 26.5 53.5t57.5 157.5t70 258q4 19 16.5 77t16 74.5t13 63.5t11.5 66.5t8 61t7 68.5t2.5 66.5t0.5 78.5t-4 83h29
q130 0 139 -60q11 -57 -2.5 -177.5t-32 -215t-53.5 -264.5q-8 -36 -14.5 -79t-18.5 -87t-45 -137q-3 -8 136 -10t303 2q0 79 1 204t1 138q-1 64 -5 316t-4 437q0 55 -10 62q-5 4 -25.5 7.5t-25.5 8.5q-19 22 -19 43q0 16 15.5 27t41 21t36.5 18q148 106 172 82
q50 -50 39 -72q-48 -105 -48 -197q0 -123 1.5 -422.5t1.5 -330.5v-338l145 4l12 -117h-155q4 -329 18 -373q7 -25 43 -42t47 -27zM1188 1690q17 -3 -174.5 -440.5t-391.5 -873.5l-200 -437l-45 41q577 1474 624 1656q5 21 13.5 35.5t22 21.5t24 11t30.5 2l30 -3t34.5 -6.5
t32.5 -6.5z" />
    <glyph glyph-name="questiondown" unicode="&#xbf;" horiz-adv-x="966" 
d="M551 139q0 -43 -21 -84h-4q-3 0 -22.5 -17.5t-22.5 -19.5q-69 -36 -102 -36q-80 0 -80 88q0 15 4.5 28t13.5 29t13 25q2 4 2.5 15.5t7.5 18.5q15 15 28 24t29 14t24.5 6.5t30.5 3t31 2.5q33 1 50.5 -28.5t17.5 -68.5zM885 1569q0 -62 -22.5 -124t-58 -114.5t-79 -106
t-87 -107.5t-79 -109.5t-58 -122t-22.5 -135.5q0 -70 -7 -150t-14 -125l-7 -45h-54q-53 365 -53 496q0 68 33 134t79.5 122t93 114.5t79.5 136t33 162.5q0 76 -10 129t-25 82.5t-40.5 45.5t-48.5 20t-57 4q-56 0 -115 -58.5t-97.5 -129t-69.5 -129t-37 -58.5q-26 0 -53 93
t-27 137q0 41 61 101t136.5 103t117.5 43q127 0 238.5 -52t180.5 -147t69 -210z" />
    <glyph glyph-name="Agrave" unicode="&#xc0;" horiz-adv-x="1228" 
d="M1198 10q-4 -8 -21 -12.5t-32 -5.5h-15q-17 0 -56.5 8.5t-63.5 9.5q-23 0 -64 -10t-69 -8q-4 0 -19.5 1t-27.5 3t-17 6q-39 30 -14 55q12 12 32.5 20.5t35.5 18.5t20 29q11 35 11.5 78.5t-4 98.5t-3.5 87v66q-5 2 -19.5 7t-26 8t-22.5 3l-13 1q-12 2 -33.5 4.5t-49 5
t-65.5 4t-76 1.5q-39 0 -78 -1.5t-67 -4t-50 -5t-35 -4t-14 -1.5v-70q-1 -65 2.5 -146.5t3.5 -125.5q0 -15 13.5 -26.5t30 -17t31.5 -16t17 -24.5q4 -29 0 -37t-21 -12.5t-31 -5.5h-15q-16 0 -55.5 8.5t-65.5 9.5q-24 0 -64 -10t-67 -8q-4 0 -20.5 1t-28 3t-17.5 6
q-8 7 -12.5 11.5t-9 12t-2.5 15.5t10 16q12 12 32.5 20.5t35.5 18.5t20 29q6 19 10 43.5t6.5 42t3.5 50.5t1 45v51.5v45.5l6 410q1 125 31.5 267t77 265.5t102 239.5t107 198t92 131.5t57.5 49.5t57.5 -49.5t92 -131.5t107 -198t102 -239.5t77 -265.5t31.5 -267l4 -412
q1 -57 6.5 -136.5t5.5 -133.5q0 -15 13.5 -26.5t29.5 -17t31 -16t18 -24.5q4 -29 0 -37zM866 567h25v230q-1 134 -53.5 375.5t-117 429.5t-97.5 188q-34 0 -100.5 -188.5t-120.5 -430t-56 -374.5l-2 -230h242h280zM938 2038l-62 -18q-20 12 -53 33.5t-118.5 82t-152.5 114.5
t-126.5 117.5t-69.5 104.5q-4 17 -5 29.5t3 20t9 12.5t15 6.5t18.5 1.5t22 -2t24 -4t26 -5.5t24.5 -5.5q17 -3 128.5 -124.5t214.5 -242.5z" />
    <glyph glyph-name="Aacute" unicode="&#xc1;" horiz-adv-x="1228" 
d="M1198 10q-4 -8 -21 -12.5t-32 -5.5h-15q-17 0 -56.5 8.5t-63.5 9.5q-23 0 -64 -10t-69 -8q-4 0 -19.5 1t-27.5 3t-17 6q-39 30 -14 55q12 12 32.5 20.5t35.5 18.5t20 29q11 35 11.5 78.5t-4 98.5t-3.5 87v66q-5 2 -19.5 7t-26 8t-22.5 3l-13 1q-12 2 -33.5 4.5t-49 5
t-65.5 4t-76 1.5q-39 0 -78 -1.5t-67 -4t-50 -5t-35 -4t-14 -1.5v-70q-1 -65 2.5 -146.5t3.5 -125.5q0 -15 13.5 -26.5t30 -17t31.5 -16t17 -24.5q4 -29 0 -37t-21 -12.5t-31 -5.5h-15q-16 0 -55.5 8.5t-65.5 9.5q-24 0 -64 -10t-67 -8q-4 0 -20.5 1t-28 3t-17.5 6
q-8 7 -12.5 11.5t-9 12t-2.5 15.5t10 16q12 12 32.5 20.5t35.5 18.5t20 29q6 19 10 43.5t6.5 42t3.5 50.5t1 45v51.5v45.5l6 410q1 125 31.5 267t77 265.5t102 239.5t107 198t92 131.5t57.5 49.5t57.5 -49.5t92 -131.5t107 -198t102 -239.5t77 -265.5t31.5 -267l4 -412
q1 -57 6.5 -136.5t5.5 -133.5q0 -15 13.5 -26.5t29.5 -17t31 -16t18 -24.5q4 -29 0 -37zM866 567h25v230q-1 134 -53.5 375.5t-117 429.5t-97.5 188q-34 0 -100.5 -188.5t-120.5 -430t-56 -374.5l-2 -230h242h280zM895 2468q17 -4 -123 -114t-289 -218l-149 -108l-47 27
q339 296 448 407q27 26 47.5 33.5t32.5 2.5t35 -15.5t45 -14.5z" />
    <glyph glyph-name="Acircumflex" unicode="&#xc2;" horiz-adv-x="1228" 
d="M1198 10q-4 -8 -21 -12.5t-32 -5.5h-15q-17 0 -56.5 8.5t-63.5 9.5q-23 0 -64 -10t-69 -8q-4 0 -19.5 1t-27.5 3t-17 6q-39 30 -14 55q12 12 32.5 20.5t35.5 18.5t20 29q11 35 11.5 78.5t-4 98.5t-3.5 87v66q-5 2 -19.5 7t-26 8t-22.5 3l-13 1q-12 2 -33.5 4.5t-49 5
t-65.5 4t-76 1.5q-39 0 -78 -1.5t-67 -4t-50 -5t-35 -4t-14 -1.5v-70q-1 -65 2.5 -146.5t3.5 -125.5q0 -15 13.5 -26.5t30 -17t31.5 -16t17 -24.5q4 -29 0 -37t-21 -12.5t-31 -5.5h-15q-16 0 -55.5 8.5t-65.5 9.5q-24 0 -64 -10t-67 -8q-4 0 -20.5 1t-28 3t-17.5 6
q-8 7 -12.5 11.5t-9 12t-2.5 15.5t10 16q12 12 32.5 20.5t35.5 18.5t20 29q6 19 10 43.5t6.5 42t3.5 50.5t1 45v51.5v45.5l6 410q1 125 31.5 267t77 265.5t102 239.5t107 198t92 131.5t57.5 49.5t57.5 -49.5t92 -131.5t107 -198t102 -239.5t77 -265.5t31.5 -267l4 -412
q1 -57 6.5 -136.5t5.5 -133.5q0 -15 13.5 -26.5t29.5 -17t31 -16t18 -24.5q4 -29 0 -37zM866 567h25v230q-1 134 -53.5 375.5t-117 429.5t-97.5 188q-34 0 -100.5 -188.5t-120.5 -430t-56 -374.5l-2 -230h242h280zM821 2296q17 -28 34 -66t28.5 -73.5t20 -69t8 -51
t-6.5 -19.5q-8 0 -35.5 36.5t-69.5 92.5t-73 88l-109 101q-65 -60 -106 -101q-31 -32 -73 -88t-69.5 -92.5t-35.5 -36.5q-7 2 -6.5 19.5t9 51t20 69t28.5 73.5t33 66q24 41 72 89.5t84 76.5l36 28q17 -11 44 -30.5t84 -70.5t83 -93z" />
    <glyph glyph-name="Atilde" unicode="&#xc3;" horiz-adv-x="1228" 
d="M1065 2406l37 -34q-29 -52 -70 -110t-90.5 -116.5t-103.5 -96.5t-97 -38q-31 0 -75.5 41.5t-82.5 91.5t-80 91.5t-69 41.5q-49 0 -107.5 -50.5t-97.5 -106.5q-6 -10 -17.5 -31t-19 -31.5t-14.5 -11.5l-37 33q29 52 70 110t91 116t104 96t96 38q31 0 65.5 -27.5
t65.5 -66.5t60.5 -78t60 -66.5t55.5 -27.5q80 0 192 158q47 73 64 75zM1198 10q-4 -8 -21 -12.5t-32 -5.5h-15q-17 0 -56.5 8.5t-63.5 9.5q-23 0 -64 -10t-69 -8q-4 0 -19.5 1t-27.5 3t-17 6q-39 30 -14 55q12 12 32.5 20.5t35.5 18.5t20 29q11 35 11.5 78.5t-4 98.5
t-3.5 87v66q-5 2 -19.5 7t-26 8t-22.5 3l-13 1q-12 2 -33.5 4.5t-49 5t-65.5 4t-76 1.5q-39 0 -78 -1.5t-67 -4t-50 -5t-35 -4t-14 -1.5v-70q-1 -65 2.5 -146.5t3.5 -125.5q0 -15 13.5 -26.5t30 -17t31.5 -16t17 -24.5q4 -29 0 -37t-21 -12.5t-31 -5.5h-15q-16 0 -55.5 8.5
t-65.5 9.5q-24 0 -64 -10t-67 -8q-4 0 -20.5 1t-28 3t-17.5 6q-8 7 -12.5 11.5t-9 12t-2.5 15.5t10 16q12 12 32.5 20.5t35.5 18.5t20 29q6 19 10 43.5t6.5 42t3.5 50.5t1 45v51.5v45.5l6 410q1 125 31.5 267t77 265.5t102 239.5t107 198t92 131.5t57.5 49.5t57.5 -49.5
t92 -131.5t107 -198t102 -239.5t77 -265.5t31.5 -267l4 -412q1 -57 6.5 -136.5t5.5 -133.5q0 -15 13.5 -26.5t29.5 -17t31 -16t18 -24.5q4 -29 0 -37zM866 567h25v230q-1 134 -53.5 375.5t-117 429.5t-97.5 188q-34 0 -100.5 -188.5t-120.5 -430t-56 -374.5l-2 -230h242h280
z" />
    <glyph glyph-name="Adieresis" unicode="&#xc4;" horiz-adv-x="1228" 
d="M1198 10q-4 -8 -21 -12.5t-32 -5.5h-15q-17 0 -56.5 8.5t-63.5 9.5q-23 0 -64 -10t-69 -8q-4 0 -19.5 1t-27.5 3t-17 6q-39 30 -14 55q12 12 32.5 20.5t35.5 18.5t20 29q11 35 11.5 78.5t-4 98.5t-3.5 87v66q-5 2 -19.5 7t-26 8t-22.5 3l-13 1q-12 2 -33.5 4.5t-49 5
t-65.5 4t-76 1.5q-39 0 -78 -1.5t-67 -4t-50 -5t-35 -4t-14 -1.5v-70q-1 -65 2.5 -146.5t3.5 -125.5q0 -15 13.5 -26.5t30 -17t31.5 -16t17 -24.5q4 -29 0 -37t-21 -12.5t-31 -5.5h-15q-16 0 -55.5 8.5t-65.5 9.5q-24 0 -64 -10t-67 -8q-4 0 -20.5 1t-28 3t-17.5 6
q-8 7 -12.5 11.5t-9 12t-2.5 15.5t10 16q12 12 32.5 20.5t35.5 18.5t20 29q6 19 10 43.5t6.5 42t3.5 50.5t1 45v51.5v45.5l6 410q1 125 31.5 267t77 265.5t102 239.5t107 198t92 131.5t57.5 49.5t57.5 -49.5t92 -131.5t107 -198t102 -239.5t77 -265.5t31.5 -267l4 -412
q1 -57 6.5 -136.5t5.5 -133.5q0 -15 13.5 -26.5t29.5 -17t31 -16t18 -24.5q4 -29 0 -37zM866 567h25v230q-1 134 -53.5 375.5t-117 429.5t-97.5 188q-34 0 -100.5 -188.5t-120.5 -430t-56 -374.5l-2 -230h242h280zM951 2244q0 -40 -23 -84h-2q-3 0 -12 -7.5t-20 -17
t-15 -11.5q-71 -37 -100 -37q-80 0 -80 88q0 15 4.5 28t13 29t12.5 25q2 4 3 16t8 19q15 15 28 24t28.5 13.5t24.5 6t30.5 3t31.5 2.5q33 1 50.5 -28.5t17.5 -68.5zM533 2244q0 -40 -23 -84h-2q-3 0 -12 -7.5t-20 -17t-15 -11.5q-71 -37 -100 -37q-80 0 -80 88q0 15 4.5 28
t13.5 29t13 25q2 4 2.5 16t7.5 19q15 15 28 24t28.5 13.5t24.5 6t30.5 3t31.5 2.5q33 1 50.5 -28.5t17.5 -68.5z" />
    <glyph glyph-name="Aring" unicode="&#xc5;" horiz-adv-x="1228" 
d="M817 2171q0 78 -53.5 122t-147.5 44q-95 0 -149.5 -44t-54.5 -122q0 -79 65.5 -148t138.5 -69q72 0 136.5 69t64.5 148zM918 2173q0 -103 -102 -201t-204 -98t-202.5 98t-100.5 201q0 105 88.5 179.5t214.5 74.5q127 0 216.5 -74.5t89.5 -179.5zM1198 10q-4 -8 -21 -12.5
t-32 -5.5h-15q-17 0 -56.5 8.5t-63.5 9.5q-23 0 -64 -10t-69 -8q-4 0 -19.5 1t-27.5 3t-17 6q-39 30 -14 55q12 12 32.5 20.5t35.5 18.5t20 29q11 35 11.5 78.5t-4 98.5t-3.5 87v66q-5 2 -19.5 7t-26 8t-22.5 3l-13 1q-12 2 -33.5 4.5t-49 5t-65.5 4t-76 1.5q-39 0 -78 -1.5
t-67 -4t-50 -5t-35 -4t-14 -1.5v-70q-1 -65 2.5 -146.5t3.5 -125.5q0 -15 13.5 -26.5t30 -17t31.5 -16t17 -24.5q4 -29 0 -37t-21 -12.5t-31 -5.5h-15q-16 0 -55.5 8.5t-65.5 9.5q-24 0 -64 -10t-67 -8q-4 0 -20.5 1t-28 3t-17.5 6q-8 7 -12.5 11.5t-9 12t-2.5 15.5t10 16
q12 12 32.5 20.5t35.5 18.5t20 29q6 19 10 43.5t6.5 42t3.5 50.5t1 45v51.5v45.5l6 410q1 125 31.5 267t77 265.5t102 239.5t107 198t92 131.5t57.5 49.5t57.5 -49.5t92 -131.5t107 -198t102 -239.5t77 -265.5t31.5 -267l4 -412q1 -57 6.5 -136.5t5.5 -133.5
q0 -15 13.5 -26.5t29.5 -17t31 -16t18 -24.5q4 -29 0 -37zM866 567h25v230q-1 134 -53.5 375.5t-117 429.5t-97.5 188q-34 0 -100.5 -188.5t-120.5 -430t-56 -374.5l-2 -230h242h280z" />
    <glyph glyph-name="AE" unicode="&#xc6;" horiz-adv-x="1822" 
d="M920 389v66q-54 18 -66 18l-12 1q-13 2 -34.5 4.5t-49.5 5t-66.5 4t-77.5 1.5q-38 0 -76.5 -1.5t-66.5 -4t-50 -5t-35 -4.5l-13 -1l-2 -70q-1 -64 3.5 -145t4.5 -127q0 -15 13.5 -26.5t29.5 -17t31 -16t18 -24.5q4 -29 0 -37t-21 -12.5t-32 -5.5h-15q-17 0 -56.5 8.5
t-63.5 9.5q-23 0 -64.5 -10t-68.5 -8q-4 0 -19.5 1t-27.5 3t-17 6q-38 30 -16 55q11 10 47 26.5t43 41.5q9 28 13.5 66.5t5 66t1 77t0.5 68.5l4 410q1 125 31.5 267t77 265.5t102 239.5t107 198t92 131.5t57.5 49.5q8 0 21 -10h985q23 0 39 -9.5t24 -21t12 -34.5t4.5 -38
t0.5 -43q0 -26 -30.5 -125.5t-49.5 -99.5q-8 0 -22.5 30.5t-35 73.5t-47 86.5t-67.5 74t-88 30.5h-660q92 -125 192.5 -337.5t151.5 -430.5h187h270l74 -82q4 -18 -6 -39t-21 -26q-10 -5 -41.5 9.5t-46.5 14.5l-12 3q-12 2 -32.5 5t-47 6.5t-63.5 6t-74 2.5q-77 0 -166 -13
q16 -98 16 -184l6 -412q0 -61 5.5 -140.5t5.5 -129.5q0 -15 8.5 -24.5t24.5 -18.5t22 -14h211q58 1 107.5 47t75.5 101t47.5 101t29.5 46q19 0 50.5 -100t31.5 -126q0 -27 -1 -43t-5 -38t-12.5 -34t-24.5 -21t-39 -9h-469q-6 -3 -14.5 -4.5t-13.5 -1.5h-5q-21 0 -45 6
q-46 12 -74 12q-25 0 -65.5 -10t-67.5 -8q-4 0 -20 1t-27.5 3t-17.5 6q-9 8 -13 12t-9 12t-3 15.5t10 15.5q12 12 33 20.5t36.5 18.5t21.5 29q11 36 11.5 78.5t-4.5 99t-5 86.5zM377 797l-4 -230h241h283l23 -18v248q0 134 -52.5 375.5t-117.5 429.5t-99 188t-99.5 -188.5
t-119 -430t-55.5 -374.5z" />
    <glyph glyph-name="Ccedilla" unicode="&#xc7;" horiz-adv-x="1026" 
d="M1026 1735q0 -47 -19.5 -129t-45.5 -82q-6 0 -32 36.5t-65 88.5t-84 104t-98 88.5t-98 36.5q-61 0 -110 -38t-78 -94t-48 -126.5t-26 -129.5t-7 -110q0 -304 11 -429q26 -313 149 -574q27 -56 69.5 -125t84 -127t79.5 -108t62 -79l23 -30l-37 -55q-243 195 -387.5 374.5
t-215.5 386.5t-71 465q0 55 5 119t20.5 154t40.5 173t70.5 168t104 147t147 101t194.5 39q42 0 129 -42.5t160 -102.5t73 -100zM592 -265q-17 -42 -100 -77t-157 -49l-75 -15l12 60q19 4 47.5 11t80.5 28.5t61 41.5q13 31 3 67t-28 64t-29 62.5t1 62.5l59 123l78 -32
q-27 -55 -35 -78q-10 -23 -0.5 -48.5t28.5 -47.5t36.5 -50.5t25 -56.5t-7.5 -66z" />
    <glyph glyph-name="Egrave" unicode="&#xc8;" horiz-adv-x="1085" 
d="M836 2038l-62 -19q-20 12 -53 33.5t-118.5 82.5t-152.5 115t-126.5 117.5t-69.5 104.5q-4 17 -5 29.5t3 20t9 12.5t15 6.5t18.5 1.5t22 -2t24 -4t26 -5.5t24.5 -5.5q17 -3 128.5 -124.5t214.5 -242.5zM1006 143q0 -27 -1 -43t-5 -38t-12.5 -34t-24.5 -21t-39 -9h-516h-7
h-133h-121q-57 0 -67 16q-4 8 0 37q3 14 18 25t31 17t29.5 17t13.5 25q0 51 4 417t4 427v221.5t-4.5 394t-15.5 213.5q-5 19 -20 29t-36.5 19.5t-33.5 21.5q-23 27 16 53q5 5 16.5 7.5t28 3t19.5 0.5h133h88v2h549q23 0 39 -9.5t23.5 -20.5t11.5 -34.5t4.5 -37.5t0.5 -44
q0 -26 -30 -125.5t-49 -99.5q-8 0 -22.5 30.5t-35 73.5t-47.5 86.5t-68 74t-88 30.5h-219q-4 -5 -32.5 -24t-28.5 -40q0 -25 -3 -296.5t-3 -397.5h157h271l73 -82q4 -19 -5.5 -39.5t-20.5 -25.5q-10 -5 -41.5 9.5t-46.5 14.5l-12 3q-12 2 -33 5t-47.5 6.5t-63.5 6t-74 2.5
q-70 0 -159 -13v-18v-70.5v-125.5v-150.5t1.5 -165.5t3.5 -148t6 -122.5t9 -65.5q4 -13 10 -22.5t10.5 -13t15.5 -10.5t17 -11h220q58 1 107.5 47t75.5 101t47.5 101t29.5 46q19 0 50.5 -100t31.5 -126z" />
    <glyph glyph-name="Eacute" unicode="&#xc9;" horiz-adv-x="1085" 
d="M1006 143q0 -27 -1 -43t-5 -38t-12.5 -34t-24.5 -21t-39 -9h-516h-7h-133h-121q-57 0 -67 16q-4 8 0 37q3 14 18 25t31 17t29.5 17t13.5 25q0 51 4 417t4 427v221.5t-4.5 394t-15.5 213.5q-5 19 -20 29t-36.5 19.5t-33.5 21.5q-23 27 16 53q5 5 16.5 7.5t28 3t19.5 0.5
h133h88v2h549q23 0 39 -9.5t23.5 -20.5t11.5 -34.5t4.5 -37.5t0.5 -44q0 -26 -30 -125.5t-49 -99.5q-8 0 -22.5 30.5t-35 73.5t-47.5 86.5t-68 74t-88 30.5h-219q-4 -5 -32.5 -24t-28.5 -40q0 -25 -3 -296.5t-3 -397.5h157h271l73 -82q4 -19 -5.5 -39.5t-20.5 -25.5
q-10 -5 -41.5 9.5t-46.5 14.5l-12 3q-12 2 -33 5t-47.5 6.5t-63.5 6t-74 2.5q-70 0 -159 -13v-18v-70.5v-125.5v-150.5t1.5 -165.5t3.5 -148t6 -122.5t9 -65.5q4 -13 10 -22.5t10.5 -13t15.5 -10.5t17 -11h220q58 1 107.5 47t75.5 101t47.5 101t29.5 46q19 0 50.5 -100
t31.5 -126zM874 2468q17 -4 -123 -114t-289 -218l-149 -108l-47 27q339 296 448 407q27 26 47.5 33.5t32.5 2.5t35 -15.5t45 -14.5z" />
    <glyph glyph-name="Ecircumflex" unicode="&#xca;" horiz-adv-x="1085" 
d="M760 2296q17 -28 34 -66t28.5 -73.5t20 -69t8 -51t-6.5 -19.5q-8 0 -35.5 36.5t-69.5 92.5t-73 88l-109 101q-65 -60 -106 -101q-31 -32 -73 -88t-70 -92.5t-36 -36.5q-7 2 -6.5 19.5t9 51t20 69t28.5 73.5t33 66q24 41 72.5 89.5t84.5 76.5l36 28q17 -11 44 -30.5
t84 -70.5t83 -93zM1006 143q0 -27 -1 -43t-5 -38t-12.5 -34t-24.5 -21t-39 -9h-516h-7h-133h-121q-57 0 -67 16q-4 8 0 37q3 14 18 25t31 17t29.5 17t13.5 25q0 51 4 417t4 427v221.5t-4.5 394t-15.5 213.5q-5 19 -20 29t-36.5 19.5t-33.5 21.5q-23 27 16 53q5 5 16.5 7.5
t28 3t19.5 0.5h133h88v2h549q23 0 39 -9.5t23.5 -20.5t11.5 -34.5t4.5 -37.5t0.5 -44q0 -26 -30 -125.5t-49 -99.5q-8 0 -22.5 30.5t-35 73.5t-47.5 86.5t-68 74t-88 30.5h-219q-4 -5 -32.5 -24t-28.5 -40q0 -25 -3 -296.5t-3 -397.5h157h271l73 -82q4 -19 -5.5 -39.5
t-20.5 -25.5q-10 -5 -41.5 9.5t-46.5 14.5l-12 3q-12 2 -33 5t-47.5 6.5t-63.5 6t-74 2.5q-70 0 -159 -13v-18v-70.5v-125.5v-150.5t1.5 -165.5t3.5 -148t6 -122.5t9 -65.5q4 -13 10 -22.5t10.5 -13t15.5 -10.5t17 -11h220q58 1 107.5 47t75.5 101t47.5 101t29.5 46
q19 0 50.5 -100t31.5 -126z" />
    <glyph glyph-name="Edieresis" unicode="&#xcb;" horiz-adv-x="1085" 
d="M1006 143q0 -27 -1 -43t-5 -38t-12.5 -34t-24.5 -21t-39 -9h-516h-7h-133h-121q-57 0 -67 16q-4 8 0 37q3 14 18 25t31 17t29.5 17t13.5 25q0 51 4 417t4 427v221.5t-4.5 394t-15.5 213.5q-5 19 -20 29t-36.5 19.5t-33.5 21.5q-23 27 16 53q5 5 16.5 7.5t28 3t19.5 0.5
h133h88v2h549q23 0 39 -9.5t23.5 -20.5t11.5 -34.5t4.5 -37.5t0.5 -44q0 -26 -30 -125.5t-49 -99.5q-8 0 -22.5 30.5t-35 73.5t-47.5 86.5t-68 74t-88 30.5h-219q-4 -5 -32.5 -24t-28.5 -40q0 -25 -3 -296.5t-3 -397.5h157h271l73 -82q4 -19 -5.5 -39.5t-20.5 -25.5
q-10 -5 -41.5 9.5t-46.5 14.5l-12 3q-12 2 -33 5t-47.5 6.5t-63.5 6t-74 2.5q-70 0 -159 -13v-18v-70.5v-125.5v-150.5t1.5 -165.5t3.5 -148t6 -122.5t9 -65.5q4 -13 10 -22.5t10.5 -13t15.5 -10.5t17 -11h220q58 1 107.5 47t75.5 101t47.5 101t29.5 46q19 0 50.5 -100
t31.5 -126zM889 2244q0 -40 -23 -84h-2q-3 0 -12 -7.5t-20 -17t-15 -11.5q-71 -37 -100 -37q-80 0 -80 88q0 15 4.5 28t13 29t12.5 25q2 4 3 16t8 19q15 15 28 24t28.5 13.5t24.5 6t30.5 3t31.5 2.5q33 1 50.5 -28.5t17.5 -68.5zM471 2244q0 -40 -23 -84h-2q-3 0 -12 -7.5
t-20 -17t-15 -11.5q-71 -37 -100 -37q-80 0 -80 88q0 15 4.5 28t13.5 29t13 25q2 4 2.5 16t7.5 19q15 15 28 24t28.5 13.5t24.5 6t30.5 3t31.5 2.5q33 1 50.5 -28.5t17.5 -68.5z" />
    <glyph glyph-name="Igrave" unicode="&#xcc;" horiz-adv-x="550" 
d="M569 2038l-61 -19q-20 12 -53 33.5t-118.5 82.5t-152.5 115t-126.5 117.5t-69.5 104.5q-4 17 -5 29.5t3 20t9 12.5t15 6.5t18.5 1.5t22 -2t24 -4t26 -5.5t24.5 -5.5q17 -3 128 -124.5t213 -242.5zM479 47q8 -8 10 -16t-2.5 -15.5t-9 -12t-12.5 -11.5q-5 -4 -17 -5.5
t-27 -1.5t-20 -1q-29 -4 -70.5 6t-62.5 10q-24 0 -64.5 -8.5t-56.5 -7.5q-57 0 -67 16q-4 8 0 37q3 14 18 25t31 17t29.5 17t13.5 25q0 52 4 417t4 425v227t-4.5 402.5t-15.5 217.5q-5 19 -20 29t-36.5 19.5t-33.5 21.5q-23 27 16 53q5 5 16.5 7.5t28 3t19.5 0.5
q28 3 68.5 -7.5t64.5 -9.5q24 0 63.5 9t56.5 8q58 -1 68 -17q4 -8 0 -37q-3 -14 -18 -25t-31 -17t-29.5 -17t-13.5 -25q0 -51 -4 -416.5t-4 -426.5v-69.5v-125.5v-150t1.5 -165.5t3.5 -148.5t6 -123t9 -66q5 -18 20 -28t35.5 -19t32.5 -21z" />
    <glyph glyph-name="Iacute" unicode="&#xcd;" horiz-adv-x="550" 
d="M479 47q8 -8 10 -16t-2.5 -15.5t-9 -12t-12.5 -11.5q-5 -4 -17 -5.5t-27 -1.5t-20 -1q-29 -4 -70.5 6t-62.5 10q-24 0 -64.5 -8.5t-56.5 -7.5q-57 0 -67 16q-4 8 0 37q3 14 18 25t31 17t29.5 17t13.5 25q0 52 4 417t4 425v227t-4.5 402.5t-15.5 217.5q-5 19 -20 29
t-36.5 19.5t-33.5 21.5q-23 27 16 53q5 5 16.5 7.5t28 3t19.5 0.5q28 3 68.5 -7.5t64.5 -9.5q24 0 63.5 9t56.5 8q58 -1 68 -17q4 -8 0 -37q-3 -14 -18 -25t-31 -17t-29.5 -17t-13.5 -25q0 -51 -4 -416.5t-4 -426.5v-69.5v-125.5v-150t1.5 -165.5t3.5 -148.5t6 -123t9 -66
q5 -18 20 -28t35.5 -19t32.5 -21zM588 2468q17 -4 -123 -114t-289 -218l-149 -108l-47 27q339 296 448 407q27 26 47.5 33.5t32.5 2.5t35 -15.5t45 -14.5z" />
    <glyph glyph-name="Icircumflex" unicode="&#xce;" horiz-adv-x="550" 
d="M473 2296q17 -28 34 -66t28.5 -73.5t20 -69t8 -51t-6.5 -19.5q-8 0 -35.5 36.5t-69.5 92.5t-73 88l-109 101q-65 -60 -106 -101q-31 -32 -73 -88t-69.5 -92.5t-35.5 -36.5q-7 2 -6.5 19.5t9 51t20 69t28.5 73.5t33 66q24 41 72 89.5t84 76.5l36 28q17 -11 44 -30.5
t84 -70.5t83 -93zM479 47q8 -8 10 -16t-2.5 -15.5t-9 -12t-12.5 -11.5q-5 -4 -17 -5.5t-27 -1.5t-20 -1q-29 -4 -70.5 6t-62.5 10q-24 0 -64.5 -8.5t-56.5 -7.5q-57 0 -67 16q-4 8 0 37q3 14 18 25t31 17t29.5 17t13.5 25q0 52 4 417t4 425v227t-4.5 402.5t-15.5 217.5
q-5 19 -20 29t-36.5 19.5t-33.5 21.5q-23 27 16 53q5 5 16.5 7.5t28 3t19.5 0.5q28 3 68.5 -7.5t64.5 -9.5q24 0 63.5 9t56.5 8q58 -1 68 -17q4 -8 0 -37q-3 -14 -18 -25t-31 -17t-29.5 -17t-13.5 -25q0 -51 -4 -416.5t-4 -426.5v-69.5v-125.5v-150t1.5 -165.5t3.5 -148.5
t6 -123t9 -66q5 -18 20 -28t35.5 -19t32.5 -21z" />
    <glyph glyph-name="Idieresis" unicode="&#xcf;" horiz-adv-x="550" 
d="M479 47q8 -8 10 -16t-2.5 -15.5t-9 -12t-12.5 -11.5q-5 -4 -17 -5.5t-27 -1.5t-20 -1q-29 -4 -70.5 6t-62.5 10q-24 0 -64.5 -8.5t-56.5 -7.5q-57 0 -67 16q-4 8 0 37q3 14 18 25t31 17t29.5 17t13.5 25q0 52 4 417t4 425v227t-4.5 402.5t-15.5 217.5q-5 19 -20 29
t-36.5 19.5t-33.5 21.5q-23 27 16 53q5 5 16.5 7.5t28 3t19.5 0.5q28 3 68.5 -7.5t64.5 -9.5q24 0 63.5 9t56.5 8q58 -1 68 -17q4 -8 0 -37q-3 -14 -18 -25t-31 -17t-29.5 -17t-13.5 -25q0 -51 -4 -416.5t-4 -426.5v-69.5v-125.5v-150t1.5 -165.5t3.5 -148.5t6 -123t9 -66
q5 -18 20 -28t35.5 -19t32.5 -21zM602 2244q0 -40 -23 -84h-2q-3 0 -12 -7.5t-20 -17t-15 -11.5q-71 -37 -100 -37q-80 0 -80 88q0 15 4.5 28t13 29t12.5 25q2 4 3 16t8 19q15 15 28 24t28.5 13.5t24.5 6t30.5 3t31.5 2.5q33 1 50.5 -28.5t17.5 -68.5zM184 2244
q0 -40 -23 -84h-2q-3 0 -12 -7.5t-20 -17t-15 -11.5q-71 -37 -100 -37q-80 0 -80 88q0 15 4.5 28t13.5 29t13 25q2 4 2.5 16t7.5 19q15 15 28 24t28.5 13.5t24.5 6t30.5 3t31.5 2.5q33 1 50.5 -28.5t17.5 -68.5z" />
    <glyph glyph-name="Eth" unicode="&#xd0;" horiz-adv-x="1232" 
d="M524 901l70 -113q12 -20 0 -50.5t-25 -41.5q-10 -7 -39 14t-45 21l-5 2q-6 2 -16 4.5t-23 6t-31.5 7t-38.5 5.5q0 -557 20 -623q3 -10 6.5 -16.5t8.5 -12t8 -8t11 -7.5t11 -7q45 16 86 37.5t71 42t58.5 48t46 47.5t37.5 49t29 44.5t24 42t19 33.5q58 99 84.5 396
t26.5 608q0 50 -7 102t-26 111t-47.5 104.5t-77 75.5t-109.5 30h-231q-1 -1 -6.5 -4t-7 -4l-6 -4t-6 -4.5t-5 -4.5t-4.5 -5.5t-3 -6t-2.5 -7t-0.5 -7.5q0 -51 -4 -407.5t-4 -417.5v-80h153zM12 901h166q2 35 2 80v69v122.5v146.5t-1.5 161.5t-3.5 145t-6 120t-9 64.5
q-5 19 -20 29t-36.5 19.5t-33.5 21.5q-23 27 16 53q5 5 16.5 7.5t28 3t19.5 0.5h133h92q46 0 121 -3.5t90 -3.5q106 0 193 -34t144 -87.5t100.5 -129t67 -148.5t38 -155.5t18.5 -140.5t4 -114q0 -241 -69.5 -474.5t-166.5 -340.5q-115 -130 -143 -158q-116 -115 -236 -143
q-40 -10 -85 -12h-105h-78h-121q-57 0 -67 16q-4 9 0 37q2 14 17 25t31.5 17t30 17t13.5 25q0 32 1 134t2.5 249.5t2.5 237.5q-21 -3 -42 -6.5t-35.5 -7t-25.5 -6.5t-17 -5l-7 -2q-14 0 -43.5 -21t-40.5 -14q-14 11 -24.5 38.5t2.5 53.5z" />
    <glyph glyph-name="Ntilde" unicode="&#xd1;" horiz-adv-x="1314" 
d="M479 47q8 -8 10 -16t-2.5 -15.5t-9 -12t-12.5 -11.5q-5 -4 -17 -5.5t-27 -1.5t-20 -1q-29 -4 -70.5 6t-62.5 10q-24 0 -64.5 -8.5t-56.5 -7.5q-57 0 -67 16q-4 8 0 37q3 14 18 25t31 17t29.5 17t13.5 25q0 52 4 417t4 425v227t-4.5 402.5t-15.5 217.5q-5 19 -20 29
t-36.5 19.5t-33.5 21.5q-23 27 16 53q11 11 64 11q13 0 30 -8t29 -9q26 -3 66 7.5t55 9.5q31 -1 43 -13l2 -2q11 -12 49 -61.5t108.5 -151.5t141.5 -215.5t146.5 -262t123.5 -282.5v82v131v150.5t-1.5 164t-3.5 145t-6 118.5t-9 63q-7 25 -42.5 42.5t-45.5 27.5
q-26 26 14 53q6 5 17.5 7.5t27 3t18.5 0.5q28 3 69 -7.5t65 -9.5q24 0 64 9t56 8q58 -1 68 -17q4 -8 0 -37q-2 -14 -17 -25t-31.5 -17t-30 -17t-13.5 -25q0 -51 -4 -416.5t-4 -426.5v-226t4.5 -402.5t15.5 -219.5q5 -18 20 -28t36 -19t34 -21q22 -25 -16 -55q-5 -4 -17 -5.5
t-27 -1.5t-20 -1q-27 -3 -68 6.5t-65 9.5t-64 -8.5t-57 -7.5q-57 0 -67 16q-4 8 0 37q3 14 18 25t31 17t29.5 17t13.5 25q0 108 4 502q-105 447 -502 1003q-35 36 -43 33q-11 -5 -18 -68q-1 -81 -2.5 -233t-2.5 -257t-1 -138v-69.5v-125.5v-150t1.5 -165.5t3.5 -148.5
t6 -123t9 -66q5 -18 20 -28t35.5 -19t32.5 -21zM1127 2407l36 -35q-29 -52 -69.5 -110t-90.5 -116.5t-103.5 -96.5t-96.5 -38q-31 0 -75.5 41.5t-82.5 92t-80 92t-69 41.5q-49 0 -107 -51t-98 -107q-6 -10 -17.5 -31t-19 -31.5t-14.5 -11.5l-37 33q29 52 70 110t91 116
t103.5 96t95.5 38q37 0 82 -41.5t80 -91.5t75.5 -91.5t70.5 -41.5q80 0 192 158q48 74 64 76z" />
    <glyph glyph-name="Ograve" unicode="&#xd2;" horiz-adv-x="1189" 
d="M874 1311q0 7 -4 79t-8 109q-11 113 -33 180q-11 32 -17 48.5t-17.5 42t-22 39t-28 30t-38 24.5t-49 13.5t-63.5 5.5q-48 0 -84.5 -11t-59 -26t-41.5 -44.5t-28 -53.5t-23 -66q-26 -81 -32 -182q-3 -31 -7.5 -94t-7.5 -94q-7 -133 -3 -289.5t29 -319.5t59 -295.5
t86.5 -216.5t111.5 -84q97 0 170 205.5t101 483.5t9 516zM1108 1090q0 -165 -31.5 -325t-81.5 -283t-110 -229t-118 -174t-103.5 -106.5t-69.5 -38.5q-23 0 -68.5 41t-103 113t-117.5 180.5t-110 231.5t-81.5 279t-31.5 311q0 105 4.5 190t18 181t36 169t61.5 143t91.5 115
t129 72t171.5 27q75 0 138 -16.5t111 -45t87 -72.5t66.5 -93.5t47.5 -113t32 -126t19.5 -138.5t10 -144t2.5 -148zM877 2038l-62 -18q-20 12 -53 33.5t-118.5 82t-152.5 114.5t-126.5 117.5t-69.5 104.5q-4 17 -5 29.5t3 20t9 12.5t15 6.5t18.5 1.5t22 -2t24 -4t26 -5.5
t24.5 -5.5q17 -3 128.5 -124.5t214.5 -242.5z" />
    <glyph glyph-name="Oacute" unicode="&#xd3;" horiz-adv-x="1189" 
d="M874 1311q0 7 -4 79t-8 109q-11 113 -33 180q-11 32 -17 48.5t-17.5 42t-22 39t-28 30t-38 24.5t-49 13.5t-63.5 5.5q-48 0 -84.5 -11t-59 -26t-41.5 -44.5t-28 -53.5t-23 -66q-26 -81 -32 -182q-3 -31 -7.5 -94t-7.5 -94q-7 -133 -3 -289.5t29 -319.5t59 -295.5
t86.5 -216.5t111.5 -84q97 0 170 205.5t101 483.5t9 516zM1108 1090q0 -165 -31.5 -325t-81.5 -283t-110 -229t-118 -174t-103.5 -106.5t-69.5 -38.5q-23 0 -68.5 41t-103 113t-117.5 180.5t-110 231.5t-81.5 279t-31.5 311q0 105 4.5 190t18 181t36 169t61.5 143t91.5 115
t129 72t171.5 27q75 0 138 -16.5t111 -45t87 -72.5t66.5 -93.5t47.5 -113t32 -126t19.5 -138.5t10 -144t2.5 -148zM874 2468q17 -4 -123 -114t-289 -218l-149 -108l-47 27q339 296 448 407q27 26 47.5 33.5t32.5 2.5t35 -15.5t45 -14.5z" />
    <glyph glyph-name="Ocircumflex" unicode="&#xd4;" horiz-adv-x="1189" 
d="M801 2296q17 -28 34 -66t28.5 -73.5t20 -69t8 -51t-6.5 -19.5q-8 0 -35.5 36.5t-69.5 92.5t-73 88l-109 101q-65 -60 -106 -101q-31 -32 -73 -88t-70 -92.5t-36 -36.5q-7 2 -6.5 19.5t9 51t20 69t28.5 73.5t33 66q24 41 72.5 89.5t84.5 76.5l36 28q17 -11 44 -30.5
t84 -70.5t83 -93zM874 1311q0 7 -4 79t-8 109q-11 113 -33 180q-11 32 -17 48.5t-17.5 42t-22 39t-28 30t-38 24.5t-49 13.5t-63.5 5.5q-48 0 -84.5 -11t-59 -26t-41.5 -44.5t-28 -53.5t-23 -66q-26 -81 -32 -182q-3 -31 -7.5 -94t-7.5 -94q-7 -133 -3 -289.5t29 -319.5
t59 -295.5t86.5 -216.5t111.5 -84q97 0 170 205.5t101 483.5t9 516zM1108 1090q0 -165 -31.5 -325t-81.5 -283t-110 -229t-118 -174t-103.5 -106.5t-69.5 -38.5q-23 0 -68.5 41t-103 113t-117.5 180.5t-110 231.5t-81.5 279t-31.5 311q0 105 4.5 190t18 181t36 169t61.5 143
t91.5 115t129 72t171.5 27q75 0 138 -16.5t111 -45t87 -72.5t66.5 -93.5t47.5 -113t32 -126t19.5 -138.5t10 -144t2.5 -148z" />
    <glyph glyph-name="Otilde" unicode="&#xd5;" horiz-adv-x="1189" 
d="M874 1311q0 7 -4 79t-8 109q-11 113 -33 180q-11 32 -17 48.5t-17.5 42t-22 39t-28 30t-38 24.5t-49 13.5t-63.5 5.5q-48 0 -84.5 -11t-59 -26t-41.5 -44.5t-28 -53.5t-23 -66q-26 -81 -32 -182q-3 -31 -7.5 -94t-7.5 -94q-7 -133 -3 -289.5t29 -319.5t59 -295.5
t86.5 -216.5t111.5 -84q97 0 170 205.5t101 483.5t9 516zM1108 1090q0 -165 -31.5 -325t-81.5 -283t-110 -229t-118 -174t-103.5 -106.5t-69.5 -38.5q-23 0 -68.5 41t-103 113t-117.5 180.5t-110 231.5t-81.5 279t-31.5 311q0 105 4.5 190t18 181t36 169t61.5 143t91.5 115
t129 72t171.5 27q75 0 138 -16.5t111 -45t87 -72.5t66.5 -93.5t47.5 -113t32 -126t19.5 -138.5t10 -144t2.5 -148zM1045 2448l36 -35q-29 -52 -69.5 -110t-90.5 -116.5t-103.5 -96.5t-96.5 -38q-31 0 -75.5 41.5t-82.5 92t-80 92t-69 41.5q-49 0 -107 -51t-98 -107
q-6 -10 -17.5 -31t-19 -31.5t-14.5 -11.5l-37 33q29 52 70 110t91 116t103.5 96t95.5 38q37 0 82 -41.5t80 -91.5t75.5 -91.5t70.5 -41.5q80 0 192 158q48 74 64 76z" />
    <glyph glyph-name="Odieresis" unicode="&#xd6;" horiz-adv-x="1189" 
d="M874 1311q0 7 -4 79t-8 109q-11 113 -33 180q-11 32 -17 48.5t-17.5 42t-22 39t-28 30t-38 24.5t-49 13.5t-63.5 5.5q-48 0 -84.5 -11t-59 -26t-41.5 -44.5t-28 -53.5t-23 -66q-26 -81 -32 -182q-3 -31 -7.5 -94t-7.5 -94q-7 -133 -3 -289.5t29 -319.5t59 -295.5
t86.5 -216.5t111.5 -84q97 0 170 205.5t101 483.5t9 516zM1108 1090q0 -165 -31.5 -325t-81.5 -283t-110 -229t-118 -174t-103.5 -106.5t-69.5 -38.5q-23 0 -68.5 41t-103 113t-117.5 180.5t-110 231.5t-81.5 279t-31.5 311q0 105 4.5 190t18 181t36 169t61.5 143t91.5 115
t129 72t171.5 27q75 0 138 -16.5t111 -45t87 -72.5t66.5 -93.5t47.5 -113t32 -126t19.5 -138.5t10 -144t2.5 -148zM951 2244q0 -40 -23 -84h-2q-3 0 -12 -7.5t-20 -17t-15 -11.5q-71 -37 -100 -37q-80 0 -80 88q0 15 4.5 28t13 29t12.5 25q2 4 3 16t8 19q15 15 28 24
t28.5 13.5t24.5 6t30.5 3t31.5 2.5q33 1 50.5 -28.5t17.5 -68.5zM533 2244q0 -40 -23 -84h-2q-3 0 -12 -7.5t-20 -17t-15 -11.5q-71 -37 -100 -37q-80 0 -80 88q0 15 4.5 28t13.5 29t13 25q2 4 2.5 16t7.5 19q15 15 28 24t28.5 13.5t24.5 6t30.5 3t31.5 2.5q33 1 50.5 -28.5
t17.5 -68.5z" />
    <glyph glyph-name="multiply" unicode="&#xd7;" horiz-adv-x="1093" 
d="M932 113l-17 -27q-178 164 -356 334l-356 -334l-17 27l320 356q-278 262 -320 319q-32 44 26 44q14 -1 62 -7q13 -3 285 -299q268 296 285 299q73 10 89 3q19 -11 -1 -40q-48 -61 -322 -319z" />
    <glyph glyph-name="Oslash" unicode="&#xd8;" horiz-adv-x="1353" 
d="M926 1311l-2 18q-247 -446 -490 -870q39 -163 92.5 -258t118.5 -95q97 0 169.5 206t100.5 483t11 516zM881 1677l-2 2q-13 42 -22 67t-27.5 54.5t-41 45t-59 26t-84.5 10.5q-49 0 -85.5 -11t-58.5 -25.5t-41 -45.5t-28 -53t-24 -66q-22 -71 -33 -182q-2 -34 -6.5 -97.5
t-6.5 -90.5q-23 -300 33 -656q391 814 486 1022zM1270 2013q10 -1 -36.5 -99t-137.5 -269q63 -198 63 -555q0 -165 -32 -325.5t-82 -283t-110 -228.5t-118 -174t-103.5 -106.5t-68.5 -38.5q-39 0 -129.5 102.5t-175.5 258.5l-190 -334l-68 47q82 170 199 408
q-150 336 -150 674q0 105 4.5 190.5t18 181t36.5 169t62 142.5t92 114.5t129.5 72.5t171.5 27q197 0 320 -117q27 69 30 80q9 29 27 47t35.5 25.5t49 8.5t50.5 -1.5t58 -8.5t55 -8z" />
    <glyph glyph-name="Ugrave" unicode="&#xd9;" horiz-adv-x="1288" 
d="M1227 1890q-2 -14 -16.5 -25t-30.5 -17t-29.5 -17t-13.5 -25q0 -51 -6.5 -130t-6.5 -140l-6 -905q0 -108 -22.5 -203t-58.5 -162.5t-81.5 -123.5t-91.5 -90.5t-90 -58.5t-75 -34t-48 -10t-47.5 10t-74 34t-89.5 58.5t-92 90.5t-82 123.5t-58.5 162.5t-23.5 203l-4 903
v45.5v50t-1 46t-3 49t-6 43t-10 42.5q-5 19 -20 29t-36.5 19.5t-33.5 21.5q-23 27 16 53q5 5 16.5 7.5t28 3t19.5 0.5q28 3 68.5 -7.5t64.5 -9.5q24 0 63.5 9t56.5 8q58 -1 68 -17q4 -8 0 -37q-3 -14 -18 -25t-31 -17t-29.5 -17t-13.5 -25q0 -51 -4 -131t-4 -141l6 -885
q0 -101 12 -185t30.5 -141.5t44 -102t50.5 -70t52.5 -41.5t47.5 -21.5t37 -5.5q25 0 54.5 11t68 48.5t69 96t53 165.5t24.5 246l16 885q4 60 1 142.5t-19 133.5q-6 19 -21.5 29.5t-36.5 19.5t-33 21q-24 24 15 53q6 5 17.5 7.5t27.5 3t20 0.5q27 3 67.5 -7.5t65.5 -9.5
q24 0 64 9t57 8q58 -1 66 -17q3 -4 3.5 -9t0 -8.5t-2 -10t-1.5 -9.5zM918 2038l-62 -18q-20 12 -53 33.5t-118.5 82t-152.5 114.5t-126.5 117.5t-69.5 104.5q-4 17 -5 29.5t3 20t9 12.5t15 6.5t18.5 1.5t22 -2t24 -4t26 -5.5t24.5 -5.5q17 -3 128.5 -124.5t214.5 -242.5z
" />
    <glyph glyph-name="Uacute" unicode="&#xda;" horiz-adv-x="1288" 
d="M1227 1890q-2 -14 -16.5 -25t-30.5 -17t-29.5 -17t-13.5 -25q0 -51 -6.5 -130t-6.5 -140l-6 -905q0 -108 -22.5 -203t-58.5 -162.5t-81.5 -123.5t-91.5 -90.5t-90 -58.5t-75 -34t-48 -10t-47.5 10t-74 34t-89.5 58.5t-92 90.5t-82 123.5t-58.5 162.5t-23.5 203l-4 903
v45.5v50t-1 46t-3 49t-6 43t-10 42.5q-5 19 -20 29t-36.5 19.5t-33.5 21.5q-23 27 16 53q5 5 16.5 7.5t28 3t19.5 0.5q28 3 68.5 -7.5t64.5 -9.5q24 0 63.5 9t56.5 8q58 -1 68 -17q4 -8 0 -37q-3 -14 -18 -25t-31 -17t-29.5 -17t-13.5 -25q0 -51 -4 -131t-4 -141l6 -885
q0 -101 12 -185t30.5 -141.5t44 -102t50.5 -70t52.5 -41.5t47.5 -21.5t37 -5.5q25 0 54.5 11t68 48.5t69 96t53 165.5t24.5 246l16 885q4 60 1 142.5t-19 133.5q-6 19 -21.5 29.5t-36.5 19.5t-33 21q-24 24 15 53q6 5 17.5 7.5t27.5 3t20 0.5q27 3 67.5 -7.5t65.5 -9.5
q24 0 64 9t57 8q58 -1 66 -17q3 -4 3.5 -9t0 -8.5t-2 -10t-1.5 -9.5zM956 2468q17 -4 -123 -114t-289 -218l-149 -108l-47 27q339 296 448 407q27 26 47.5 33.5t32.5 2.5t35 -15.5t45 -14.5z" />
    <glyph glyph-name="Ucircumflex" unicode="&#xdb;" horiz-adv-x="1288" 
d="M852 2296q17 -28 34 -66t28.5 -73.5t20 -69t8 -51t-6.5 -19.5q-8 0 -35.5 36.5t-69.5 92.5t-73 88l-109 101q-65 -60 -106 -101q-31 -32 -73 -88t-69.5 -92.5t-35.5 -36.5q-7 2 -6.5 19.5t9 51t20 69t28.5 73.5t33 66q24 41 72 89.5t84 76.5l36 28q17 -11 44 -30.5
t84 -70.5t83 -93zM1227 1890q-2 -14 -16.5 -25t-30.5 -17t-29.5 -17t-13.5 -25q0 -51 -6.5 -130t-6.5 -140l-6 -905q0 -108 -22.5 -203t-58.5 -162.5t-81.5 -123.5t-91.5 -90.5t-90 -58.5t-75 -34t-48 -10t-47.5 10t-74 34t-89.5 58.5t-92 90.5t-82 123.5t-58.5 162.5
t-23.5 203l-4 903v45.5v50t-1 46t-3 49t-6 43t-10 42.5q-5 19 -20 29t-36.5 19.5t-33.5 21.5q-23 27 16 53q5 5 16.5 7.5t28 3t19.5 0.5q28 3 68.5 -7.5t64.5 -9.5q24 0 63.5 9t56.5 8q58 -1 68 -17q4 -8 0 -37q-3 -14 -18 -25t-31 -17t-29.5 -17t-13.5 -25q0 -51 -4 -131
t-4 -141l6 -885q0 -101 12 -185t30.5 -141.5t44 -102t50.5 -70t52.5 -41.5t47.5 -21.5t37 -5.5q25 0 54.5 11t68 48.5t69 96t53 165.5t24.5 246l16 885q4 60 1 142.5t-19 133.5q-6 19 -21.5 29.5t-36.5 19.5t-33 21q-24 24 15 53q6 5 17.5 7.5t27.5 3t20 0.5q27 3 67.5 -7.5
t65.5 -9.5q24 0 64 9t57 8q58 -1 66 -17q3 -4 3.5 -9t0 -8.5t-2 -10t-1.5 -9.5z" />
    <glyph glyph-name="Udieresis" unicode="&#xdc;" horiz-adv-x="1288" 
d="M991 2245q0 -42 -22 -84h-2q-3 0 -12 -8t-20 -17.5t-15 -11.5q-71 -37 -101 -37q-80 0 -80 88q0 15 4.5 28t13.5 29t13 25q2 4 2.5 16t7.5 19q15 15 28 24t28.5 13.5t24.5 6t31 3t32 2.5q33 1 50 -27.5t17 -68.5zM573 2245q0 -42 -22 -84h-2q-3 0 -12 -8t-20 -17.5
t-15 -11.5q-71 -37 -101 -37q-79 0 -79 88q0 15 4.5 28t13 29t12.5 25q2 4 2.5 16t7.5 19q15 15 28 24t28.5 13.5t24.5 6t31 3t32 2.5q33 1 50 -27.5t17 -68.5zM1227 1890q-2 -14 -16.5 -25t-30.5 -17t-29.5 -17t-13.5 -25q0 -51 -6.5 -130t-6.5 -140l-6 -905
q0 -108 -22.5 -203t-58.5 -162.5t-81.5 -123.5t-91.5 -90.5t-90 -58.5t-75 -34t-48 -10t-47.5 10t-74 34t-89.5 58.5t-92 90.5t-82 123.5t-58.5 162.5t-23.5 203l-4 903v45.5v50t-1 46t-3 49t-6 43t-10 42.5q-5 19 -20 29t-36.5 19.5t-33.5 21.5q-23 27 16 53q5 5 16.5 7.5
t28 3t19.5 0.5q28 3 68.5 -7.5t64.5 -9.5q24 0 63.5 9t56.5 8q58 -1 68 -17q4 -8 0 -37q-3 -14 -18 -25t-31 -17t-29.5 -17t-13.5 -25q0 -51 -4 -131t-4 -141l6 -885q0 -101 12 -185t30.5 -141.5t44 -102t50.5 -70t52.5 -41.5t47.5 -21.5t37 -5.5q25 0 54.5 11t68 48.5
t69 96t53 165.5t24.5 246l16 885q4 60 1 142.5t-19 133.5q-6 19 -21.5 29.5t-36.5 19.5t-33 21q-24 24 15 53q6 5 17.5 7.5t27.5 3t20 0.5q27 3 67.5 -7.5t65.5 -9.5q24 0 64 9t57 8q58 -1 66 -17q3 -4 3.5 -9t0 -8.5t-2 -10t-1.5 -9.5z" />
    <glyph glyph-name="Yacute" unicode="&#xdd;" horiz-adv-x="1064" 
d="M750 791l-13 -19q-9 -12 -25.5 -32t-23.5 -29q-63 -85 -63 -142q0 -386 18 -454q8 -23 43.5 -40t46.5 -28q8 -8 10 -16t-2.5 -15.5t-9 -12t-12.5 -11.5q-6 -4 -18 -5.5t-27.5 -1.5t-20.5 -1q-28 -4 -69 6t-64 10q-24 0 -64 -8.5t-57 -7.5q-57 0 -65 16q-3 4 -3.5 9t0 8.5
t2 10t1.5 9.5q2 14 16.5 25t30.5 17t29.5 17t13.5 25q0 30 1 104.5t2.5 181.5t2.5 162q0 52 -43 129q-50 55 -94.5 123t-86 155.5t-65.5 195.5t-24 221l2 198v41v40.5t-1 31.5t-3.5 36t-6.5 31.5t-10 38.5q-7 25 -42.5 42.5t-45.5 27.5q-24 24 15 53q6 5 17.5 7.5t27.5 3
t20 0.5q27 3 67 -7.5t64 -9.5q25 0 65 9t56 8q60 -1 68 -17q4 -8 0 -37q-2 -14 -17 -25t-32 -17t-30.5 -17t-13.5 -25q0 -51 -3 -94t-3 -104l-2 -123q-1 -127 24.5 -269t61.5 -248.5t75 -176.5t65 -70q21 0 52.5 41.5t64 117.5t59 169t39.5 209.5t4 226.5l16 110
q0 20 1 58.5t0.5 55.5t-4.5 45t-13 56q-7 25 -42.5 42.5t-45.5 27.5q-26 26 14 53q6 5 17.5 7.5t27 3t18.5 0.5q28 3 69 -7.5t65 -9.5q24 0 64 9t56 8q58 -1 68 -17q4 -8 0 -37q-3 -14 -18 -25t-31 -17t-29.5 -17t-13.5 -25q0 -48 -1 -72t-4 -60.5t-5 -80.5l-11 -200
q-13 -318 -194 -590q2 1 -2 -5zM874 2468q17 -4 -123 -114t-289 -218l-149 -108l-47 27q339 296 448 407q27 26 47.5 33.5t32.5 2.5t35 -15.5t45 -14.5z" />
    <glyph glyph-name="Thorn" unicode="&#xde;" horiz-adv-x="1017" 
d="M479 47q8 -8 10 -16t-2.5 -15.5t-9 -12t-12.5 -11.5q-5 -4 -17 -5.5t-27 -1.5t-20 -1q-29 -4 -70.5 6t-62.5 10q-24 0 -64.5 -8.5t-56.5 -7.5q-57 0 -67 16q-4 8 0 37q3 14 18 25t31 17t29.5 17t13.5 25q0 52 4 417t4 425v70.5v125.5v150t-1.5 165.5t-3.5 148.5t-6 122
t-9 65q-5 19 -20 29t-36.5 19.5t-33.5 21.5q-23 27 16 53q5 5 16.5 7.5t28 3t19.5 0.5q28 3 68.5 -7.5t64.5 -9.5q24 0 63.5 9t56.5 8q58 -1 68 -17q4 -8 0 -37q-3 -14 -18 -25t-31 -17t-29.5 -17t-13.5 -25q0 -8 -1 -98.5t-1 -161.5q40 -12 41 -12h84q115 0 203 -27.5
t142.5 -73t89 -110.5t47.5 -132.5t13 -146.5q0 -106 -36 -196.5t-112 -173t-175 -155t-244 -157.5l-29 31l17 16q17 16 44 43.5t57.5 60t61 71t50.5 71.5q83 135 115 269.5t32 289.5q0 35 -11 73.5t-34.5 77.5t-67.5 64t-102 25q-22 0 -71 -3t-80 -3q-13 0 -37 -4
q-4 -398 -4 -481v-69.5v-125.5v-150t1.5 -165.5t3.5 -148.5t6 -123t9 -66q5 -18 20 -28t35.5 -19t32.5 -21z" />
    <glyph glyph-name="germandbls" unicode="&#xdf;" horiz-adv-x="1163" 
d="M1163 463q0 -93 -63.5 -219t-159.5 -245.5t-193.5 -219.5t-181.5 -168l-26 43q1 13 44 56.5t103 106.5t120 137t102 164.5t42 172.5q0 52 -26 101t-68 88.5t-93 77.5t-101.5 75t-92.5 74.5t-68 82.5t-26 93q0 62 30.5 116.5t69.5 89.5t98 88.5t95 98.5q29 36 40 84.5
t8.5 88t-8 108t-5.5 112.5q0 30 -11.5 63t-36 66t-70.5 54.5t-107 21.5q-52 0 -138 -4q-4 -5 -32.5 -24t-28.5 -40q0 -51 -4 -407.5t-4 -417.5v-70.5v-125.5v-150.5t1.5 -165.5t3.5 -148t6 -122.5t9 -65.5q5 -19 14.5 -29t26 -20t27.5 -21q8 -8 10 -15t-4 -15.5t-8 -11
t-13 -11.5q-5 -5 -11.5 -7t-17 -2.5t-14.5 -0.5h-133h-121q-57 0 -67 16q-4 9 0 37q2 14 17 25t31.5 17t30 17t13.5 25q0 51 4 417t4 427v69v122.5v146.5t-1.5 161.5t-3.5 145t-6 120t-9 64.5q-5 19 -20 29t-36.5 19.5t-33.5 21.5q-23 27 16 53q5 5 16.5 7.5t28 3t19.5 0.5
h133h120h15h96q120 0 212.5 -23.5t149 -62.5t93 -94.5t50 -113.5t13.5 -126q0 -100 -239 -332q-95 -131 -95 -176q0 -55 34.5 -109.5t86 -97t112 -88t112 -84t86 -84.5t34.5 -90z" />
    <glyph glyph-name="agrave" unicode="&#xe0;" 
d="M795 1587l-62 -18q-20 12 -53 33.5t-118.5 82t-152.5 114.5t-126.5 117.5t-69.5 104.5q-4 17 -5 29.5t3 20t9 13t15 7t18.5 1.5t22.5 -2t23.5 -4t25.5 -5.5t25 -5.5q17 -3 128.5 -125t213.5 -242zM672 1069q-110 -55 -188.5 -129.5t-123 -164t-64.5 -186t-20 -208.5
q0 -24 6.5 -68t19 -97t37.5 -91.5t56 -38.5q71 0 295 287q0 67 -1 173t-1 130q0 265 -16 393zM688 121v133q-32 -36 -75 -78t-101 -92.5t-115.5 -83.5t-97.5 -33q-44 0 -79 14.5t-57.5 35.5t-38.5 55.5t-24 64t-12.5 71.5t-5 67t-0.5 61q0 137 36 262t105.5 231t182.5 182
t258 107q-4 27 -6.5 86.5t-13.5 95.5t-44 68q-21 21 -28.5 28t-24.5 15.5t-39 13.5q-42 9 -90.5 -40t-82 -112t-61 -117t-32.5 -54q-21 0 -47.5 90.5t-26.5 122.5q0 47 111 116t167 72q52 5 205 0q47 -1 85 -19t62.5 -45t43 -68t28 -79.5t15 -87.5t7 -84.5t1.5 -77.5
q0 -9 -2 -168.5t-2.5 -303.5t2.5 -285.5t12 -169.5q5 -18 19.5 -28t34.5 -19t32 -21q8 -8 10 -16t-2.5 -15.5t-9 -12t-12.5 -11.5q-5 -4 -16.5 -5.5t-26 -1.5t-19.5 -1q-22 -3 -53.5 7t-50.5 9q-16 -1 -43 -9t-45 -7q-35 0 -45 16q-3 5 -3 11t1.5 13.5t1.5 12.5
q1 13 6.5 36.5t5.5 47.5z" />
    <glyph glyph-name="aacute" unicode="&#xe1;" 
d="M672 1069q-110 -55 -188.5 -129.5t-123 -164t-64.5 -186t-20 -208.5q0 -24 6.5 -68t19 -97t37.5 -91.5t56 -38.5q71 0 295 287q0 67 -1 173t-1 130q0 265 -16 393zM688 121v133q-32 -36 -75 -78t-101 -92.5t-115.5 -83.5t-97.5 -33q-44 0 -79 14.5t-57.5 35.5t-38.5 55.5
t-24 64t-12.5 71.5t-5 67t-0.5 61q0 137 36 262t105.5 231t182.5 182t258 107q-4 27 -6.5 86.5t-13.5 95.5t-44 68q-21 21 -28.5 28t-24.5 15.5t-39 13.5q-42 9 -90.5 -40t-82 -112t-61 -117t-32.5 -54q-21 0 -47.5 90.5t-26.5 122.5q0 47 111 116t167 72q52 5 205 0
q47 -1 85 -19t62.5 -45t43 -68t28 -79.5t15 -87.5t7 -84.5t1.5 -77.5q0 -9 -2 -168.5t-2.5 -303.5t2.5 -285.5t12 -169.5q5 -18 19.5 -28t34.5 -19t32 -21q8 -8 10 -16t-2.5 -15.5t-9 -12t-12.5 -11.5q-5 -4 -16.5 -5.5t-26 -1.5t-19.5 -1q-22 -3 -53.5 7t-50.5 9
q-16 -1 -43 -9t-45 -7q-35 0 -45 16q-3 5 -3 11t1.5 13.5t1.5 12.5q1 13 6.5 36.5t5.5 47.5zM874 2038q17 -4 -123 -114t-289 -218l-149 -108l-47 27q339 296 448 407q27 26 47.5 33.5t32.5 2.5t35 -15.5t45 -14.5z" />
    <glyph glyph-name="acircumflex" unicode="&#xe2;" 
d="M672 1069q-110 -55 -188.5 -129.5t-123 -164t-64.5 -186t-20 -208.5q0 -24 6.5 -68t19 -97t37.5 -91.5t56 -38.5q71 0 295 287q0 67 -1 173t-1 130q0 265 -16 393zM688 121v133q-32 -36 -75 -78t-101 -92.5t-115.5 -83.5t-97.5 -33q-44 0 -79 14.5t-57.5 35.5t-38.5 55.5
t-24 64t-12.5 71.5t-5 67t-0.5 61q0 137 36 262t105.5 231t182.5 182t258 107q-4 27 -6.5 86.5t-13.5 95.5t-44 68q-21 21 -28.5 28t-24.5 15.5t-39 13.5q-42 9 -90.5 -40t-82 -112t-61 -117t-32.5 -54q-21 0 -47.5 90.5t-26.5 122.5q0 47 111 116t167 72q52 5 205 0
q47 -1 85 -19t62.5 -45t43 -68t28 -79.5t15 -87.5t7 -84.5t1.5 -77.5q0 -9 -2 -168.5t-2.5 -303.5t2.5 -285.5t12 -169.5q5 -18 19.5 -28t34.5 -19t32 -21q8 -8 10 -16t-2.5 -15.5t-9 -12t-12.5 -11.5q-5 -4 -16.5 -5.5t-26 -1.5t-19.5 -1q-22 -3 -53.5 7t-50.5 9
q-16 -1 -43 -9t-45 -7q-35 0 -45 16q-3 5 -3 11t1.5 13.5t1.5 12.5q1 13 6.5 36.5t5.5 47.5zM719 1846q17 -28 34 -66t28.5 -73.5t20 -69t8 -51t-6.5 -19.5q-8 0 -35.5 36.5t-69.5 92.5t-73 88l-109 101q-65 -60 -106 -101q-31 -32 -73 -88t-69.5 -92.5t-35.5 -36.5
q-7 2 -6.5 19.5t9 51t20 69t28.5 73.5t33 66q24 41 72 89.5t84 76.5l36 28q17 -11 44 -30.5t84 -70.5t83 -93z" />
    <glyph glyph-name="atilde" unicode="&#xe3;" 
d="M672 1069q-110 -55 -188.5 -129.5t-123 -164t-64.5 -186t-20 -208.5q0 -24 6.5 -68t19 -97t37.5 -91.5t56 -38.5q71 0 295 287q0 67 -1 173t-1 130q0 265 -16 393zM688 121v133q-32 -36 -75 -78t-101 -92.5t-115.5 -83.5t-97.5 -33q-44 0 -79 14.5t-57.5 35.5t-38.5 55.5
t-24 64t-12.5 71.5t-5 67t-0.5 61q0 137 36 262t105.5 231t182.5 182t258 107q-4 27 -6.5 86.5t-13.5 95.5t-44 68q-21 21 -28.5 28t-24.5 15.5t-39 13.5q-42 9 -90.5 -40t-82 -112t-61 -117t-32.5 -54q-21 0 -47.5 90.5t-26.5 122.5q0 47 111 116t167 72q52 5 205 0
q47 -1 85 -19t62.5 -45t43 -68t28 -79.5t15 -87.5t7 -84.5t1.5 -77.5q0 -9 -2 -168.5t-2.5 -303.5t2.5 -285.5t12 -169.5q5 -18 19.5 -28t34.5 -19t32 -21q8 -8 10 -16t-2.5 -15.5t-9 -12t-12.5 -11.5q-5 -4 -16.5 -5.5t-26 -1.5t-19.5 -1q-22 -3 -53.5 7t-50.5 9
q-16 -1 -43 -9t-45 -7q-35 0 -45 16q-3 5 -3 11t1.5 13.5t1.5 12.5q1 13 6.5 36.5t5.5 47.5zM1067 2216l36 -35q-29 -52 -69.5 -110t-90.5 -116.5t-103.5 -96.5t-96.5 -38q-31 0 -75.5 41.5t-82.5 92t-80 92t-69 41.5q-49 0 -107 -51t-98 -107q-6 -10 -17.5 -31t-19 -31.5
t-14.5 -11.5l-37 33q29 52 70 110t91 116t103.5 96t95.5 38q37 0 82 -41.5t80 -91.5t75.5 -91.5t70.5 -41.5q80 0 192 158q48 74 64 76z" />
    <glyph glyph-name="adieresis" unicode="&#xe4;" 
d="M889 1753q0 -40 -23 -84h-2q-3 0 -12 -8t-20 -17.5t-15 -11.5q-71 -37 -100 -37q-80 0 -80 88q0 15 4.5 28t13.5 29t13 25q2 4 2.5 16t7.5 19q15 15 28 24t28.5 13.5t24.5 6t30.5 3t31.5 2.5q33 1 50.5 -28t17.5 -68zM471 1753q0 -42 -22 -84h-3q-3 0 -12 -8t-20 -17.5
t-15 -11.5q-71 -37 -100 -37q-80 0 -80 88q0 15 4.5 28t13.5 29t13 25q2 4 2.5 16t7.5 19q15 15 28 24t28.5 13.5t24.5 6t30.5 3t31.5 2.5q33 1 50.5 -28t17.5 -68zM672 1069q-110 -55 -188.5 -129.5t-123 -164t-64.5 -186t-20 -208.5q0 -24 6.5 -68t19 -97t37.5 -91.5
t56 -38.5q71 0 295 287q0 67 -1 173t-1 130q0 265 -16 393zM688 121v133q-32 -36 -75 -78t-101 -92.5t-115.5 -83.5t-97.5 -33q-44 0 -79 14.5t-57.5 35.5t-38.5 55.5t-24 64t-12.5 71.5t-5 67t-0.5 61q0 137 36 262t105.5 231t182.5 182t258 107q-4 27 -6.5 86.5
t-13.5 95.5t-44 68q-21 21 -28.5 28t-24.5 15.5t-39 13.5q-42 9 -90.5 -40t-82 -112t-61 -117t-32.5 -54q-21 0 -47.5 90.5t-26.5 122.5q0 47 111 116t167 72q52 5 205 0q47 -1 85 -19t62.5 -45t43 -68t28 -79.5t15 -87.5t7 -84.5t1.5 -77.5q0 -9 -2 -168.5t-2.5 -303.5
t2.5 -285.5t12 -169.5q5 -18 19.5 -28t34.5 -19t32 -21q8 -8 10 -16t-2.5 -15.5t-9 -12t-12.5 -11.5q-5 -4 -16.5 -5.5t-26 -1.5t-19.5 -1q-22 -3 -53.5 7t-50.5 9q-16 -1 -43 -9t-45 -7q-35 0 -45 16q-3 5 -3 11t1.5 13.5t1.5 12.5q1 13 6.5 36.5t5.5 47.5z" />
    <glyph glyph-name="aring" unicode="&#xe5;" 
d="M729 1724q0 78 -53.5 122t-147.5 44q-95 0 -149.5 -44t-54.5 -122q0 -79 65.5 -148t138.5 -69q72 0 136.5 69t64.5 148zM829 1726q0 -103 -101.5 -201t-203.5 -98t-202.5 98t-100.5 201q0 105 88.5 179.5t214.5 74.5q127 0 216 -74.5t89 -179.5zM672 1069
q-110 -55 -188.5 -129.5t-123 -164t-64.5 -186t-20 -208.5q0 -24 6.5 -68t19 -97t37.5 -91.5t56 -38.5q71 0 295 287q0 67 -1 173t-1 130q0 265 -16 393zM688 121v133q-32 -36 -75 -78t-101 -92.5t-115.5 -83.5t-97.5 -33q-44 0 -79 14.5t-57.5 35.5t-38.5 55.5t-24 64
t-12.5 71.5t-5 67t-0.5 61q0 137 36 262t105.5 231t182.5 182t258 107q-4 27 -6.5 86.5t-13.5 95.5t-44 68q-21 21 -28.5 28t-24.5 15.5t-39 13.5q-42 9 -90.5 -40t-82 -112t-61 -117t-32.5 -54q-21 0 -47.5 90.5t-26.5 122.5q0 47 111 116t167 72q52 5 205 0q47 -1 85 -19
t62.5 -45t43 -68t28 -79.5t15 -87.5t7 -84.5t1.5 -77.5q0 -9 -2 -168.5t-2.5 -303.5t2.5 -285.5t12 -169.5q5 -18 19.5 -28t34.5 -19t32 -21q8 -8 10 -16t-2.5 -15.5t-9 -12t-12.5 -11.5q-5 -4 -16.5 -5.5t-26 -1.5t-19.5 -1q-22 -3 -53.5 7t-50.5 9q-16 -1 -43 -9t-45 -7
q-35 0 -45 16q-3 5 -3 11t1.5 13.5t1.5 12.5q1 13 6.5 36.5t5.5 47.5z" />
    <glyph glyph-name="ae" unicode="&#xe6;" horiz-adv-x="1564" 
d="M735 215q-340 -248 -436 -248q-44 0 -79 14.5t-57.5 35.5t-38.5 55.5t-24 64t-12.5 71.5t-5 67t-0.5 61q0 136 35.5 261t105 231t182.5 182.5t257 107.5q-28 169 -87 234q-2 7 -6.5 18t-22 31t-38.5 24q-42 9 -90.5 -40t-82 -112t-61 -117t-32.5 -54q-21 0 -47.5 90.5
t-26.5 122.5q0 47 111 116t167 72q52 5 205 0q117 -3 176 -160q112 160 279 160q108 0 196 -62.5t135.5 -162t47.5 -213.5q0 -58 -44 -140t-119 -170.5t-157 -172t-174 -164.5q28 -102 37 -127q7 -25 30.5 -71t52.5 -94.5t57 -93.5t46 -74l19 -30l-29 -41q-259 208 -373 396
q-23 -17 -56.5 -40.5t-39.5 -27.5zM668 1067q-392 -194 -392 -686q0 -24 6.5 -68t19 -97t37.5 -91.5t56 -38.5q38 0 143.5 73.5t178.5 139.5q26 22 71 61q-70 141 -92 318q-3 17 -6 72q0 24 -2 34q-4 172 -20 283zM690 750l-2 34q2 -10 2 -34zM967 526q333 320 333 428
q0 43 -18 120t-46.5 156t-73 137t-89.5 58q-34 0 -61 -15t-44 -36t-29 -56t-18 -64t-9.5 -70.5t-4 -64.5t-0.5 -58q0 -250 60 -535z" />
    <glyph glyph-name="ccedilla" unicode="&#xe7;" horiz-adv-x="849" 
d="M809 1315q0 -31 -28.5 -122t-47.5 -91q-5 0 -32 50.5t-60.5 111t-82 111t-91.5 50.5q-34 0 -61.5 -15t-44.5 -36t-29.5 -56t-18.5 -64t-9.5 -70.5t-4 -64.5t-0.5 -58q0 -235 22.5 -407t100.5 -363q17 -43 44.5 -95.5t55 -98t52 -84.5t40.5 -62l15 -23l-29 -41
q-279 224 -398.5 437.5t-119.5 506.5q0 42 3.5 90t16 115.5t31.5 129t54 124.5t80 109t112.5 75t148.5 29q33 0 100.5 -32.5t124 -78t56.5 -77.5zM490 -265q-17 -42 -100 -77t-157 -49l-75 -15l12 60q19 4 47.5 11t80.5 28.5t61 41.5q13 31 3 67t-28 64t-29 62.5t1 62.5
l59 123l78 -32q-27 -55 -35 -78q-10 -23 -0.5 -48.5t28.5 -47.5t36.5 -50.5t25 -56.5t-7.5 -66z" />
    <glyph glyph-name="egrave" unicode="&#xe8;" horiz-adv-x="917" 
d="M754 1587l-62 -18q-20 12 -53 33.5t-118.5 82t-152.5 114.5t-126.5 117.5t-69.5 104.5q-4 17 -5 29.5t3 20t9 13t15 7t18.5 1.5t22.5 -2t23.5 -4t25.5 -5.5t25 -5.5q17 -3 128.5 -125t214.5 -242zM856 1065q0 -76 -48.5 -174t-123.5 -189t-157 -170t-158 -135
q5 -17 15 -53t15 -53q8 -25 32 -71t53 -94.5t57 -93.5t47 -74l18 -30l-28 -41q-188 150 -298.5 288.5t-164.5 297.5t-54 358q0 79 13 165t44.5 177.5t77.5 164t119.5 119t163.5 46.5q107 0 194.5 -62t135 -162t47.5 -214zM348 487q116 92 220 231t104 236q0 43 -17.5 120
t-46.5 156t-73 137t-89 58q-34 0 -61.5 -15t-44.5 -36t-29.5 -56t-18.5 -63.5t-9 -71t-3.5 -65t-0.5 -57.5q0 -272 69 -574z" />
    <glyph glyph-name="eacute" unicode="&#xe9;" horiz-adv-x="917" 
d="M856 1065q0 -76 -48.5 -174t-123.5 -189t-157 -170t-158 -135q5 -17 15 -53t15 -53q8 -25 32 -71t53 -94.5t57 -93.5t47 -74l18 -30l-28 -41q-188 150 -298.5 288.5t-164.5 297.5t-54 358q0 79 13 165t44.5 177.5t77.5 164t119.5 119t163.5 46.5q107 0 194.5 -62
t135 -162t47.5 -214zM348 487q116 92 220 231t104 236q0 43 -17.5 120t-46.5 156t-73 137t-89 58q-34 0 -61.5 -15t-44.5 -36t-29.5 -56t-18.5 -63.5t-9 -71t-3.5 -65t-0.5 -57.5q0 -272 69 -574zM772 2038q17 -4 -123 -114t-289 -218l-149 -108l-47 27q339 296 448 407
q27 26 47.5 33.5t32.5 2.5t35 -15.5t45 -14.5z" />
    <glyph glyph-name="ecircumflex" unicode="&#xea;" horiz-adv-x="917" 
d="M856 1065q0 -76 -48.5 -174t-123.5 -189t-157 -170t-158 -135q5 -17 15 -53t15 -53q8 -25 32 -71t53 -94.5t57 -93.5t47 -74l18 -30l-28 -41q-188 150 -298.5 288.5t-164.5 297.5t-54 358q0 79 13 165t44.5 177.5t77.5 164t119.5 119t163.5 46.5q107 0 194.5 -62
t135 -162t47.5 -214zM348 487q116 92 220 231t104 236q0 43 -17.5 120t-46.5 156t-73 137t-89 58q-34 0 -61.5 -15t-44.5 -36t-29.5 -56t-18.5 -63.5t-9 -71t-3.5 -65t-0.5 -57.5q0 -272 69 -574zM678 1846q17 -28 34 -66t28.5 -73.5t20 -69t8 -51t-6.5 -19.5
q-8 0 -35.5 36.5t-69.5 92.5t-73 88l-109 101q-65 -60 -106 -101q-31 -32 -73 -88t-69.5 -92.5t-35.5 -36.5q-7 2 -6.5 19.5t9 51t20 69t28.5 73.5t33 66q24 41 72 89.5t84 76.5l36 28q17 -11 44 -30.5t84 -70.5t83 -93z" />
    <glyph glyph-name="edieresis" unicode="&#xeb;" horiz-adv-x="917" 
d="M807 1753q0 -40 -23 -84h-2q-3 0 -12 -8t-20 -17.5t-15 -11.5q-71 -37 -100 -37q-80 0 -80 88q0 15 4.5 28t13.5 29t13 25q2 4 2.5 16t7.5 19q15 15 28 24t28.5 13.5t24.5 6t30.5 3t31.5 2.5q33 1 50.5 -28t17.5 -68zM389 1753q0 -42 -22 -84h-2q-3 0 -12.5 -8
t-20.5 -17.5t-15 -11.5q-71 -37 -100 -37q-80 0 -80 88q0 15 4.5 28t13.5 29t13 25q2 4 2.5 16t7.5 19q15 15 28 24t28.5 13.5t24.5 6t31 3t32 2.5q33 1 50 -27.5t17 -68.5zM856 1065q0 -76 -48.5 -174t-123.5 -189t-157 -170t-158 -135q5 -17 15 -53t15 -53q8 -25 32 -71
t53 -94.5t57 -93.5t47 -74l18 -30l-28 -41q-188 150 -298.5 288.5t-164.5 297.5t-54 358q0 79 13 165t44.5 177.5t77.5 164t119.5 119t163.5 46.5q107 0 194.5 -62t135 -162t47.5 -214zM348 487q116 92 220 231t104 236q0 43 -17.5 120t-46.5 156t-73 137t-89 58
q-34 0 -61.5 -15t-44.5 -36t-29.5 -56t-18.5 -63.5t-9 -71t-3.5 -65t-0.5 -57.5q0 -272 69 -574z" />
    <glyph glyph-name="igrave" unicode="&#xec;" horiz-adv-x="532" 
d="M569 1587l-61 -18q-20 12 -53 33.5t-118.5 82t-152.5 114.5t-126.5 117.5t-69.5 104.5q-4 17 -5 29.5t3 20t9 13t15 7t18.5 1.5t22.5 -2t23.5 -4t25.5 -5.5t25 -5.5q17 -3 128 -125t213 -242zM463 47q8 -8 10 -15.5t-4.5 -16t-9.5 -11.5t-13 -12q-6 -4 -17.5 -5.5
t-26 -1.5t-19.5 -1q-28 -4 -70 6t-65 10q-24 0 -64 -8.5t-57 -7.5q-58 0 -66 16q-7 11 0 37q2 14 17.5 25t32.5 17t31 17t14 25q0 51 2 272.5t2 282.5q-4 472 -4 526q0 18 -4 39.5t-7 24.5q-5 4 -27.5 6.5t-27.5 7.5q-14 16 -14 45q0 16 15.5 26.5t40.5 20t36 17.5
q57 42 114.5 71t73.5 13q19 -19 32 -41t7 -33q-47 -103 -47 -197q0 -124 3 -309t3 -217q0 -495 19 -561q8 -23 43.5 -40t46.5 -28z" />
    <glyph glyph-name="iacute" unicode="&#xed;" horiz-adv-x="532" 
d="M463 47q8 -8 10 -15.5t-4.5 -16t-9.5 -11.5t-13 -12q-6 -4 -17.5 -5.5t-26 -1.5t-19.5 -1q-28 -4 -70 6t-65 10q-24 0 -64 -8.5t-57 -7.5q-58 0 -66 16q-7 11 0 37q2 14 17.5 25t32.5 17t31 17t14 25q0 51 2 272.5t2 282.5q-4 472 -4 526q0 18 -4 39.5t-7 24.5
q-5 4 -27.5 6.5t-27.5 7.5q-14 16 -14 45q0 16 15.5 26.5t40.5 20t36 17.5q57 42 114.5 71t73.5 13q19 -19 32 -41t7 -33q-47 -103 -47 -197q0 -124 3 -309t3 -217q0 -495 19 -561q8 -23 43.5 -40t46.5 -28zM567 2038q17 -4 -123 -114t-289 -218l-149 -108l-47 27
q339 296 448 407q27 26 47.5 33.5t32.5 2.5t35 -15.5t45 -14.5z" />
    <glyph glyph-name="icircumflex" unicode="&#xee;" horiz-adv-x="532" 
d="M463 47q8 -8 10 -15.5t-4.5 -16t-9.5 -11.5t-13 -12q-6 -4 -17.5 -5.5t-26 -1.5t-19.5 -1q-28 -4 -70 6t-65 10q-24 0 -64 -8.5t-57 -7.5q-58 0 -66 16q-7 11 0 37q2 14 17.5 25t32.5 17t31 17t14 25q0 51 2 272.5t2 282.5q-4 472 -4 526q0 18 -4 39.5t-7 24.5
q-5 4 -27.5 6.5t-27.5 7.5q-14 16 -14 45q0 16 15.5 26.5t40.5 20t36 17.5q57 42 114.5 71t73.5 13q19 -19 32 -41t7 -33q-47 -103 -47 -197q0 -124 3 -309t3 -217q0 -495 19 -561q8 -23 43.5 -40t46.5 -28zM473 1846q17 -28 34 -66t28.5 -73.5t20 -69t8 -51t-6.5 -19.5
q-8 0 -35.5 36.5t-69.5 92.5t-73 88l-109 101q-65 -60 -106 -101q-31 -32 -73 -88t-69.5 -92.5t-35.5 -36.5q-7 2 -6.5 19.5t9 51t20 69t28.5 73.5t33 66q24 41 72 89.5t84 76.5l36 28q17 -11 44 -30.5t84 -70.5t83 -93z" />
    <glyph glyph-name="idieresis" unicode="&#xef;" horiz-adv-x="532" 
d="M602 1753q0 -42 -22 -84h-2q-3 0 -12.5 -8t-20.5 -17.5t-15 -11.5q-71 -37 -100 -37q-80 0 -80 88q0 15 4.5 28t13.5 29t13 25q2 4 2.5 16t7.5 19q15 15 28 24t28.5 13.5t24.5 6t31 3t32 2.5q33 1 50 -27.5t17 -68.5zM184 1753q0 -42 -22 -84h-2q-3 0 -12 -8t-20 -17.5
t-15 -11.5q-71 -37 -101 -37q-80 0 -80 88q0 15 4.5 28t13.5 29t13 25q2 4 2.5 16t7.5 19q15 15 28 24t28.5 13.5t24.5 6t31 3t32 2.5q33 1 50 -27.5t17 -68.5zM463 47q8 -8 10 -15.5t-4.5 -16t-9.5 -11.5t-13 -12q-6 -4 -17.5 -5.5t-26 -1.5t-19.5 -1q-28 -4 -70 6t-65 10
q-24 0 -64 -8.5t-57 -7.5q-58 0 -66 16q-7 11 0 37q2 14 17.5 25t32.5 17t31 17t14 25q0 51 2 272.5t2 282.5q-4 472 -4 526q0 18 -4 39.5t-7 24.5q-5 4 -27.5 6.5t-27.5 7.5q-14 16 -14 45q0 16 15.5 26.5t40.5 20t36 17.5q57 42 114.5 71t73.5 13q19 -19 32 -41t7 -33
q-47 -103 -47 -197q0 -124 3 -309t3 -217q0 -495 19 -561q8 -23 43.5 -40t46.5 -28z" />
    <glyph glyph-name="eth" unicode="&#xf0;" horiz-adv-x="958" 
d="M659 403q0 272 -69 574q-116 -92 -220 -230.5t-104 -234.5q0 -44 17.5 -121t46.5 -156.5t73 -137.5t89 -58q34 0 61.5 15t44.5 36.5t29.5 56.5t18.5 63.5t9 70.5t3.5 64.5t0.5 57.5zM877 635q0 -79 -13 -165.5t-44.5 -178.5t-77.5 -164.5t-119.5 -119t-163.5 -46.5
q-107 0 -194.5 62.5t-135 162.5t-47.5 215q0 76 48.5 173t123.5 188t157 170t158 135q-5 19 -15 54.5t-15 54.5q-3 7 -7 17t-11 24t-11 24q-31 -22 -57.5 -47t-39.5 -39t-14 -14q-11 -7 -19 -26t-14.5 -34t-17.5 -14q-17 2 -44 22.5t-23 43.5l18 96l160 100q-25 44 -57 95.5
t-51 81t-19 30.5l28 41q115 -90 205 -180l170 104l94 -24q24 -5 30.5 -43t-1.5 -48q-4 -12 -37.5 -9.5t-50.5 -4.5q-1 0 -8 -2t-19.5 -6t-28 -10t-37 -15t-42.5 -20q126 -149 184 -313t58 -371z" />
    <glyph glyph-name="ntilde" unicode="&#xf1;" horiz-adv-x="1071" 
d="M991 1042q0 -188 -18.5 -370t-60.5 -373.5t-120.5 -368t-187.5 -309.5q-12 5 -33 4t-30 10q112 218 173.5 514t61.5 646q0 7 1 55.5t0 79t-3 85t-9.5 95t-19 87t-32 83.5t-47.5 63q-19 18 -58.5 -10t-87.5 -87.5t-90 -118.5t-80 -119q4 -282 4 -332q0 -495 19 -561
q8 -23 43.5 -40t46.5 -28q8 -8 10 -15.5t-4.5 -16t-9.5 -11.5t-13 -12q-6 -4 -17.5 -5.5t-26 -1.5t-19.5 -1q-28 -4 -70 6t-65 10q-24 0 -64 -8.5t-57 -7.5q-58 0 -66 16q-7 11 0 37q2 14 17.5 25t32.5 17t31 17t14 25q0 51 2 272.5t2 282.5q-4 472 -4 526q0 18 -4 39.5
t-7 24.5q-5 4 -27.5 6.5t-27.5 7.5q-14 16 -14 45q0 16 15.5 26.5t40.5 20t36 17.5q57 42 114.5 71t73.5 13q19 -19 32 -41t7 -33q-47 -103 -47 -197v-45q36 45 78.5 93t104 111t121 102.5t100.5 39.5q47 0 84.5 -17.5t62 -44.5t42.5 -68.5t27.5 -79.5t15 -88.5t6.5 -85
t1 -77.5zM1067 2216l36 -35q-29 -52 -69.5 -110t-90.5 -116.5t-103.5 -96.5t-96.5 -38q-31 0 -75.5 41.5t-82.5 92t-80 92t-69 41.5q-49 0 -107 -51t-98 -107q-6 -10 -17.5 -31t-19 -31.5t-14.5 -11.5l-37 33q29 52 70 110t91 116t103.5 96t95.5 38q37 0 82 -41.5t80 -91.5
t75.5 -91.5t70.5 -41.5q80 0 192 158q48 74 64 76z" />
    <glyph glyph-name="ograve" unicode="&#xf2;" horiz-adv-x="1021" 
d="M795 1587l-62 -18q-20 12 -53 33.5t-118.5 82t-152.5 114.5t-126.5 117.5t-69.5 104.5q-4 17 -5 29.5t3 20t9 13t15 7t18.5 1.5t22.5 -2t23.5 -4t25.5 -5.5t25 -5.5q17 -3 128.5 -125t213.5 -242zM737 993q-1 21 -3.5 59t-4 61t-5 58.5t-8 58t-13 52t-19 48t-27 38.5
t-37 31t-48 18.5t-60.5 7.5q-34 0 -62 -7.5t-48.5 -18.5t-37 -31t-28 -38.5t-20 -48t-13 -51.5t-8 -58t-5 -59t-4 -61t-3.5 -59q-13 -174 19 -390.5t91.5 -368.5t118.5 -152q36 0 73.5 58t67.5 152t53.5 214t31 244.5t-0.5 242.5zM963 836q0 -126 -28.5 -249t-73.5 -217
t-98 -175.5t-104 -134t-90 -82t-57 -29.5t-59 31.5t-94.5 87t-108.5 139t-100 177.5t-70.5 214t-18.5 238q41 667 451 667q101 0 181 -43.5t129.5 -112t82 -159t45.5 -177.5t13 -175z" />
    <glyph glyph-name="oacute" unicode="&#xf3;" horiz-adv-x="1021" 
d="M737 993q-1 21 -3.5 59t-4 61t-5 58.5t-8 58t-13 52t-19 48t-27 38.5t-37 31t-48 18.5t-60.5 7.5q-34 0 -62 -7.5t-48.5 -18.5t-37 -31t-28 -38.5t-20 -48t-13 -51.5t-8 -58t-5 -59t-4 -61t-3.5 -59q-13 -174 19 -390.5t91.5 -368.5t118.5 -152q36 0 73.5 58t67.5 152
t53.5 214t31 244.5t-0.5 242.5zM963 836q0 -126 -28.5 -249t-73.5 -217t-98 -175.5t-104 -134t-90 -82t-57 -29.5t-59 31.5t-94.5 87t-108.5 139t-100 177.5t-70.5 214t-18.5 238q41 667 451 667q101 0 181 -43.5t129.5 -112t82 -159t45.5 -177.5t13 -175zM833 2038
q17 -4 -123 -114t-289 -218l-149 -108l-47 27q339 296 448 407q27 26 47.5 33.5t32.5 2.5t35 -15.5t45 -14.5z" />
    <glyph glyph-name="ocircumflex" unicode="&#xf4;" horiz-adv-x="1021" 
d="M737 993q-1 21 -3.5 59t-4 61t-5 58.5t-8 58t-13 52t-19 48t-27 38.5t-37 31t-48 18.5t-60.5 7.5q-34 0 -62 -7.5t-48.5 -18.5t-37 -31t-28 -38.5t-20 -48t-13 -51.5t-8 -58t-5 -59t-4 -61t-3.5 -59q-13 -174 19 -390.5t91.5 -368.5t118.5 -152q36 0 73.5 58t67.5 152
t53.5 214t31 244.5t-0.5 242.5zM963 836q0 -126 -28.5 -249t-73.5 -217t-98 -175.5t-104 -134t-90 -82t-57 -29.5t-59 31.5t-94.5 87t-108.5 139t-100 177.5t-70.5 214t-18.5 238q41 667 451 667q101 0 181 -43.5t129.5 -112t82 -159t45.5 -177.5t13 -175zM719 1846
q17 -28 34 -66t28.5 -73.5t20 -69t8 -51t-6.5 -19.5q-8 0 -35.5 36.5t-69.5 92.5t-73 88l-109 101q-65 -60 -106 -101q-31 -32 -73 -88t-69.5 -92.5t-35.5 -36.5q-7 2 -6.5 19.5t9 51t20 69t28.5 73.5t33 66q24 41 72 89.5t84 76.5l36 28q17 -11 44 -30.5t84 -70.5t83 -93z
" />
    <glyph glyph-name="otilde" unicode="&#xf5;" horiz-adv-x="1021" 
d="M737 993q-1 21 -3.5 59t-4 61t-5 58.5t-8 58t-13 52t-19 48t-27 38.5t-37 31t-48 18.5t-60.5 7.5q-34 0 -62 -7.5t-48.5 -18.5t-37 -31t-28 -38.5t-20 -48t-13 -51.5t-8 -58t-5 -59t-4 -61t-3.5 -59q-13 -174 19 -390.5t91.5 -368.5t118.5 -152q36 0 73.5 58t67.5 152
t53.5 214t31 244.5t-0.5 242.5zM963 836q0 -126 -28.5 -249t-73.5 -217t-98 -175.5t-104 -134t-90 -82t-57 -29.5t-59 31.5t-94.5 87t-108.5 139t-100 177.5t-70.5 214t-18.5 238q41 667 451 667q101 0 181 -43.5t129.5 -112t82 -159t45.5 -177.5t13 -175zM1047 2216l36 -35
q-29 -52 -69.5 -110t-90.5 -116.5t-103.5 -96.5t-96.5 -38q-31 0 -75.5 41.5t-82.5 92t-80 92t-69 41.5q-49 0 -107 -51t-98 -107q-6 -10 -17.5 -31t-19 -31.5t-14.5 -11.5l-37 33q29 52 70 110t91 116t103.5 96t95.5 38q37 0 82 -41.5t80 -91.5t75.5 -91.5t70.5 -41.5
q80 0 192 158q48 74 64 76z" />
    <glyph glyph-name="odieresis" unicode="&#xf6;" horiz-adv-x="1021" 
d="M868 1753q0 -42 -22 -84h-2q-3 0 -12 -8t-20 -17.5t-15 -11.5q-71 -37 -101 -37q-80 0 -80 88q0 15 4.5 28t13.5 29t13 25q2 4 2.5 16t7.5 19q15 15 28 24t28.5 13.5t24.5 6t31 3t32 2.5q33 1 50 -27.5t17 -68.5zM451 1753q0 -40 -23 -84h-2q-3 0 -12 -8t-20 -17.5
t-15 -11.5q-71 -37 -100 -37q-80 0 -80 88q0 15 4.5 28t13 29t12.5 25q2 4 3 16t8 19q15 15 28 24t28.5 13.5t24.5 6t30.5 3t31.5 2.5q33 1 50.5 -28t17.5 -68zM737 993q-1 21 -3.5 59t-4 61t-5 58.5t-8 58t-13 52t-19 48t-27 38.5t-37 31t-48 18.5t-60.5 7.5
q-34 0 -62 -7.5t-48.5 -18.5t-37 -31t-28 -38.5t-20 -48t-13 -51.5t-8 -58t-5 -59t-4 -61t-3.5 -59q-13 -174 19 -390.5t91.5 -368.5t118.5 -152q36 0 73.5 58t67.5 152t53.5 214t31 244.5t-0.5 242.5zM963 836q0 -126 -28.5 -249t-73.5 -217t-98 -175.5t-104 -134t-90 -82
t-57 -29.5t-59 31.5t-94.5 87t-108.5 139t-100 177.5t-70.5 214t-18.5 238q41 667 451 667q101 0 181 -43.5t129.5 -112t82 -159t45.5 -177.5t13 -175z" />
    <glyph glyph-name="divide" unicode="&#xf7;" horiz-adv-x="1011" 
d="M637 821q0 -40 -23 -84h-2q-3 0 -12 -8t-20 -17.5t-15 -11.5q-69 -36 -100 -36q-82 0 -82 88q0 15 5 28t14.5 28.5t13.5 25.5q2 4 2.5 15.5t7.5 18.5q14 15 27 24t28.5 14t24 6.5t30.5 3t31 2.5q33 1 51.5 -28.5t18.5 -68.5zM637 231q0 -40 -23 -84h-2q-3 0 -12 -7.5
t-20 -17t-15 -11.5q-71 -37 -100 -37q-82 0 -82 88q0 15 5 28t14.5 28.5t13.5 25.5q2 4 2.5 16t7.5 19q14 15 27 24t28.5 13.5t24.5 6t30 3t31 2.5q33 1 51.5 -28.5t18.5 -68.5zM862 528l70 -63q1 -16 -7 -32t-18 -21q-11 -4 -40.5 8t-43.5 12l-21 2q-22 2 -56 4.5t-74 4.5
t-85 4t-81 2t-81.5 -2t-85.5 -4.5t-74.5 -4.5t-56.5 -4l-22 -2q-14 0 -43.5 -12t-40.5 -8q-9 5 -16 21t-4 32l65 63h359h356z" />
    <glyph glyph-name="oslash" unicode="&#xf8;" horiz-adv-x="1062" 
d="M758 993q-2 28 -5 85.5t-5 84.5q-240 -537 -369 -821q34 -119 73.5 -189.5t79.5 -70.5q45 0 91.5 89t79.5 221.5t49.5 296.5t5.5 304zM678 1368q-50 57 -146 57q-34 0 -62 -7.5t-48.5 -18.5t-37 -31t-28 -38.5t-20 -48t-13 -51.5t-8 -58t-5 -59t-4 -61t-3.5 -59
q-16 -240 41 -508q242 631 334 883zM958 1690q7 -1 -27 -88.5t-100 -241.5q79 -97 115.5 -238.5t36.5 -285.5q0 -126 -28.5 -249t-73.5 -217t-98 -175.5t-104 -134t-90 -82t-57 -29.5q-26 0 -95.5 62t-139.5 157l-104 -229l-46 41q40 104 101 260q-182 293 -166 596
q41 667 450 667q104 0 181 -41q46 123 57 174q6 21 14.5 35.5t22 21.5t24 11t30.5 2t30.5 -3t34.5 -6.5t32 -6.5z" />
    <glyph glyph-name="ugrave" unicode="&#xf9;" horiz-adv-x="1122" 
d="M795 1587l-62 -18q-20 12 -53 33.5t-118.5 82t-152.5 114.5t-126.5 117.5t-69.5 104.5q-4 17 -5 29.5t3 20t9 13t15 7t18.5 1.5t22.5 -2t23.5 -4t25.5 -5.5t25 -5.5q17 -3 128.5 -125t213.5 -242zM745 180q-51 -91 -131 -164t-147 -73q-66 0 -125 49q-65 54 -106.5 131.5
t-59 175t-23 171.5t-8.5 179v6v5v6q-6 188 -6 376q0 18 -2 52t-2 51q0 13 4 37t4 35q0 29 -13 43t-28 15.5t-28 13t-13 36.5q0 16 17 27.5t44 21.5t34 15q130 88 172 88q14 0 34.5 -28t20.5 -44v-6q-3 -9 -11 -32.5t-11.5 -33.5t-9.5 -30t-8.5 -33.5t-4.5 -32t-2 -35.5
q0 -102 4 -303t4 -301q0 -8 -0.5 -73t0.5 -92t4 -79t11.5 -89.5t21.5 -67.5q25 -57 62 -87.5t98 -33.5q20 0 85.5 65.5t121.5 155.5q5 365 4 405q0 108 -3.5 219t-3.5 281q0 18 -3.5 39.5t-6.5 24.5q-5 4 -26.5 6.5t-26.5 7.5q-16 19 -16 45q0 16 15.5 26.5t40.5 20t36 17.5
q62 44 117 72t71 12q19 -19 32 -41t7 -33q-43 -94 -43 -197q0 -124 1 -296t1 -204q0 -520 21 -587q5 -18 20 -28t35.5 -19t32.5 -21q8 -8 10 -15.5t-4.5 -16t-9.5 -11.5t-13 -12q-5 -4 -16 -5.5t-26.5 -1.5t-20.5 -1q-21 -3 -52 6.5t-49 9.5q-17 0 -44 -8.5t-44 -7.5
q-37 0 -47 16q-3 5 -3 11t1.5 13.5t1.5 12.5q1 12 4.5 36t3.5 48v59z" />
    <glyph glyph-name="uacute" unicode="&#xfa;" horiz-adv-x="1122" 
d="M745 180q-51 -91 -131 -164t-147 -73q-66 0 -125 49q-65 54 -106.5 131.5t-59 175t-23 171.5t-8.5 179v6v5v6q-6 188 -6 376q0 18 -2 52t-2 51q0 13 4 37t4 35q0 29 -13 43t-28 15.5t-28 13t-13 36.5q0 16 17 27.5t44 21.5t34 15q130 88 172 88q14 0 34.5 -28t20.5 -44
v-6q-3 -9 -11 -32.5t-11.5 -33.5t-9.5 -30t-8.5 -33.5t-4.5 -32t-2 -35.5q0 -102 4 -303t4 -301q0 -8 -0.5 -73t0.5 -92t4 -79t11.5 -89.5t21.5 -67.5q25 -57 62 -87.5t98 -33.5q20 0 85.5 65.5t121.5 155.5q5 365 4 405q0 108 -3.5 219t-3.5 281q0 18 -3.5 39.5t-6.5 24.5
q-5 4 -26.5 6.5t-26.5 7.5q-16 19 -16 45q0 16 15.5 26.5t40.5 20t36 17.5q62 44 117 72t71 12q19 -19 32 -41t7 -33q-43 -94 -43 -197q0 -124 1 -296t1 -204q0 -520 21 -587q5 -18 20 -28t35.5 -19t32.5 -21q8 -8 10 -15.5t-4.5 -16t-9.5 -11.5t-13 -12q-5 -4 -16 -5.5
t-26.5 -1.5t-20.5 -1q-21 -3 -52 6.5t-49 9.5q-17 0 -44 -8.5t-44 -7.5q-37 0 -47 16q-3 5 -3 11t1.5 13.5t1.5 12.5q1 12 4.5 36t3.5 48v59zM874 2038q17 -4 -123 -114t-289 -218l-149 -108l-47 27q339 296 448 407q27 26 47.5 33.5t32.5 2.5t35 -15.5t45 -14.5z" />
    <glyph glyph-name="ucircumflex" unicode="&#xfb;" horiz-adv-x="1122" 
d="M745 180q-51 -91 -131 -164t-147 -73q-66 0 -125 49q-65 54 -106.5 131.5t-59 175t-23 171.5t-8.5 179v6v5v6q-6 188 -6 376q0 18 -2 52t-2 51q0 13 4 37t4 35q0 29 -13 43t-28 15.5t-28 13t-13 36.5q0 16 17 27.5t44 21.5t34 15q130 88 172 88q14 0 34.5 -28t20.5 -44
v-6q-3 -9 -11 -32.5t-11.5 -33.5t-9.5 -30t-8.5 -33.5t-4.5 -32t-2 -35.5q0 -102 4 -303t4 -301q0 -8 -0.5 -73t0.5 -92t4 -79t11.5 -89.5t21.5 -67.5q25 -57 62 -87.5t98 -33.5q20 0 85.5 65.5t121.5 155.5q5 365 4 405q0 108 -3.5 219t-3.5 281q0 18 -3.5 39.5t-6.5 24.5
q-5 4 -26.5 6.5t-26.5 7.5q-16 19 -16 45q0 16 15.5 26.5t40.5 20t36 17.5q62 44 117 72t71 12q19 -19 32 -41t7 -33q-43 -94 -43 -197q0 -124 1 -296t1 -204q0 -520 21 -587q5 -18 20 -28t35.5 -19t32.5 -21q8 -8 10 -15.5t-4.5 -16t-9.5 -11.5t-13 -12q-5 -4 -16 -5.5
t-26.5 -1.5t-20.5 -1q-21 -3 -52 6.5t-49 9.5q-17 0 -44 -8.5t-44 -7.5q-37 0 -47 16q-3 5 -3 11t1.5 13.5t1.5 12.5q1 12 4.5 36t3.5 48v59zM739 1846q17 -28 34 -66t28.5 -73.5t20 -69t8 -51t-6.5 -19.5q-8 0 -35.5 36.5t-69.5 92.5t-73 88l-109 101q-65 -60 -106 -101
q-31 -32 -73 -88t-69.5 -92.5t-35.5 -36.5q-7 2 -6.5 19.5t9 51t20 69t28.5 73.5t33 66q24 41 72 89.5t84 76.5l36 28q17 -11 44 -30.5t84 -70.5t83 -93z" />
    <glyph glyph-name="udieresis" unicode="&#xfc;" horiz-adv-x="1122" 
d="M868 1753q0 -42 -22 -84h-2q-3 0 -12 -8t-20 -17.5t-15 -11.5q-71 -37 -101 -37q-80 0 -80 88q0 15 4.5 28t13.5 29t13 25q2 4 2.5 16t7.5 19q15 15 28 24t28.5 13.5t24.5 6t31 3t32 2.5q33 1 50 -27.5t17 -68.5zM451 1753q0 -40 -23 -84h-2q-3 0 -12 -8t-20 -17.5
t-15 -11.5q-71 -37 -100 -37q-80 0 -80 88q0 15 4.5 28t13 29t12.5 25q2 4 3 16t8 19q15 15 28 24t28.5 13.5t24.5 6t30.5 3t31.5 2.5q33 1 50.5 -28t17.5 -68zM745 180q-51 -91 -131 -164t-147 -73q-66 0 -125 49q-65 54 -106.5 131.5t-59 175t-23 171.5t-8.5 179v6v5v6
q-6 188 -6 376q0 18 -2 52t-2 51q0 13 4 37t4 35q0 29 -13 43t-28 15.5t-28 13t-13 36.5q0 16 17 27.5t44 21.5t34 15q130 88 172 88q14 0 34.5 -28t20.5 -44v-6q-3 -9 -11 -32.5t-11.5 -33.5t-9.5 -30t-8.5 -33.5t-4.5 -32t-2 -35.5q0 -102 4 -303t4 -301q0 -8 -0.5 -73
t0.5 -92t4 -79t11.5 -89.5t21.5 -67.5q25 -57 62 -87.5t98 -33.5q20 0 85.5 65.5t121.5 155.5q5 365 4 405q0 108 -3.5 219t-3.5 281q0 18 -3.5 39.5t-6.5 24.5q-5 4 -26.5 6.5t-26.5 7.5q-16 19 -16 45q0 16 15.5 26.5t40.5 20t36 17.5q62 44 117 72t71 12q19 -19 32 -41
t7 -33q-43 -94 -43 -197q0 -124 1 -296t1 -204q0 -520 21 -587q5 -18 20 -28t35.5 -19t32.5 -21q8 -8 10 -15.5t-4.5 -16t-9.5 -11.5t-13 -12q-5 -4 -16 -5.5t-26.5 -1.5t-20.5 -1q-21 -3 -52 6.5t-49 9.5q-17 0 -44 -8.5t-44 -7.5q-37 0 -47 16q-3 5 -3 11t1.5 13.5
t1.5 12.5q1 12 4.5 36t3.5 48v59z" />
    <glyph glyph-name="yacute" unicode="&#xfd;" 
d="M854 2038q17 -4 -123 -114t-289 -218l-149 -109l-47 27q339 297 448 408q27 26 47.5 33.5t32.5 2.5t35 -15.5t45 -14.5zM1006 1397q-17 -34 -32.5 -88.5t-15.5 -106.5v-207q0 -180 -31 -412t-86.5 -472t-147 -463t-199.5 -355q-12 5 -33.5 4.5t-30.5 10.5
q119 230 227 700q-94 17 -170 59t-174 119q-50 42 -94 115q-66 119 -86 295t-20 442q0 15 -2 47.5t-2 61.5t4 55q3 16 -1.5 38.5t-9.5 25.5q-3 2 -23 4t-28 10q-18 15 -18 43q0 20 14 30.5t41 19.5t39 16t31 18t33.5 19.5t32 18.5t31 16t26.5 10.5t22 4t14 -5.5
q48 -55 39 -73q-17 -33 -32 -87.5t-15 -107.5q0 -123 4 -251t4 -160v-52v-50.5v-45t1 -45t2 -39.5t3 -40t4.5 -34.5t6 -34.5t8 -29.5t10.5 -29.5q53 -123 120.5 -192t170.5 -111q14 0 23 6q7 2 14 17q82 398 82 684q0 6 -2 106t-2 187.5t4 113.5q3 15 -1.5 37.5t-8.5 26.5
q-3 2 -23.5 4t-28.5 10q-18 15 -18 43q0 20 13.5 30.5t41 19.5t39.5 16t31 18t33.5 19.5t32 18.5t31 16t26 10.5t21.5 4t14 -5.5q50 -50 41 -73z" />
    <glyph glyph-name="thorn" unicode="&#xfe;" horiz-adv-x="1091" 
d="M1010 1020q0 -182 -40.5 -348.5t-119.5 -306.5t-207 -239t-291 -136q1 -60 2.5 -91.5t3.5 -38t6 -13t7 -15.5q8 -25 43.5 -42t46.5 -28q6 -6 8 -11.5t2 -9.5t-3.5 -9.5t-6 -7.5t-8.5 -8l-7 -7q-6 -5 -17.5 -7t-27.5 -2.5t-20 -0.5q-27 -3 -68 6.5t-65 9.5t-64 -8.5
t-57 -7.5q-58 0 -66 16q-7 11 0 37q2 14 16.5 25t31 17t30 17t13.5 25q0 51 4 302.5t4 312.5q-8 932 -8 958q0 52 -9 61q-5 4 -26.5 8t-26.5 9q-16 19 -16 43q-1 16 14 27t40 20.5t36 17.5q62 43 119 70.5t73 11.5q50 -50 39 -71q-47 -103 -47 -197v-279q29 37 63 78.5
t85 96.5t97.5 97t95.5 71.5t83 29.5q48 0 86.5 -19t63 -47t42 -73t26.5 -83.5t13.5 -93t5.5 -87.5t1 -80zM352 51q123 70 211.5 168.5t138.5 217.5t72.5 247t22.5 277q0 32 -7 90t-20.5 128t-40.5 120.5t-61 50.5q-27 0 -74 -45.5t-97.5 -114t-85.5 -121t-61 -94.5
q0 -125 1 -317t1 -207v-400z" />
    <glyph glyph-name="ydieresis" unicode="&#xff;" 
d="M1006 1397q-17 -34 -32.5 -88.5t-15.5 -106.5v-207q0 -180 -31 -412t-86.5 -472t-147 -463t-199.5 -355q-12 5 -33.5 4.5t-30.5 10.5q119 230 227 700q-94 17 -170 59t-174 119q-50 42 -94 115q-66 119 -86 295t-20 442q0 15 -2 47.5t-2 61.5t4 55q3 16 -1.5 38.5
t-9.5 25.5q-3 2 -23 4t-28 10q-18 15 -18 43q0 20 14 30.5t41 19.5t39 16t31 18t33.5 19.5t32 18.5t31 16t26.5 10.5t22 4t14 -5.5q48 -55 39 -73q-17 -33 -32 -87.5t-15 -107.5q0 -123 4 -251t4 -160v-52v-50.5v-45t1 -45t2 -39.5t3 -40t4.5 -34.5t6 -34.5t8 -29.5
t10.5 -29.5q53 -123 120.5 -192t170.5 -111q14 0 23 6q7 2 14 17q82 398 82 684q0 6 -2 106t-2 187.5t4 113.5q3 15 -1.5 37.5t-8.5 26.5q-3 2 -23.5 4t-28.5 10q-18 15 -18 43q0 20 13.5 30.5t41 19.5t39.5 16t31 18t33.5 19.5t32 18.5t31 16t26 10.5t21.5 4t14 -5.5
q50 -50 41 -73zM889 1753q0 -40 -23 -84h-2q-3 0 -12 -7.5t-20 -17t-15 -11.5q-71 -37 -100 -37q-80 0 -80 88q0 15 4.5 28t13 29t12.5 25q2 4 3 16t8 19q15 15 28 24t28.5 13.5t24.5 6t30.5 3t31.5 2.5q33 1 50.5 -28.5t17.5 -68.5zM471 1753q0 -40 -23 -84h-2
q-3 0 -12 -7.5t-20 -17t-15 -11.5q-71 -37 -100 -37q-80 0 -80 88q0 15 4.5 28t13.5 29t13 25q2 4 2.5 16t7.5 19q15 15 28 24t28.5 13.5t24.5 6t30.5 3t31.5 2.5q33 1 50.5 -28.5t17.5 -68.5z" />
    <glyph glyph-name="dotlessi" unicode="&#x131;" horiz-adv-x="532" 
d="M463 47q8 -8 10 -15.5t-4.5 -16t-9.5 -11.5t-13 -12q-6 -4 -17.5 -5.5t-26 -1.5t-19.5 -1q-28 -4 -70 6t-65 10q-24 0 -64 -8.5t-57 -7.5q-58 0 -66 16q-7 11 0 37q2 14 17.5 25t32.5 17t31 17t14 25q0 51 2 272.5t2 282.5q-4 472 -4 526q0 18 -4 39.5t-7 24.5
q-5 4 -27.5 6.5t-27.5 7.5q-14 16 -14 45q0 16 15.5 26.5t40.5 20t36 17.5q57 42 114.5 71t73.5 13q19 -19 32 -41t7 -33q-47 -103 -47 -197q0 -124 3 -309t3 -217q0 -495 19 -561q8 -23 43.5 -40t46.5 -28z" />
    <glyph glyph-name="Lslash" unicode="&#x141;" horiz-adv-x="1069" 
d="M467 1001l113 -69q20 -12 23.5 -47.5t-3.5 -44.5q-6 -10 -39 -5t-51 -1l-18 -4q-18 -4 -51.5 -13.5t-67.5 -23.5q1 -87 2.5 -246t2.5 -268.5t1 -143.5q0 -16 9.5 -26t26 -19t23.5 -16h228q58 1 107.5 47t75.5 101t47.5 101t29.5 46q19 0 50.5 -100t31.5 -126
q0 -28 -0.5 -42.5t-4.5 -37.5t-12.5 -35t-24.5 -21t-40 -9h-512h-11h-120h-133q-4 1 -19.5 1t-27.5 2t-17 7q-39 26 -16 53q12 12 33.5 21.5t36.5 19.5t20 29q16 52 20 553q-37 -27 -59 -49q-11 -5 -20.5 -23t-18 -32.5t-19.5 -12.5q-16 2 -40.5 25t-20.5 47l8 131l170 86
v123q0 60 -4 425t-4 417q0 14 -13.5 25t-29.5 17t-31 17t-18 25q-4 29 0 37q4 7 20.5 11t31.5 5h15q16 1 56.5 -7.5t64.5 -8.5q21 0 62.5 10t70.5 6q5 -1 19.5 -1t26.5 -1.5t18 -5.5q39 -31 14 -56q-12 -12 -32.5 -21t-35.5 -18.5t-20 -27.5q-5 -16 -9 -65.5t-6 -122
t-3.5 -147t-1.5 -164v-149v-124.5v-70v-33z" />
    <glyph glyph-name="lslash" unicode="&#x142;" horiz-adv-x="530" 
d="M467 1001l113 -69q20 -12 23.5 -47.5t-3.5 -44.5q-6 -10 -39 -5t-51 -1q-1 0 -9.5 -2t-23 -5.5t-33 -8.5t-44 -14t-50.5 -20q0 -600 21 -669q8 -23 43.5 -40t46.5 -28q8 -8 10 -15.5t-3 -15.5t-9 -12t-13 -12q-6 -4 -17.5 -5.5t-27 -1.5t-20.5 -1q-28 -4 -69 6t-64 10
q-24 0 -64 -8.5t-57 -7.5q-58 0 -66 16q-7 11 0 37q2 14 16.5 25t31 17t30 17t13.5 25q0 29 1 117t2.5 215.5t2.5 214.5q-18 -14 -37 -33q-11 -5 -20.5 -23t-18 -32.5t-19.5 -12.5q-16 2 -40.5 25t-20.5 47l8 131l150 76v92q0 53 -4 311t-4 445q0 52 -9 61q-5 4 -26.5 8
t-26.5 9q-16 16 -16 43q-1 16 14 27t40 20.5t36 17.5q62 43 119 70.5t73 11.5q50 -50 39 -72q-47 -103 -47 -196q0 -120 2 -416.5t2 -333.5z" />
    <glyph glyph-name="OE" unicode="&#x152;" horiz-adv-x="1820" 
d="M874 1323q0 7 -4 76.5t-8 105.5q-11 110 -33 174q-11 31 -17 46.5t-17.5 40t-22 37t-28.5 29t-38 24t-48.5 13t-63.5 5.5q-48 0 -84.5 -10.5t-59 -25t-41 -43t-28.5 -52t-23 -64.5q-25 -74 -32 -174q-3 -30 -7.5 -91t-7.5 -91q-7 -129 -3 -280t29 -307.5t59 -284
t86.5 -208.5t111.5 -81q50 0 94.5 55t77 147t59 211.5t39 248.5t17 258.5t-6.5 240.5zM1741 143q0 -27 -1 -43t-5 -38t-12.5 -34t-24.5 -21t-39 -9h-1038v6q-13 -8 -27 -8q-23 0 -68.5 39.5t-103 108.5t-117.5 173.5t-110 223t-81.5 269t-31.5 300.5q0 101 4.5 183t18 174.5
t36 163t61.5 137.5t91.5 110.5t129 69.5t171.5 26q58 0 102 -8h959q23 0 39 -9t24 -21t12 -35t4.5 -37.5t0.5 -42.5q0 -26 -30.5 -126t-49.5 -100q-8 0 -22.5 30.5t-35 73.5t-47 86.5t-67.5 74t-88 30.5h-514q71 -53 118 -137t69.5 -193t31 -213t8.5 -237h158h270l72 -82
q5 -18 -4.5 -39t-20.5 -26q-10 -5 -41.5 9.5t-46.5 14.5l-12 3q-12 2 -32.5 5t-47 6.5t-63.5 6t-74 2.5q-73 0 -162 -13q-11 -159 -53 -310t-101.5 -267t-119 -201.5t-119.5 -144.5h688q58 0 107.5 46t75.5 101.5t47.5 101.5t29.5 46q19 0 50.5 -100t31.5 -126z" />
    <glyph glyph-name="oe" unicode="&#x153;" horiz-adv-x="1646" 
d="M758 993q-1 20 -3.5 59t-4 61.5t-5 58.5t-8 58t-13 51.5t-19.5 48t-27.5 38.5t-37 31t-48 18.5t-60.5 7.5q-34 0 -62 -7.5t-48.5 -18.5t-37 -31t-28 -38.5t-20 -48t-13 -51.5t-8 -58t-5 -59t-4 -61t-3.5 -59q-13 -174 19 -390.5t91.5 -368.5t118.5 -152q45 0 91.5 89
t79.5 221.5t49.5 296.5t5.5 304zM872 352q-42 -89 -96.5 -168.5t-102 -128.5t-85.5 -77.5t-56 -28.5t-59 31.5t-94 87t-108 139t-100 177.5t-70.5 214t-18.5 238q41 667 450 667q224 0 345 -209q117 209 309 209q108 0 196 -62.5t135.5 -162t47.5 -213.5q0 -76 -48.5 -174
t-124 -189t-157.5 -170t-158 -135q27 -93 31 -106q12 -39 64 -130t96 -160.5t47 -72.5l-31 -41q-297 237 -412 465zM1055 487q116 93 220.5 231.5t104.5 235.5q0 43 -18 120t-46.5 156t-72 137t-88.5 58q-34 0 -61.5 -15t-44.5 -36t-29.5 -56t-18.5 -64t-9.5 -70.5t-4 -64.5
t-0.5 -58q0 -277 68 -574z" />
    <glyph glyph-name="Scaron" unicode="&#x160;" horiz-adv-x="962" 
d="M901 608q0 -99 -51 -227.5t-132 -253.5t-180.5 -249t-196.5 -223t-181 -167l-35 55q1 13 34 49.5t84.5 88t114.5 116t125 141t114 154.5t84 165t32 165q0 69 -36 145.5t-93.5 147.5t-127 144.5t-139 146t-127 140.5t-93.5 139.5t-36 133.5q0 119 63 248t173.5 220
t230.5 91q43 0 131 -42.5t162 -103t74 -101.5q0 -42 -28 -136t-54 -94q-6 0 -31 38.5t-62.5 93.5t-81 110.5t-96 94t-98.5 38.5t-94 -54t-76 -119.5t-28 -107.5q0 -63 36 -138.5t94 -149t127.5 -151t139.5 -153t128 -144t94 -135t36 -116.5zM807 2345q0 -103 -101.5 -201
t-203.5 -98t-202.5 98t-100.5 201q0 39 11.5 53.5t28 8t32.5 -19t28 -25.5l11 -13q0 -78 62 -141.5t134 -61.5q45 1 80 21t53.5 47.5t30.5 54.5t15 46l3 19q3 4 9 10.5t21.5 23t29.5 24.5t28 12t22.5 -11t8.5 -48z" />
    <glyph glyph-name="scaron" unicode="&#x161;" horiz-adv-x="808" 
d="M705 1884q0 -103 -102 -201t-204 -98t-202.5 98t-100.5 201q0 39 11.5 53.5t28 8t32.5 -19t28 -25.5l11 -13q0 -77 62 -140.5t134 -61.5q45 1 80 21t53.5 47.5t30.5 54.5t15 46l4 19q3 4 9 10.5t21.5 22.5t29.5 24t28 12t22.5 -11t8.5 -48zM750 463q0 -93 -63.5 -219
t-159.5 -245.5t-193.5 -219.5t-181.5 -168l-27 43q1 13 44 56.5t103 106.5t120.5 137t102.5 164.5t42 172.5q0 60 -35.5 131.5t-88 135t-114.5 135.5t-114.5 134t-88 129.5t-35.5 122.5q0 89 51.5 187.5t139.5 167.5t180 69q53 0 165 -70.5t112 -117.5q0 -32 -27.5 -122.5
t-48.5 -90.5q-4 0 -31 50.5t-60.5 111t-82 111t-90.5 50.5q-27 0 -45 -23.5t-25.5 -61.5t-10.5 -68t-3 -60q0 -65 48 -149t116 -164t136.5 -157.5t116.5 -152.5t48 -126z" />
    <glyph glyph-name="Ydieresis" unicode="&#x178;" horiz-adv-x="1064" 
d="M868 2245q0 -42 -22 -84h-2q-3 0 -12 -8t-20 -17.5t-15 -11.5q-71 -37 -101 -37q-80 0 -80 88q0 15 4.5 28t13.5 29t13 25q2 4 2.5 16t7.5 19q15 15 28 24t28.5 13.5t24.5 6t31 3t32 2.5q33 1 50 -27.5t17 -68.5zM451 2245q0 -40 -23 -84h-2q-3 0 -12 -8t-20 -17.5
t-15 -11.5q-71 -37 -100 -37q-80 0 -80 88q0 15 4.5 28t13 29t12.5 25q2 4 3 16t8 19q15 15 28 24t28.5 13.5t24.5 6t30.5 3t31.5 2.5q33 1 50.5 -28t17.5 -68zM750 791l-13 -19q-9 -12 -25.5 -32t-23.5 -29q-63 -85 -63 -142q0 -386 18 -454q8 -23 43.5 -40t46.5 -28
q8 -8 10 -16t-2.5 -15.5t-9 -12t-12.5 -11.5q-6 -4 -18 -5.5t-27.5 -1.5t-20.5 -1q-28 -4 -69 6t-64 10q-24 0 -64 -8.5t-57 -7.5q-57 0 -65 16q-3 4 -3.5 9t0 8.5t2 10t1.5 9.5q2 14 16.5 25t30.5 17t29.5 17t13.5 25q0 30 1 104.5t2.5 181.5t2.5 162q0 52 -43 129
q-50 55 -94.5 123t-86 155.5t-65.5 195.5t-24 221l2 198v41v40.5t-1 31.5t-3.5 36t-6.5 31.5t-10 38.5q-7 25 -42.5 42.5t-45.5 27.5q-24 24 15 53q6 5 17.5 7.5t27.5 3t20 0.5q27 3 67 -7.5t64 -9.5q25 0 65 9t56 8q60 -1 68 -17q4 -8 0 -37q-2 -14 -17 -25t-32 -17
t-30.5 -17t-13.5 -25q0 -51 -3 -94t-3 -104l-2 -123q-1 -127 24.5 -269t61.5 -248.5t75 -176.5t65 -70q21 0 52.5 41.5t64 117.5t59 169t39.5 209.5t4 226.5l16 110q0 20 1 58.5t0.5 55.5t-4.5 45t-13 56q-7 25 -42.5 42.5t-45.5 27.5q-26 26 14 53q6 5 17.5 7.5t27 3
t18.5 0.5q28 3 69 -7.5t65 -9.5q24 0 64 9t56 8q58 -1 68 -17q4 -8 0 -37q-3 -14 -18 -25t-31 -17t-29.5 -17t-13.5 -25q0 -48 -1 -72t-4 -60.5t-5 -80.5l-11 -200q-13 -318 -194 -590q2 1 -2 -5z" />
    <glyph glyph-name="Zcaron" unicode="&#x17d;" horiz-adv-x="980" 
d="M899 147q0 -23 -0.5 -32.5t-2 -31.5t-6.5 -32.5t-13.5 -24t-23 -19t-34.5 -5.5h-657q-80 0 -80 39q0 122 80 375t179.5 500.5t202 524.5t134.5 423h-232q-33 0 -63 -15.5t-50.5 -35t-43 -55.5t-33 -57t-28.5 -60q-5 -10 -7 -15q-4 -12 -15.5 -34.5t-19.5 -22.5
q-14 0 -47 99.5t-33 125.5q0 23 0.5 32.5t2 31.5t6.5 32.5t13.5 24t23 19t34.5 5.5h609q14 0 24.5 -1t25.5 -4t22.5 -11.5t6.5 -21.5q-15 -158 -97 -413t-175 -485.5t-190 -496.5t-133 -428h278q41 0 76 19.5t65 62.5t43 67t38 78q3 7 5 10q4 12 15.5 35t19.5 23
q14 0 47 -100t33 -126zM807 2345q0 -103 -101.5 -201t-203.5 -98t-202.5 98t-100.5 201q0 39 11.5 53.5t28 8t32.5 -19t28 -25.5l11 -13q0 -78 62 -141.5t134 -61.5q45 1 80 21t53.5 47.5t30.5 54.5t15 46l3 19q3 4 9 10.5t21.5 23t29.5 24.5t28 12t22.5 -11t8.5 -48z" />
    <glyph glyph-name="zcaron" unicode="&#x17e;" horiz-adv-x="878" 
d="M745 1884q0 -103 -101.5 -201t-203.5 -98t-202.5 98t-100.5 201q0 39 11.5 53.5t27.5 8t32.5 -19t27.5 -25.5l12 -13q0 -77 62 -140.5t134 -61.5q45 1 80 21t53.5 47.5t30.5 54.5t16 46l3 19q3 4 9 10.5t21.5 22.5t29 24t27.5 12t22.5 -11t8.5 -48zM795 78
q0 -211 -823 -719q-13 -8 -19 -12l-29 47q35 26 114.5 83.5t118 86t105.5 81.5t102 85.5t81.5 80t69 84t39.5 79.5t17 83q0 38 -35 69t-85.5 48t-99 26t-83.5 9q-9 0 -50.5 -13.5t-55.5 -15.5l-31 45q90 178 141.5 284.5t122 267.5t120 312.5t83.5 307.5h-207
q-47 0 -88 -30.5t-67.5 -73.5t-47 -86.5t-35 -74t-22.5 -30.5q-19 0 -49.5 99.5t-30.5 125.5q0 28 0.5 43t4.5 38t12 34.5t24 21t39 9.5h549q61 0 77 -9q17 -9 17 -30q0 -141 -74.5 -359t-170.5 -408.5t-189 -332.5q45 0 90.5 -4t99 -14t99 -29t84 -46t60.5 -69t22 -94z" />
    <glyph glyph-name="florin" unicode="&#x192;" horiz-adv-x="722" 
d="M186 1178q0 47 2 115.5t2 92.5q-23 -2 -43.5 -4.5t-30.5 -3.5l-10 -2q-16 0 -45 -12t-38 -8q-10 5 -18 21t-5 32l66 64h120v63q1 90 52 188.5t138 168t179 69.5q33 0 100 -33t123 -79t56 -78q0 -31 -27.5 -122t-46.5 -91q-5 0 -32 50.5t-60.5 111t-82 111t-91.5 50.5
q-34 0 -60.5 -41t-37.5 -88t-11 -82l4 -198h197l67 -64q1 -16 -6.5 -32t-17.5 -21q-9 -4 -38.5 8t-45.5 12l-7 1q-8 1 -22.5 2.5t-32.5 3t-43 3.5t-51 3q0 -49 1 -121t1 -84v-469q-1 -149 -11.5 -291t-38 -302t-70 -301t-111 -280t-156.5 -246q-15 5 -23 3t-17.5 0t-20.5 12
q113 217 175 512.5t62 644.5q0 32 3 309.5t3 401.5z" />
    <glyph glyph-name="circumflex" unicode="&#x2c6;" horiz-adv-x="542" 
d="M475 1866q17 -28 34 -66t28.5 -73.5t20 -69t8 -51t-6.5 -19.5q-8 0 -35.5 36.5t-69.5 92.5t-73 88l-109 101q-65 -60 -106 -101q-31 -32 -73 -88t-69.5 -92.5t-35.5 -36.5q-7 2 -6.5 19.5t9 51t20 69t28.5 73.5t33 66q24 41 72 89.5t84 76.5l36 28q17 -11 44 -30.5
t84 -70.5t83 -93z" />
    <glyph glyph-name="caron" unicode="&#x2c7;" horiz-adv-x="772" 
d="M690 1905q0 -103 -101.5 -201t-203.5 -98t-202.5 98t-100.5 201q0 39 11.5 53.5t28 8t32.5 -19t28 -25.5l11 -13q0 -78 62 -141.5t134 -61.5q45 1 80 21t53.5 47.5t30.5 54.5t15 46l3 19q3 4 9 10.5t21.5 23t29.5 24.5t28 12t22.5 -11t8.5 -48z" />
    <glyph glyph-name="breve" unicode="&#x2d8;" horiz-adv-x="1046" 
d="M918 1989l47 -78q-38 -27 -88.5 -68.5t-96 -82t-85.5 -76.5t-66 -60t-27 -25q-12 1 -32 2.5t-64.5 3.5t-69.5 1q-38 32 -159 142t-195 163l47 78q83 -49 228.5 -159t166.5 -124q27 19 169 127t225 156z" />
    <glyph glyph-name="dotaccent" unicode="&#x2d9;" horiz-adv-x="415" 
d="M334 1853q0 -40 -23 -84h-2q-3 0 -12 -7.5t-20 -17t-15 -11.5q-71 -37 -100 -37q-80 0 -80 88q0 15 4.5 28t13.5 29t13 25q2 4 2.5 16t7.5 19q15 15 28 24t28.5 13.5t24.5 6t30.5 3t31.5 2.5q33 1 50.5 -28.5t17.5 -68.5z" />
    <glyph glyph-name="ring" unicode="&#x2da;" horiz-adv-x="772" 
d="M590 1681q0 78 -53.5 122t-147.5 44q-96 0 -150.5 -44t-54.5 -122q0 -79 66 -148t139 -69q72 0 136.5 69t64.5 148zM690 1683q0 -103 -101.5 -201t-203.5 -98t-202.5 98t-100.5 201q0 105 88.5 179.5t214.5 74.5q127 0 216 -74.5t89 -179.5z" />
    <glyph glyph-name="ogonek" unicode="&#x2db;" horiz-adv-x="616" 
d="M537 -471l-13 -41q-90 6 -155 37.5t-144 97.5q-43 34 -67 61.5t-41 56t-24 73.5t-9 90.5t-2 132.5q0 16 39 19t78 -2l39 -5q-15 -214 14 -280q46 -107 110 -159.5t175 -80.5z" />
    <glyph glyph-name="tilde" unicode="&#x2dc;" horiz-adv-x="1124" 
d="M1006 1905l36 -35q-29 -52 -69.5 -110t-90.5 -116.5t-103.5 -96.5t-96.5 -38q-31 0 -75.5 41.5t-82.5 92t-80 92t-69 41.5q-49 0 -107 -51t-98 -107q-6 -10 -17.5 -31t-19 -31.5t-14.5 -11.5l-37 33q29 52 70 110t91 116t103.5 96t95.5 38q37 0 82 -41.5t80 -91.5
t75.5 -91.5t70.5 -41.5q80 0 192 158q48 74 64 76z" />
    <glyph glyph-name="hungarumlaut" unicode="&#x2dd;" horiz-adv-x="610" 
d="M270 1935q11 -2 11.5 -29.5t-8.5 -80.5t-20 -107t-27.5 -133.5t-26.5 -136.5q-13 -2 -28.5 -11.5t-33.5 -6.5q-3 146 -14.5 245t-38.5 207q-15 62 47 69.5t121 -13.5zM516 1935q11 -2 11.5 -29.5t-8.5 -80t-20.5 -107t-28 -134t-26.5 -136.5q-13 -2 -28 -11.5t-33 -6.5
q-3 146 -14.5 245t-38.5 207q-15 62 47 69.5t121 -13.5z" />
    <glyph glyph-name="pi" unicode="&#x3c0;" horiz-adv-x="1380" 
d="M600 47q8 -8 10 -16t-2.5 -15.5t-9 -12t-12.5 -11.5q-6 -4 -18 -5.5t-27.5 -1.5t-20.5 -1q-28 -4 -69 6t-62 10q-25 0 -65 -8.5t-56 -7.5q-59 0 -67 16q-4 8 0 37q2 14 17 25t31.5 17t30 17t13.5 25q0 34 3.5 281.5t2.5 314.5q0 490 -14 581q-30 -37 -57 -93t-42.5 -90
t-23.5 -34q-19 0 -49.5 100t-30.5 126q0 29 0.5 43.5t4.5 37.5t12 34.5t24 20.5t39 9h108h133h121h148h39h149h133h121h105q23 0 39 -9t24 -20.5t12.5 -34t5 -38t0.5 -43.5q0 -26 -31 -126t-50 -100q-8 0 -24 37t-44.5 94.5t-60.5 94.5q-9 -518 -9 -596q0 -529 21 -596
q5 -18 20 -28t35.5 -19t32.5 -21q8 -8 10 -16t-2.5 -15.5t-9 -12t-12.5 -11.5q-6 -4 -18 -5.5t-27.5 -1.5t-20.5 -1q-28 -4 -69 6t-62 10q-25 0 -65 -8.5t-56 -7.5q-59 0 -67 16q-4 8 0 37q2 14 17 25t31.5 17t30 17t13.5 25q0 34 3.5 281.5t2.5 314.5q0 8 0.5 69.5
t0.5 111.5t-1 124t-3 128t-6 102t-10 67q-4 13 -10.5 22t-11.5 13t-16 11t-17 11h-125h-131q-7 -7 -23.5 -16t-26 -19t-9.5 -26q0 -51 -4 -297t-4 -307v-68.5v-111t1 -121t3 -127.5t6 -100.5t10 -67.5q5 -18 20 -28t35.5 -19t32.5 -21z" />
    <glyph glyph-name="endash" unicode="&#x2013;" horiz-adv-x="1069" 
d="M913 901l70 -113q12 -20 0 -50.5t-25 -41.5q-10 -7 -39 14t-45 21l-24 3q-24 3 -61 7.5t-80 9.5t-90 8t-82 3q-36 0 -83.5 -3t-91 -8t-81.5 -9.5t-62 -7.5l-24 -3q-14 0 -43.5 -21t-40.5 -14q-8 6 -16.5 21.5t-13 36t8.5 34.5l66 113h381h376z" />
    <glyph glyph-name="emdash" unicode="&#x2014;" horiz-adv-x="1560" 
d="M1405 901l70 -113q12 -20 0 -50.5t-25 -41.5q-10 -7 -39 14t-45 21l-49 3q-49 3 -123 7.5t-153 9.5t-151.5 8t-107.5 3q-36 0 -109 -3t-152.5 -8t-153 -9.5t-123.5 -7.5l-49 -3q-14 0 -43.5 -21t-40.5 -14q-8 6 -16.5 21.5t-13 36t8.5 34.5l66 113h626h623z" />
    <glyph glyph-name="quoteleft" unicode="&#x2018;" horiz-adv-x="468" 
d="M387 1946q-17 -49 -44 -119.5t-41.5 -110t-29 -94.5t-20.5 -109q-3 -29 -22 -39t-43.5 -3.5t-48 17t-40.5 21.5l-16 11q12 39 37.5 89.5t48.5 89t74 120.5t82 133q14 -4 33.5 0t29.5 -6z" />
    <glyph glyph-name="quoteright" unicode="&#x2019;" horiz-adv-x="468" 
d="M387 1890q-11 -32 -26 -65t-42 -79t-46 -77.5t-62.5 -101t-67.5 -107.5q-13 3 -32 -1t-29 7q17 49 43 119t40.5 109.5t29 95t20.5 108.5q4 29 23 39t43.5 3.5t48.5 -17.5t40 -22z" />
    <glyph glyph-name="quotesinglbase" unicode="&#x201a;" horiz-adv-x="524" 
d="M442 193q-18 -36 -51.5 -83.5t-58 -78.5t-91.5 -111.5t-98 -118.5q-16 5 -24.5 3t-17.5 0t-19 12q23 46 59.5 112t55.5 102.5t41 89t36 103.5q8 29 28.5 36t43.5 -2.5t45 -23.5t37 -27z" />
    <glyph glyph-name="quotedblleft" unicode="&#x201c;" horiz-adv-x="714" 
d="M387 1946q-17 -49 -44 -119.5t-41.5 -110t-29 -94.5t-20.5 -109q-3 -29 -22 -39t-43.5 -3.5t-48 17t-40.5 21.5l-16 11q12 39 37.5 89.5t48.5 89t74 120.5t82 133q14 -4 33.5 0t29.5 -6zM633 1946q-17 -49 -44 -119.5t-41.5 -110t-29 -94.5t-20.5 -109q-3 -29 -22 -39
t-43.5 -3.5t-48 17t-40.5 21.5l-16 11q12 39 38 90t48 88t74 121.5t81 132.5q14 -3 34 0t30 -6z" />
    <glyph glyph-name="quotedblright" unicode="&#x201d;" horiz-adv-x="714" 
d="M387 1890q-11 -32 -26 -65t-42 -79t-46 -77.5t-62.5 -101t-67.5 -107.5q-13 3 -32 -1t-29 7q17 49 43 119t40.5 109.5t29 95t20.5 108.5q4 29 23 39t43.5 3.5t48.5 -17.5t40 -22zM633 1890q-11 -32 -26 -65t-42 -79t-46 -77.5t-62.5 -101t-67.5 -107.5q-13 3 -32 -1
t-29 7q17 49 43 119t40.5 109.5t29 95t20.5 108.5q4 29 23 39t43.5 3.5t48.5 -17.5t40 -22z" />
    <glyph glyph-name="quotedblbase" unicode="&#x201e;" horiz-adv-x="892" 
d="M442 193q-18 -36 -51.5 -83.5t-58 -78.5t-91.5 -111.5t-98 -118.5q-16 5 -24.5 3t-17.5 0t-19 12q23 46 59.5 112t55.5 102.5t41 89t36 103.5q8 29 28.5 36t43.5 -2.5t45 -23.5t37 -27zM811 193q-18 -36 -51.5 -83.5t-58 -78.5t-91.5 -111.5t-98 -118.5q-16 5 -24.5 3
t-17.5 0t-19 12q23 46 59.5 112t55.5 102.5t41 89t36 103.5q8 29 28.5 36t43.5 -2.5t45 -23.5t36 -27z" />
    <glyph glyph-name="dagger" unicode="&#x2020;" horiz-adv-x="913" 
d="M520 1886q20 -3 27 -227h217l70 -64q1 -16 -7 -32t-18 -21q-10 -4 -39.5 8.5t-44.5 12.5q-1 0 -25 2t-68 5.5t-85 6.5q4 -384 -31 -573q-14 -2 -29 -11t-32 -6q-7 216 -56 592q-30 -1 -63 -3t-58.5 -4.5t-46 -4t-32.5 -3t-13 -1.5q-15 0 -44.5 -12.5t-39.5 -8.5
q-9 5 -16 21t-4 32l65 64h240q-15 112 -31 174q-15 60 33 68.5t105 -10.5q18 -3 26 -5z" />
    <glyph glyph-name="daggerdbl" unicode="&#x2021;" horiz-adv-x="913" 
d="M764 1364l70 -64q1 -16 -7 -32t-18 -21q-10 -4 -39.5 8.5t-44.5 12.5l-29 2q-29 3 -78.5 6.5t-95.5 5.5q-10 -145 -30 -278q-14 -2 -29.5 -11t-32.5 -6q-1 46 -14 297q-32 -1 -67 -3t-62.5 -4.5t-50.5 -4t-36 -3t-14 -1.5q-15 0 -44.5 -12.5t-39.5 -8.5q-9 5 -16 21
t-4 32l65 64h263q-6 96 -23 262q-45 -2 -94 -5.5t-78 -6.5l-29 -2q-15 0 -44.5 -12.5t-39.5 -8.5q-9 5 -16 21.5t-4 32.5l65 63h230q-9 80 -21 125q-15 60 33 68.5t105 -10.5q18 -3 26 -5q19 -3 19 -178h225l70 -63q1 -16 -7 -32.5t-18 -21.5q-10 -4 -39.5 8.5t-44.5 12.5
l-27 2q-26 3 -71.5 6.5t-87.5 5.5q-3 -106 -13 -262h238z" />
    <glyph glyph-name="bullet" unicode="&#x2022;" horiz-adv-x="661" 
d="M580 870q0 -105 -94.5 -192.5t-200.5 -87.5q-93 0 -148 58.5t-55 152.5q0 23 5 41.5t16 42.5t16 37q60 165 243 165q99 0 158.5 -59t59.5 -158z" />
    <glyph glyph-name="ellipsis" unicode="&#x2026;" horiz-adv-x="1251" 
d="M1169 133q0 -42 -22 -84h-2q-3 0 -12 -8t-20 -17.5t-15 -11.5q-71 -37 -101 -37q-79 0 -79 88q0 15 4.5 28t13 29t12.5 25q2 4 2.5 16t7.5 19q15 15 28 24t28.5 13.5t24.5 6t31 3t32 2.5q33 1 50 -27.5t17 -68.5zM752 133q0 -40 -23 -84h-2q-3 0 -12 -8t-20 -17.5
t-15 -11.5q-71 -37 -100 -37q-80 0 -80 88q0 15 4.5 28t13 29t12.5 25q2 4 3 16t8 19q15 15 28 24t28.5 13.5t24.5 6t30.5 3t31.5 2.5q33 1 50.5 -28t17.5 -68zM334 133q0 -40 -23 -84h-2q-3 0 -12 -8t-20 -17.5t-15 -11.5q-71 -37 -100 -37q-80 0 -80 88q0 15 4.5 28
t13.5 29t13 25q2 4 2.5 16t7.5 19q15 15 28 24t28.5 13.5t24.5 6t30.5 3t31.5 2.5q33 1 50.5 -28t17.5 -68z" />
    <glyph glyph-name="perthousand" unicode="&#x2030;" horiz-adv-x="2064" 
d="M1147 483q-1 8 -1.5 23.5t-1.5 28.5t-3 24q-7 66 -32.5 99.5t-90.5 33.5q-25 0 -44.5 -5.5t-32.5 -13.5t-22.5 -23.5t-14.5 -27t-9 -33.5t-5 -34t-2.5 -37t-2.5 -35q-8 -90 12.5 -198.5t55 -182t65.5 -73.5q30 0 64.5 70t54 179t10.5 205zM1313 403q0 -78 -25.5 -154
t-63.5 -130t-80 -96.5t-76 -64t-50 -21.5t-52 23t-80 67t-83 99t-63 129.5t-19 147.5q3 51 12 96t30 94t52.5 84t83.5 58t119 23q66 0 119 -23.5t85 -60.5t53.5 -85.5t29.5 -94t8 -91.5zM1108 1690q18 -3 -173 -440.5t-391 -873.5l-200 -437l-47 41q578 1474 625 1656
q6 21 14.5 35.5t22 21.5t24 11t30.5 2t29.5 -3t34 -6.5t31.5 -6.5zM508 1442q-1 8 -1.5 23.5t-1.5 28.5t-3 24q-7 66 -32.5 99.5t-90.5 33.5q-25 0 -44.5 -5.5t-32.5 -13.5t-22.5 -23.5t-14.5 -27t-9 -33.5t-5 -34t-2.5 -37t-2.5 -35q-8 -90 12.5 -199t55 -182.5t65.5 -73.5
q30 0 64.5 70t54 179.5t10.5 205.5zM674 1362q0 -78 -25.5 -154t-63.5 -130.5t-80 -97t-76 -64t-50 -21.5q-21 0 -70.5 37.5t-103.5 97.5t-91.5 151t-31.5 181q3 51 12 95.5t30 94t52.5 84t83.5 57.5t119 23q66 0 119 -23.5t85 -60t53.5 -85t29.5 -94t8 -91.5zM1817 483
q-1 12 -3.5 37.5t-3.5 38.5q-7 67 -32.5 100t-91.5 33q-24 0 -43.5 -5.5t-32 -13.5t-22.5 -23.5t-15 -27t-9 -33.5t-5 -34t-2.5 -37t-2.5 -35q-8 -90 12.5 -198.5t55 -182t64.5 -73.5q31 0 65.5 70t54.5 178.5t11 205.5zM1982 403q0 -78 -25.5 -154t-63.5 -130t-80 -96.5
t-76 -64t-51 -21.5q-16 0 -51.5 23t-79.5 67t-82.5 99t-62.5 129.5t-19 147.5q3 51 12 96t30 94t52 84t83 58t118 23q67 0 120 -23.5t85 -60.5t53.5 -85.5t29.5 -94t8 -91.5z" />
    <glyph glyph-name="guilsinglleft" unicode="&#x2039;" horiz-adv-x="729" 
d="M649 928q-3 -13 -30.5 -43.5t-38.5 -38.5q-124 -133 -347 -352l400 -463l-62 -41l-489 502q1 1 48.5 46.5t99.5 97t109.5 110t96 104.5t41.5 61q7 33 19.5 50.5t32 19t34.5 -1.5t39 -13t33 -12q18 -4 14 -26z" />
    <glyph glyph-name="guilsinglright" unicode="&#x203a;" horiz-adv-x="694" 
d="M612 510l-458 -514l-70 12l375 498q-8 7 -41 37.5t-59.5 54.5t-65.5 60t-69 65t-59 58t-47 49.5t-22 29.5q-20 46 -13 73t34 32q13 2 27 0t32 -6t27 -5q4 -1 106.5 -112t202.5 -222z" />
    <glyph glyph-name="fraction" unicode="&#x2044;" horiz-adv-x="403" 
d="M606 1690q17 -3 -174 -440.5t-390 -873.5l-200 -437l-47 41q578 1474 625 1656q6 21 14.5 35.5t22 21.5t24 11t30.5 2t29.5 -3t34 -6.5t31.5 -6.5z" />
    <glyph glyph-name="Euro" unicode="&#x20ac;" horiz-adv-x="1067" 
d="M862 621l70 -64q1 -16 -7 -32t-18 -19q-11 -4 -40.5 7t-43.5 11q-1 0 -21 2t-52.5 4.5t-70 5t-81.5 4.5t-80 3q26 -119 82 -252q17 -43 44.5 -95.5t54.5 -98t51.5 -84.5t39.5 -62l15 -23l-29 -41q-203 164 -319 316t-164 329q-26 -2 -52.5 -4t-40 -3t-14.5 -1
q-14 0 -43.5 -11t-40.5 -7q-8 3 -15.5 20t-4.5 31l65 64h127q-16 106 -16 204q-18 -1 -35.5 -2.5t-26.5 -2.5l-10 -1q-14 0 -43.5 -11t-40.5 -7q-8 3 -15.5 20t-4.5 31l65 63h115q6 73 19 143t45.5 154t79 145.5t124 103.5t175.5 42q33 0 100 -32.5t123.5 -78t56.5 -77.5
q0 -31 -28.5 -122t-47.5 -91q-5 0 -32 50.5t-60.5 111t-82 111t-91.5 50.5q-34 0 -61 -15t-44 -36t-29 -56t-18 -64t-9.5 -70.5t-4 -64.5t-0.5 -58v-146h29h356l70 -63q1 -16 -7 -32t-18 -19q-11 -4 -40.5 7t-43.5 11l-21 2q-22 2 -56 5t-74 6t-85 5t-81 1h-25
q6 -114 23 -217h2h356z" />
    <glyph glyph-name="trademark" unicode="&#x2122;" horiz-adv-x="892" 
d="M289 1419q4 -4 -4 -16q-4 -2 -13 -2q-7 0 -18 2t-18 2q-8 0 -19 -2t-16 -2q-11 0 -13 4v10q1 6 11 12.5t10 12.5q0 14 1 115.5t1 119.5q0 213 -6 236q-1 3 -2.5 5.5t-3.5 4t-4.5 3t-4.5 3.5h-14q-21 0 -37 -20.5t-24.5 -41t-10.5 -20.5q-5 0 -13.5 27.5t-8.5 34.5
q0 14 0.5 20.5t5.5 13.5t16 7h99h16h21h16h16h99q11 0 16 -7t5.5 -13.5t0.5 -20.5q0 -7 -8.5 -34.5t-13.5 -27.5q-2 0 -10.5 20.5t-24.5 41t-37 20.5h-16q-2 -2 -5 -4t-5.5 -3.5t-4.5 -4.5t-2 -6q0 -14 -1 -116.5t-1 -119.5q0 -218 6 -235q1 -5 3.5 -8t7.5 -5.5t8 -5.5z
M518 1419q4 -4 -4 -16q-4 -2 -12 -2q-8 -1 -19.5 1.5t-17.5 2.5q-7 0 -19 -2t-16 -2q-10 0 -12 4q-3 7 0 10q1 6 10.5 12.5t9.5 12.5q0 14 1 115.5t1 119.5q0 213 -6 236q-1 4 -3 6.5t-4 4t-5.5 3.5t-5.5 4q-9 9 4 17q4 2 12 2q3 0 8 -2t9 -2q7 -1 17.5 1.5t14.5 2.5
q11 0 13 -4q2 -2 2 -7q25 -18 53 -77q43 -98 65 -189q18 83 64 189q28 59 53 77q0 5 2 7l12 4q4 0 15 -2.5t18 -1.5q4 0 9.5 2t9.5 2q8 0 12 -2q11 -10 4 -17q-3 -2 -6.5 -4t-5.5 -3.5t-4.5 -4t-3.5 -6.5q-5 -19 -5 -236q-1 -21 1 -127.5t2 -107.5q0 -6 8.5 -12.5t9.5 -12.5
q3 -3 0 -10l-12 -4q-4 0 -15.5 2t-19.5 2q-8 1 -19.5 -1.5t-17.5 -2.5q-8 0 -12 2q-10 10 -4 16q3 3 8 5.5t7.5 5.5t4.5 8q4 15 4 237v140q-3 11 -6 14q-1 1 -3.5 -1.5t-8.5 -10.5q-8 -20 -17 -39q-59 -130 -69 -256l-2 -15v-57q-3 -1 -7.5 0.5t-5.5 1.5q-2 0 -6.5 -1.5
t-7.5 -0.5v57l-2 15q-9 123 -70 256q-10 25 -16 41q-11 11 -12 10q-2 -2 -6 -14v-140q0 -222 4 -237q2 -5 4.5 -8t7.5 -5.5t8 -5.5z" />
    <glyph glyph-name="Omega" unicode="&#x2126;" horiz-adv-x="1282" 
d="M578 70l-15 -70h-401q-23 0 -39 9t-24 21t-12 35t-4.5 37.5t-0.5 42.5q0 26 30.5 126t49.5 100q8 0 22.5 -30.5t35 -73.5t47 -86.5t67.5 -74t88 -30.5h57q-63 80 -121 181t-112 230.5t-86.5 287t-32.5 315.5q0 105 4.5 190.5t18 181t36.5 169t62 142.5t92 114.5
t129.5 72.5t171.5 27q75 0 138 -16.5t111 -45t87 -72.5t66.5 -93.5t47.5 -113t32 -126t19.5 -138.5t10 -144t2.5 -148q0 -121 -31.5 -262t-72.5 -252t-96 -225.5t-87.5 -172t-60.5 -102.5h53q58 1 107.5 47t75.5 101t47.5 101t29.5 46q19 0 50.5 -100t31.5 -126
q0 -27 -1 -43t-5 -38t-12.5 -34t-24.5 -21t-39 -9h-399l-14 68q-8 16 -11 33t6 28q79 62 137 268.5t79 454.5t4 459q-3 30 -13 188q-10 104 -35 180q-12 37 -19 56.5t-20.5 47.5t-29 42.5t-38.5 29.5t-54 21t-72 6t-72.5 -6t-54.5 -21t-39 -29.5t-30 -42t-22 -47t-20 -55.5
q-21 -66 -32 -182q-2 -34 -6.5 -97.5t-6.5 -90.5q-16 -199 6 -449.5t82 -464.5t140 -272q13 -8 -8 -55z" />
    <glyph glyph-name="partialdiff" unicode="&#x2202;" horiz-adv-x="958" 
d="M877 635q0 -79 -13 -165.5t-44.5 -178.5t-77.5 -164.5t-119.5 -119t-163.5 -46.5q-107 0 -194.5 62.5t-135 162.5t-47.5 215q0 76 48.5 173t123.5 188t157 170t158 135q-5 19 -15 54.5t-15 54.5q-8 24 -32 70t-53 94t-57 92.5t-47 73.5l-18 30l28 41q279 -223 398 -436
t119 -506zM590 977q-116 -92 -220 -230.5t-104 -234.5q0 -44 17.5 -121t46.5 -156.5t73 -137.5t89 -58q34 0 61.5 15t44.5 36.5t29.5 56.5t18.5 63.5t9 70.5t3.5 64.5t0.5 57.5q0 272 -69 574z" />
    <glyph glyph-name="Delta" unicode="&#x2206;" 
d="M979 117l-37 -125q-4 -23 -10 -31v-4h-2q-6 -9 -12 -12q-11 -4 -40.5 8t-43.5 12q-1 0 -22 2t-55 4.5t-73 4.5t-83.5 4t-80.5 2q-35 0 -77.5 -2t-78.5 -4t-66.5 -4.5t-49.5 -4.5l-19 -2q-16 0 -45.5 -12t-38.5 -8q-6 2 -14 14l-2 -2l-2 10q-4 8 -4 13l-41 137
q58 83 147.5 252t150.5 297l60 127l170 16q26 -55 68.5 -142.5t141 -274.5t159.5 -275zM238 111h282h303q-61 96 -134 227t-116 214l-43 83q-155 -309 -292 -524z" />
    <glyph glyph-name="product" unicode="&#x220f;" horiz-adv-x="1380" 
d="M600 47q8 -8 10 -16t-2.5 -15.5t-9 -12t-12.5 -11.5q-6 -4 -18 -5.5t-27.5 -1.5t-20.5 -1q-28 -4 -69 6t-62 10q-25 0 -65 -8.5t-56 -7.5q-59 0 -67 16q-4 8 0 37q2 14 17 25t31.5 17t30 17t13.5 25q0 26 3.5 400t2.5 442q0 715 -14 825q-30 -36 -57 -91.5t-42.5 -89.5
t-23.5 -34q-19 0 -49.5 99.5t-30.5 125.5q0 24 0.5 36.5t2.5 33t7 31.5t13.5 23t23 17t33.5 5h108h133h121h148h39h149h133h121h105q23 0 39 -9t24 -21t12.5 -34.5t5 -38t0.5 -43.5q0 -26 -31 -125.5t-50 -99.5q-8 0 -24 36.5t-44.5 94t-60.5 94.5q-9 -562 -9 -842
q0 -774 21 -841q5 -18 20 -28t35.5 -19t32.5 -21q8 -8 10 -16t-2.5 -15.5t-9 -12t-12.5 -11.5q-6 -4 -18 -5.5t-27.5 -1.5t-20.5 -1q-28 -4 -69 6t-62 10q-25 0 -65 -8.5t-56 -7.5q-59 0 -67 16q-4 8 0 37q2 14 17 25t31.5 17t30 17t13.5 25q0 26 3.5 400t2.5 442
q0 8 0.5 70.5t0.5 125t-0.5 150.5t-1.5 165t-3 149t-6 121.5t-9 65.5q-4 13 -10.5 22.5t-11.5 13.5t-16.5 11t-16.5 11h-125h-131q-6 -6 -23 -16t-26.5 -20t-9.5 -26q0 -51 -4 -420t-4 -430v-70v-124.5v-148.5t1.5 -163.5t3.5 -147t6 -122t9 -65.5q5 -18 20 -28t35.5 -19
t32.5 -21z" />
    <glyph glyph-name="summation" unicode="&#x2211;" horiz-adv-x="1085" 
d="M1006 143q0 -27 -1 -43t-5 -38t-12.5 -34t-24.5 -21t-39 -9h-518h-5h-133h-121q-37 0 -47 16q-4 8 0 37q4 19 22 40t34 33l16 11q20 29 54 79t120 181.5t152 238t120 209.5t54 136q-1 40 -129 247t-255 394l-128 188l-70 70q-23 27 16 53q8 8 19 8v3l795 2q23 0 39 -9.5
t23.5 -20.5t11.5 -34.5t4.5 -37.5t0.5 -44q0 -26 -30 -125.5t-49 -99.5q-8 0 -22.5 30.5t-35 73.5t-47.5 86.5t-68 74t-88 30.5h-282q-25 -19 -4 -59q4 -8 6 -10v5q20 -29 52.5 -77.5t115.5 -176.5t147 -232.5t116 -205t52 -133.5q0 -41 -117.5 -253t-235.5 -404l-118 -191
q-17 -17 -19.5 -22.5t9 -14.5t18.5 -20h265q58 1 107.5 47t75.5 101t47.5 101t29.5 46q19 0 50.5 -100t31.5 -126z" />
    <glyph glyph-name="minus" unicode="&#x2212;" horiz-adv-x="823" 
d="M668 696l69 -112q12 -20 0.5 -50.5t-24.5 -41.5q-10 -7 -39 13.5t-45 20.5l-11 3q-11 3 -30.5 8t-44.5 9.5t-59.5 7.5t-69.5 3q-36 0 -71 -3t-60.5 -7.5t-45 -9.5t-31.5 -8l-11 -3q-14 0 -43.5 -20.5t-40.5 -13.5q-7 6 -16 22t-13.5 35.5t6.5 34.5l68 112h258h254z" />
    <glyph glyph-name="radical" unicode="&#x221a;" horiz-adv-x="1458" 
d="M1370 1546l39 -16q-128 -150 -224 -278.5t-212 -307.5q-14 -22 -52 -80t-51 -78.5t-42 -67t-44 -73.5t-38.5 -69.5t-43 -83t-40.5 -86.5q-28 -62 -71 -192t-61 -155q-5 2 -24.5 -11t-35.5 -26l-17 -14q-103 361 -123 424q-25 -3 -77 -15t-91 -23l-39 -11l-41 109l354 40
q16 -42 34.5 -149.5t21.5 -118.5q4 11 26 70t46 121t48 114q72 152 137 257.5t171 246.5q119 156 212.5 255t237.5 218z" />
    <glyph glyph-name="infinity" unicode="&#x221e;" horiz-adv-x="1777" 
d="M844 776q0 54 -49.5 104.5t-122 82.5t-156 47.5t-149.5 5.5q-6 -1 -35 -4t-41.5 -5t-33.5 -9t-36 -17q-37 -25 -56.5 -70.5t-19.5 -134.5q0 -87 19 -132t57 -71q29 -17 70 -24q12 -2 38 -5t38 -5q95 -14 206.5 14t191 89.5t79.5 133.5zM1632 776q0 87 -20 132.5t-56 70.5
q-26 18 -69 25q-12 2 -37.5 5t-38.5 5q-96 15 -207.5 -13.5t-190.5 -90.5t-79 -134q0 -71 82 -133t194 -91t201 -15q12 2 35.5 5t39 5t35.5 8.5t35 15.5q37 25 56.5 70.5t19.5 134.5zM891 655q-31 -57 -71.5 -110t-95.5 -104t-125 -82t-144 -31q-60 0 -109.5 10t-100 39.5
t-85 77.5t-56.5 130t-22 191t22 191t56.5 131t85 78.5t100 40t109.5 10.5q69 0 138 -31t124 -82.5t97 -105t73 -109.5q31 57 71.5 110t95 104.5t124.5 82.5t143 31q60 0 110 -10.5t101 -40t85.5 -78.5t56.5 -131t22 -191t-22 -190.5t-56.5 -129.5t-85.5 -78t-101 -40
t-110 -10q-69 0 -137 31t-123 82t-97 104.5t-73 109.5z" />
    <glyph glyph-name="integral" unicode="&#x222b;" horiz-adv-x="1052" 
d="M971 1772q0 -32 -26.5 -122.5t-47.5 -90.5q-5 0 -32 50.5t-60.5 111t-82 111t-91.5 50.5q-49 0 -79 -75.5t-28 -135.5q4 -393 4 -487v-469q0 -148 -10.5 -291t-38 -302.5t-70 -301t-110.5 -280t-156 -245.5q-16 5 -24.5 3t-17.5 0t-19 12q112 218 173.5 513.5t61.5 643.5
q0 14 4 298.5t3 412.5v358q0 89 51.5 188t138.5 168.5t178 69.5q33 0 100 -33t123 -79t56 -78z" />
    <glyph glyph-name="approxequal" unicode="&#x2248;" horiz-adv-x="1222" 
d="M1006 430l36 -35q-29 -52 -69.5 -110t-90.5 -116t-103.5 -96t-96.5 -38q-31 0 -75.5 41.5t-82.5 91.5t-80 91.5t-69 41.5q-49 0 -107 -51t-98 -107q-6 -10 -17.5 -30.5t-19 -31t-14.5 -11.5l-37 32q29 52 70 110t91 116.5t103.5 96.5t95.5 38q37 0 82 -41.5t80 -91.5
t75.5 -91.5t70.5 -41.5q81 0 192 157q48 74 64 76zM1104 725l37 -35q-41 -73 -97.5 -150t-132 -143.5t-131.5 -66.5q-31 0 -75.5 41.5t-82.5 91.5t-80 91.5t-69 41.5q-49 0 -107 -51t-98 -107q-6 -10 -17.5 -30.5t-19 -31t-14.5 -11.5l-37 32q29 52 70 110t91 116.5
t104 96.5t96 38q31 0 65.5 -27.5t65.5 -66.5t60.5 -78t60 -66.5t55.5 -27.5q81 0 192 157q48 74 64 76z" />
    <glyph glyph-name="notequal" unicode="&#x2260;" horiz-adv-x="1011" 
d="M862 479l70 -63q1 -16 -7 -32.5t-18 -21.5q-10 -4 -39.5 8.5t-44.5 12.5l-21 1q-22 2 -56 4.5t-74 5t-85 4t-81 1.5q-70 0 -107 -2l-274 -458l-43 28q96 193 213 424q-26 -2 -53 -4t-41 -3t-15 -1q-15 0 -44.5 -12.5t-39.5 -8.5q-9 5 -16 21.5t-4 32.5l65 63h193
q53 107 106 215q-33 -1 -72 -3t-70.5 -4.5t-58 -4t-42.5 -3t-17 -1.5q-15 0 -44.5 -12.5t-39.5 -8.5q-9 5 -16 21.5t-4 32.5l65 63h338q182 369 197 416q5 15 13.5 26t21 16t23 7.5t28.5 1.5t29 -2.5t32.5 -5t30.5 -4.5q11 -1 -53.5 -120.5t-188.5 -334.5h244l70 -63
q1 -16 -7 -32.5t-18 -21.5q-10 -4 -39.5 8.5t-44.5 12.5q-1 0 -38.5 2.5t-99 6.5t-112.5 7q-15 -25 -59 -100t-68 -115h60h356z" />
    <glyph glyph-name="lessequal" unicode="&#x2264;" horiz-adv-x="1011" 
d="M862 111l70 -64q1 -16 -7 -32t-18 -21q-11 -4 -40.5 8t-43.5 12l-21 2q-22 2 -56 4t-74 4.5t-85 4.5t-81 2t-81.5 -2t-85.5 -4.5t-74.5 -4.5t-56.5 -4l-22 -2q-14 0 -43.5 -12t-40.5 -8q-9 5 -16 21t-4 32l65 64h359h356zM899 1171q-3 -13 -39 -42t-59 -44
q-104 -81 -496 -366l572 -481l-86 -41l-703 522q102 67 329.5 232.5t237.5 201.5q9 34 27 52.5t45 20t49.5 -2t56 -12.5t48.5 -11q10 -1 15 -10t3 -19z" />
    <glyph glyph-name="greaterequal" unicode="&#x2265;" horiz-adv-x="1048" 
d="M862 111l70 -64q1 -16 -7 -32t-18 -21q-11 -4 -40.5 8t-43.5 12l-21 2q-22 2 -56 4t-74 4.5t-85 4.5t-81 2t-81.5 -2t-85.5 -4.5t-74.5 -4.5t-56.5 -4l-22 -2q-14 0 -43.5 -12t-40.5 -8q-9 5 -16 21t-4 32l65 64h359h356zM969 745l-744 -524l-114 10l610 510
q-560 320 -590 361q-34 48 -21.5 75.5t56.5 32.5q32 1 45.5 0t46 -5t45.5 -5q7 -1 173.5 -114.5t329.5 -227.5z" />
    <glyph glyph-name="lozenge" unicode="&#x25ca;" horiz-adv-x="1153" 
d="M573 778q-61 -65 -282 -286l303 -351l270 361q-191 171 -291 276zM1073 508l-405 -453l-15 -18l-12 -12l-27 -29l-14 2l-20 -14l-21 20l-22 19l-17 20l-438 449q4 4 74 71t132.5 128t120 123.5t60.5 80.5q8 43 27.5 64.5t47.5 21.5t64 -12q5 -2 16.5 -5.5t16.5 -5.5
l14 -4q4 -1 108.5 -112.5t206.5 -222.5z" />
    <glyph glyph-name="apple" unicode="&#xf8ff;" horiz-adv-x="1617" 
d="M1534 414q-36 -119 -125 -256q-134 -201 -264 -201q-59 0 -144 33q-101 33 -155 33q-62 0 -146 -35q-87 -35 -137 -35q-158 0 -307 266q-152 268 -152 516q0 236 117 383q115 148 291 148q70 0 182 -31q108 -31 142 -31q42 0 145 35q107 35 178 35q122 0 219 -66
q53 -36 107 -102q-85 -75 -117 -123q-68 -95 -68 -211q0 -125 72 -229q70 -102 162 -129zM1149 1618q0 -62 -31 -141t-94 -142q-58 -55 -113 -73q-31 -11 -104 -17q0 149 78 262q80 111 258 154q4 -20 4 -25q0 -3 1 -9t1 -9z" />
    <glyph glyph-name="fi" unicode="&#xfb01;" horiz-adv-x="1193" 
d="M838 1772q0 -31 -27.5 -122t-46.5 -91q-5 0 -32 50.5t-60.5 111t-82 111t-91.5 50.5q-34 0 -60.5 -41t-37.5 -88t-11 -82l-2 -198h137h451q33 10 43 0q22 -22 37 -48l16 -16q1 -16 -6.5 -32t-17.5 -21h-7q-28 -86 -28 -154q0 -124 2 -309t2 -217v-66v-104t1 -113
t3 -119.5t6 -94t10 -64.5q5 -18 20 -28t35.5 -19t32.5 -21q8 -8 10 -15.5t-4 -16t-9 -12t-13 -11.5q-5 -4 -16.5 -5.5t-25.5 -1.5t-19 -1q-29 -4 -71.5 6t-64.5 10q-25 0 -64.5 -8.5t-55.5 -7.5q-60 0 -68 16q-4 8 0 37q2 14 17 25t32 17t31 17t14 25q0 29 2.5 257.5
t1.5 297.5q0 108 -2 232t-2 294q0 6 -1 29.5t-2.5 58t-2.5 56.5q-7 17 -16 26q-8 8 -23 12q-198 9 -248 9q-35 0 -137 -4q0 -107 -1 -274t-1 -177v-68v-121.5v-145.5t1 -160t3 -144.5t5.5 -119t8.5 -64.5q8 -23 43 -40t46 -28q8 -8 10 -15.5t-3 -15.5t-9 -12t-13 -12
q-6 -4 -17.5 -5.5t-26 -1.5t-19.5 -1q-28 -4 -70 6t-65 10q-24 0 -64 -8.5t-57 -7.5q-58 0 -66 16q-3 4 -3.5 9t0 8.5t2 10t1.5 9.5q2 14 16.5 25t30.5 17t29.5 17t13.5 25q0 52 4 404.5t4 412.5v442l-84 -4q-15 -1 -44 -12.5t-39 -7.5q-10 5 -18 21t-5 32l66 64h124v63
q0 89 51 188t138.5 168.5t179.5 69.5q33 0 100 -33t123 -79t56 -78z" />
    <glyph glyph-name="fl" unicode="&#xfb02;" horiz-adv-x="1286" 
d="M1214 47q8 -8 10 -16t-2.5 -15.5t-9 -12t-12.5 -11.5q-6 -4 -17.5 -5.5t-27 -1.5t-20.5 -1q-28 -4 -68.5 6t-62.5 10q-25 0 -65 -8.5t-56 -7.5q-60 0 -68 16q-4 8 0 37q2 14 17 25t31.5 17t30 17t13.5 25q0 26 3.5 387.5t2.5 429.5q0 681 -6 696q0 39 -15.5 96t-49.5 89
q-25 24 -59.5 37.5t-91.5 18.5t-86 6t-107 1q-34 0 -60.5 -41t-37.5 -88t-11 -82v-198h197l67 -64q1 -16 -6.5 -32t-17.5 -21q-9 -4 -38.5 8t-45.5 12l-7 1q-8 1 -22.5 3t-32.5 4.5t-44 4.5l-52 4q0 -110 -1 -277.5t-1 -177.5v-68v-121.5v-145.5t1 -160t3 -144.5t5.5 -119
t8.5 -64.5q8 -23 43 -40t46 -28q8 -8 10 -15.5t-3 -15.5t-9 -12t-13 -12q-6 -4 -17.5 -5.5t-26 -1.5t-19.5 -1q-28 -4 -70 6t-65 10q-24 0 -64 -8.5t-57 -7.5q-58 0 -66 16q-3 4 -3.5 9t0 8.5t2 10t1.5 9.5q2 14 16.5 25t30.5 17t29.5 17t13.5 25q0 52 4 404.5t4 412.5v448
q-23 -2 -43.5 -4.5t-30.5 -3.5l-10 -2q-16 0 -45 -12t-38 -8q-10 5 -18 21t-5 32l66 64h124v63q0 89 51 188t138.5 168.5t179.5 69.5q99 0 171.5 -7t123.5 -24t72 -26.5t61 -32.5q43 -26 62.5 -44t35.5 -52q19 -42 19 -82q0 -124 1 -424t1 -332v-68.5v-121.5v-145t1.5 -160
t3.5 -144t6 -119.5t9 -64.5q5 -18 20 -28t35.5 -19t32.5 -21z" />
  </font>
</defs>
</svg>
